<svg width="1440" height="1795" viewBox="0 0 1440 1795" fill="none" xmlns="http://www.w3.org/2000/svg">
<g opacity="0.25" filter="url(#filter0_f_402_4380)">
<path d="M-695.219 2214.06C-1047.46 1995.04 -1201.69 1606.3 -1039.7 1345.77C-188.187 -23.7075 -131.881 721.425 220.36 940.441C572.6 1159.46 373.352 1392.9 235.88 2138.89C73.8882 2399.42 -342.979 2433.07 -695.219 2214.06Z" fill="#7084FF"/>
</g>
<g opacity="0.25" filter="url(#filter1_f_402_4380)">
<path d="M763.21 537.737C905.816 131.953 1211.71 -130.126 1446.45 -47.633C2680.33 385.993 2067.19 655.535 1924.59 1061.32C1781.98 1467.1 1565.59 1340.56 930.025 1421.84C695.29 1339.35 620.604 943.522 763.21 537.737Z" fill="#7084FF"/>
</g>
<path d="M1286.65 1727.05V1727.05C1248.33 1765.37 1186.21 1765.37 1147.88 1727.05L1066.63 1645.8C1028.81 1607.98 1028.81 1546.67 1066.63 1508.85L1073.93 1501.55C1107.72 1467.77 1162.49 1467.77 1196.27 1501.55V1501.55C1230.05 1535.33 1230.05 1590.11 1196.27 1623.89L988.099 1832.05C839.356 1980.79 598.203 1980.79 449.46 1832.05L252.239 1634.84C201.313 1583.91 118.749 1583.91 67.8239 1634.84V1634.84C16.8952 1685.76 16.8952 1768.33 67.8239 1819.26V1819.26C118.749 1870.18 201.314 1870.18 252.239 1819.26L295.148 1776.35C369.776 1701.73 369.776 1580.73 295.148 1506.11V1506.11C220.524 1431.49 99.5389 1431.49 24.9154 1506.11L-658.005 2189" stroke="url(#paint0_linear_402_4380)" stroke-width="3.31473" stroke-dasharray="5.52 11.05"/>
<path d="M1375.83 1722.87L1382.65 1716.06L1378.31 1702.31L1382.23 1698.39C1383.81 1696.81 1383.81 1694.26 1382.23 1692.73C1380.65 1691.15 1378.13 1691.15 1376.56 1692.73L1375.58 1693.71L1372.16 1682.93L1375.53 1679.57C1377.11 1677.99 1377.11 1675.48 1375.53 1673.91C1373.96 1672.33 1371.44 1672.33 1369.86 1673.91L1369.44 1674.33L1364.87 1659.86L1371.87 1653.38C1395.62 1631.16 1384.06 1619.23 1361.59 1643.12L1355.11 1650.1L1340.61 1645.55L1341.03 1645.12C1342.61 1643.55 1342.61 1640.99 1341.03 1639.46C1339.46 1637.88 1336.94 1637.88 1335.36 1639.46L1331.99 1642.82L1321.2 1639.42L1322.18 1638.44C1323.76 1636.86 1323.76 1634.35 1322.18 1632.77C1320.61 1631.2 1318.09 1631.2 1316.51 1632.77L1312.59 1636.69L1298.82 1632.35L1291.99 1639.16L1334.38 1662.03C1336.94 1663.39 1337.58 1666.75 1335.7 1668.97L1315.28 1692.98L1298.01 1687.53L1295.62 1689.92L1307.47 1697.92C1309.31 1699.16 1309.82 1701.67 1308.58 1703.46C1307.47 1705.07 1306.7 1706.56 1307.56 1707.46C1308.41 1708.31 1309.95 1707.59 1311.57 1706.44C1313.36 1705.16 1315.87 1705.71 1317.11 1707.54L1325.13 1719.38L1327.52 1717L1322.06 1699.75L1346.11 1679.36C1348.33 1677.48 1351.69 1678.12 1353.06 1680.68L1375.96 1723L1375.83 1722.87Z" fill="url(#paint1_linear_402_4380)"/>
<defs>
<filter id="filter0_f_402_4380" x="-1554.08" y="90.9629" width="2421.87" height="2717.65" filterUnits="userSpaceOnUse" color-interpolation-filters="sRGB">
<feFlood flood-opacity="0" result="BackgroundImageFix"/>
<feBlend mode="normal" in="SourceGraphic" in2="BackgroundImageFix" result="shape"/>
<feGaussianBlur stdDeviation="225" result="effect1_foregroundBlur_402_4380"/>
</filter>
<filter id="filter1_f_402_4380" x="240.851" y="-512.809" width="2412.06" height="2384.65" filterUnits="userSpaceOnUse" color-interpolation-filters="sRGB">
<feFlood flood-opacity="0" result="BackgroundImageFix"/>
<feBlend mode="normal" in="SourceGraphic" in2="BackgroundImageFix" result="shape"/>
<feGaussianBlur stdDeviation="225" result="effect1_foregroundBlur_402_4380"/>
</filter>
<linearGradient id="paint0_linear_402_4380" x1="1523.43" y1="1189.22" x2="-234.919" y2="1876.73" gradientUnits="userSpaceOnUse">
<stop stop-color="#405BFF"/>
<stop offset="1" stop-color="#405BFF" stop-opacity="0"/>
</linearGradient>
<linearGradient id="paint1_linear_402_4380" x1="1409.02" y1="1613.26" x2="1284.4" y2="1739.28" gradientUnits="userSpaceOnUse">
<stop offset="0.123144" stop-color="#405BFF"/>
<stop offset="1" stop-color="#3DD6F5"/>
</linearGradient>
</defs>
</svg>
