<svg width="153" height="34" viewBox="0 0 153 34" fill="none" xmlns="http://www.w3.org/2000/svg">
<path d="M46.4372 21.8359V10.999H48.6559V19.9191H53.6367V21.8359H46.4372ZM57.01 21.9718C55.4554 21.9718 54.3083 21.036 54.3083 19.6323C54.3083 18.0475 55.5762 17.3834 57.176 17.0967L59.1533 16.7193V16.5986C59.1533 15.9194 58.8061 15.4968 57.9307 15.4968C57.1459 15.4968 56.7383 15.8439 56.5572 16.5533L54.5498 16.176C54.9121 14.8327 56.1195 13.746 58.0062 13.746C60.0136 13.746 61.221 14.6666 61.221 16.508V19.7531C61.221 20.1757 61.4022 20.3115 61.87 20.2511V21.8359C60.5267 22.0321 59.7117 21.7605 59.3646 21.0964C58.8514 21.6548 58.0515 21.9718 57.01 21.9718ZM59.1533 19.0135V18.1985L57.5987 18.5154C56.9044 18.6513 56.3912 18.8777 56.3912 19.5116C56.3912 20.0549 56.7987 20.3719 57.4326 20.3719C58.3231 20.3719 59.1533 19.904 59.1533 19.0135ZM69.9592 13.8969V21.8359H67.8461V21.0209C67.4084 21.5341 66.7141 22.002 65.7029 22.002C64.0577 22.002 63.0012 20.87 63.0012 19.1493V13.8969H65.1143V18.6814C65.1143 19.5569 65.5067 20.1304 66.3821 20.1304C67.1217 20.1304 67.8461 19.587 67.8461 18.5607V13.8969H69.9592ZM71.7137 21.8359V13.8969H73.8267V14.7119C74.2644 14.1988 74.9889 13.746 76.0002 13.746C77.6604 13.746 78.6717 14.878 78.6717 16.5986V21.8359H76.5586V17.2023C76.5586 16.3118 76.1964 15.6779 75.2908 15.6779C74.5512 15.6779 73.8267 16.2062 73.8267 17.2476V21.8359H71.7137ZM81.9958 17.8664C81.9958 19.3606 82.7354 20.221 83.8523 20.221C84.7277 20.221 85.256 19.6172 85.4522 18.8022L87.2785 19.6172C86.9162 20.9152 85.6786 22.002 83.8372 22.002C81.5279 22.002 79.8979 20.3266 79.8979 17.8664C79.8979 15.4213 81.5279 13.746 83.8372 13.746C85.6635 13.746 86.8709 14.8025 87.2483 16.0854L85.4522 16.9306C85.256 16.1156 84.7277 15.5119 83.8523 15.5119C82.7354 15.5119 81.9958 16.3873 81.9958 17.8664ZM88.2956 21.8359V10.999H90.4087V14.7119C90.8464 14.1988 91.5708 13.746 92.5821 13.746C94.2423 13.746 95.2536 14.878 95.2536 16.5986V21.8359H93.1405V17.2023C93.1405 16.3118 92.7783 15.6779 91.8727 15.6779C91.1331 15.6779 90.4087 16.2062 90.4087 17.2476V21.8359H88.2956ZM103.678 10.999H105.278L109.459 21.8359H107.995L106.893 18.9833H102.033L100.946 21.8359H99.4975L103.678 10.999ZM104.448 12.6291L102.516 17.7155H106.41L104.448 12.6291ZM110.689 12.5687V10.999H112.169V12.5687H110.689ZM112.108 13.9422V21.8359H110.75V13.9422H112.108ZM118.466 13.912V15.2855C118.24 15.2402 118.059 15.2251 117.802 15.2251C116.655 15.2251 115.734 16.1307 115.734 17.5193V21.8359H114.376V13.9422H115.734V15.2855C116.081 14.4855 116.851 13.8818 117.923 13.8818C118.134 13.8818 118.33 13.8969 118.466 13.912ZM123.809 13.9422H124.956L126.586 19.8285L128.231 13.9422H129.589L127.19 21.8359H125.997L124.352 15.9798L122.707 21.8359H121.515L119.115 13.9422H120.518L122.179 19.8134L123.809 13.9422ZM132.729 21.9718C131.295 21.9718 130.133 21.1266 130.133 19.7078C130.133 18.1381 131.355 17.4891 133.121 17.1268L135.038 16.7344V16.4024C135.038 15.4968 134.54 14.9836 133.483 14.9836C132.487 14.9836 131.898 15.4515 131.657 16.3269L130.374 15.9949C130.751 14.7119 131.914 13.7912 133.529 13.7912C135.294 13.7912 136.381 14.6516 136.381 16.342V20.1908C136.381 20.7039 136.698 20.87 137.226 20.7492V21.8359C136.019 21.9869 135.325 21.7001 135.159 20.9454C134.676 21.5643 133.8 21.9718 132.729 21.9718ZM135.038 19.1493V17.7909L133.498 18.123C132.291 18.3645 131.476 18.6965 131.476 19.6474C131.476 20.4172 132.034 20.87 132.895 20.87C134.057 20.87 135.038 20.1606 135.038 19.1493ZM141.536 22.6963C141.083 23.8886 140.464 24.6433 139.091 24.6433C138.758 24.6433 138.592 24.6282 138.351 24.5829V23.4056C138.608 23.466 138.774 23.4811 139 23.4811C139.589 23.4811 139.906 23.2698 140.222 22.4849L140.6 21.5492L137.672 13.9422H139.106L141.324 19.9795L143.513 13.9422H144.932L141.536 22.6963ZM145.19 20.1606L146.247 19.3908C146.669 20.3115 147.635 20.87 148.662 20.87C149.582 20.87 150.397 20.4775 150.397 19.6172C150.397 18.7569 149.643 18.6362 148.345 18.3645C147.047 18.0777 145.688 17.7909 145.688 16.176C145.688 14.7723 146.911 13.7912 148.586 13.7912C150.005 13.7912 151.167 14.4855 151.635 15.4213L150.669 16.1911C150.262 15.4062 149.522 14.9081 148.526 14.9081C147.62 14.9081 147.017 15.3609 147.017 16.0703C147.017 16.8099 147.711 16.9457 148.813 17.1872C150.171 17.5042 151.726 17.7759 151.726 19.4965C151.726 21.0058 150.352 22.002 148.662 22.002C147.228 22.002 145.794 21.3831 145.19 20.1606Z" fill="#212121"/>
<circle cx="16.127" cy="17.0001" r="16.127" fill="url(#paint0_linear_631_8030)"/>
<mask id="mask0_631_8030" style="mask-type:alpha" maskUnits="userSpaceOnUse" x="0" y="0" width="33" height="34">
<circle cx="16.127" cy="17.0001" r="16.127" fill="white"/>
</mask>
<g mask="url(#mask0_631_8030)">
<path fill-rule="evenodd" clip-rule="evenodd" d="M38.4567 34.7799L19.372 7.25706C18.754 6.36571 17.7374 5.83398 16.6528 5.83398H8.64692C7.59886 5.83398 6.81494 6.7963 7.02698 7.82268L7.8121 11.623H16.5405C19.7378 11.623 22.3297 14.215 22.3297 17.4122C22.3297 20.6095 19.7378 23.2014 16.5405 23.2014H10.2041L12.5961 34.7799H38.4567Z" fill="white"/>
<path fill-rule="evenodd" clip-rule="evenodd" d="M38.4567 34.7799L19.372 7.25706C18.754 6.36571 17.7374 5.83398 16.6528 5.83398H8.64692C7.59886 5.83398 6.81494 6.7963 7.02698 7.82268L7.8121 11.623H16.5405C19.7378 11.623 22.3297 14.215 22.3297 17.4122C22.3297 20.6095 19.7378 23.2014 16.5405 23.2014H10.2041L12.5961 34.7799H38.4567Z" fill="url(#paint1_linear_631_8030)"/>
</g>
<circle cx="4.13514" cy="4.13514" r="4.13514" transform="matrix(-1 0 0 1 20.6758 13.2793)" fill="white"/>
<circle cx="4.13514" cy="4.13514" r="4.13514" transform="matrix(-1 0 0 1 20.6758 13.2793)" fill="url(#paint2_linear_631_8030)"/>
<defs>
<linearGradient id="paint0_linear_631_8030" x1="40.5882" y1="-4.93268" x2="-2.63222" y2="38.7716" gradientUnits="userSpaceOnUse">
<stop offset="0.123144" stop-color="#405BFF"/>
<stop offset="1" stop-color="#3DD6F5"/>
</linearGradient>
<linearGradient id="paint1_linear_631_8030" x1="22.7244" y1="5.83398" x2="22.7244" y2="34.7799" gradientUnits="userSpaceOnUse">
<stop stop-color="white"/>
<stop offset="1" stop-color="white" stop-opacity="0"/>
</linearGradient>
<linearGradient id="paint2_linear_631_8030" x1="4.13514" y1="0" x2="4.13514" y2="8.27027" gradientUnits="userSpaceOnUse">
<stop stop-color="white"/>
<stop offset="1" stop-color="white" stop-opacity="0"/>
</linearGradient>
</defs>
</svg>
