<svg width="81" height="80" viewBox="0 0 81 80" fill="none" xmlns="http://www.w3.org/2000/svg">
<circle cx="40.5" cy="40" r="40" fill="url(#paint0_linear_174_408)"/>
<mask id="mask0_174_408" style="mask-type:alpha" maskUnits="userSpaceOnUse" x="0" y="0" width="81" height="80">
<circle cx="40.5" cy="40" r="40" fill="white"/>
</mask>
<g mask="url(#mask0_174_408)">
<path fill-rule="evenodd" clip-rule="evenodd" d="M95.8843 84.1025L47.5695 14.4254C46.6497 13.0989 45.1349 12.3076 43.5208 12.3076H19.9326C18.3729 12.3076 17.2058 13.7397 17.5213 15.2672L19.8763 26.6665H41.5253C49.4555 26.6665 55.8843 33.0953 55.8843 41.0255C55.8843 48.9558 49.4555 55.3845 41.5253 55.3845H25.8092L31.742 84.1025H95.8843Z" fill="white"/>
<path fill-rule="evenodd" clip-rule="evenodd" d="M95.8843 84.1025L47.5695 14.4254C46.6497 13.0989 45.1349 12.3076 43.5208 12.3076H19.9326C18.3729 12.3076 17.2058 13.7397 17.5213 15.2672L19.8763 26.6665H41.5253C49.4555 26.6665 55.8843 33.0953 55.8843 41.0255C55.8843 48.9558 49.4555 55.3845 41.5253 55.3845H25.8092L31.742 84.1025H95.8843Z" fill="url(#paint1_linear_174_408)"/>
</g>
<circle cx="10.2564" cy="10.2564" r="10.2564" transform="matrix(-1 0 0 1 51.782 30.7693)" fill="white"/>
<circle cx="10.2564" cy="10.2564" r="10.2564" transform="matrix(-1 0 0 1 51.782 30.7693)" fill="url(#paint2_linear_174_408)"/>
<defs>
<linearGradient id="paint0_linear_174_408" x1="101.171" y1="-14.4" x2="-6.02871" y2="94" gradientUnits="userSpaceOnUse">
<stop offset="0.123144" stop-color="#405BFF"/>
<stop offset="1" stop-color="#3DD6F5"/>
</linearGradient>
<linearGradient id="paint1_linear_174_408" x1="56.6769" y1="12.3076" x2="56.6769" y2="84.1025" gradientUnits="userSpaceOnUse">
<stop stop-color="white"/>
<stop offset="1" stop-color="white" stop-opacity="0"/>
</linearGradient>
<linearGradient id="paint2_linear_174_408" x1="10.2564" y1="0" x2="10.2564" y2="20.5128" gradientUnits="userSpaceOnUse">
<stop stop-color="white"/>
<stop offset="1" stop-color="white" stop-opacity="0"/>
</linearGradient>
</defs>
</svg>
