<svg width="210" height="122" viewBox="0 0 210 122" fill="none" xmlns="http://www.w3.org/2000/svg">
<circle cx="104.638" cy="37.4359" r="37.4359" fill="url(#paint0_linear_114_1386)"/>
<mask id="mask0_114_1386" style="mask-type:alpha" maskUnits="userSpaceOnUse" x="67" y="0" width="76" height="75">
<circle cx="104.638" cy="37.4359" r="37.4359" fill="white"/>
</mask>
<g mask="url(#mask0_114_1386)">
<path fill-rule="evenodd" clip-rule="evenodd" d="M156.472 78.7113L111.254 13.5008C110.393 12.2593 108.976 11.5187 107.465 11.5187H85.3891C83.9293 11.5187 82.837 12.859 83.1323 14.2886L85.3363 24.9572H105.598C113.019 24.9572 119.036 30.9739 119.036 38.3958C119.036 45.8177 113.019 51.8343 105.598 51.8343H90.8889L96.4414 78.7113H156.472Z" fill="white"/>
<path fill-rule="evenodd" clip-rule="evenodd" d="M156.472 78.7113L111.254 13.5008C110.393 12.2593 108.976 11.5187 107.465 11.5187H85.3891C83.9293 11.5187 82.837 12.859 83.1323 14.2886L85.3363 24.9572H105.598C113.019 24.9572 119.036 30.9739 119.036 38.3958C119.036 45.8177 113.019 51.8343 105.598 51.8343H90.8889L96.4414 78.7113H156.472Z" fill="url(#paint1_linear_114_1386)"/>
</g>
<circle cx="9.59894" cy="9.59894" r="9.59894" transform="matrix(-1 0 0 1 115.197 28.7968)" fill="white"/>
<circle cx="9.59894" cy="9.59894" r="9.59894" transform="matrix(-1 0 0 1 115.197 28.7968)" fill="url(#paint2_linear_114_1386)"/>
<path d="M0 116.412V94.8718H4.41V112.602H14.31V116.412H0Z" fill="#191919"/>
<path d="M21.015 116.682C17.925 116.682 15.645 114.822 15.645 112.032C15.645 108.882 18.165 107.562 21.345 106.992L25.275 106.242V106.002C25.275 104.652 24.585 103.812 22.845 103.812C21.285 103.812 20.475 104.502 20.115 105.912L16.125 105.162C16.845 102.492 19.245 100.332 22.995 100.332C26.985 100.332 29.385 102.162 29.385 105.822V112.272C29.385 113.112 29.745 113.382 30.675 113.262V116.412C28.005 116.802 26.385 116.262 25.695 114.942C24.675 116.052 23.085 116.682 21.015 116.682ZM25.275 110.802V109.182L22.185 109.812C20.805 110.082 19.785 110.532 19.785 111.792C19.785 112.872 20.595 113.502 21.855 113.502C23.625 113.502 25.275 112.572 25.275 110.802Z" fill="#191919"/>
<path d="M46.7534 100.632V116.412H42.5534V114.792C41.6834 115.812 40.3034 116.742 38.2934 116.742C35.0234 116.742 32.9234 114.492 32.9234 111.072V100.632H37.1234V110.142C37.1234 111.882 37.9034 113.022 39.6434 113.022C41.1134 113.022 42.5534 111.942 42.5534 109.902V100.632H46.7534Z" fill="#191919"/>
<path d="M50.2406 116.412V100.632H54.4406V102.252C55.3106 101.232 56.7506 100.332 58.7606 100.332C62.0606 100.332 64.0706 102.582 64.0706 106.002V116.412H59.8706V107.202C59.8706 105.432 59.1506 104.172 57.3506 104.172C55.8806 104.172 54.4406 105.222 54.4406 107.292V116.412H50.2406Z" fill="#191919"/>
<path d="M70.6779 108.522C70.6779 111.492 72.1479 113.202 74.3679 113.202C76.1079 113.202 77.1579 112.002 77.5479 110.382L81.1779 112.002C80.4579 114.582 77.9979 116.742 74.3379 116.742C69.7479 116.742 66.5079 113.412 66.5079 108.522C66.5079 103.662 69.7479 100.332 74.3379 100.332C77.9679 100.332 80.3679 102.432 81.1179 104.982L77.5479 106.662C77.1579 105.042 76.1079 103.842 74.3679 103.842C72.1479 103.842 70.6779 105.582 70.6779 108.522Z" fill="#191919"/>
<path d="M83.1996 116.412V94.8718H87.3996V102.252C88.2696 101.232 89.7096 100.332 91.7196 100.332C95.0196 100.332 97.0296 102.582 97.0296 106.002V116.412H92.8296V107.202C92.8296 105.432 92.1096 104.172 90.3096 104.172C88.8396 104.172 87.3996 105.222 87.3996 107.292V116.412H83.1996Z" fill="#191919"/>
<path d="M113.775 94.8718H116.955L125.265 116.412H122.355L120.165 110.742H110.505L108.345 116.412H105.465L113.775 94.8718ZM115.305 98.1118L111.465 108.222H119.205L115.305 98.1118Z" fill="#191919"/>
<path d="M127.711 97.9918V94.8718H130.651V97.9918H127.711ZM130.531 100.722V116.412H127.831V100.722H130.531Z" fill="#191919"/>
<path d="M143.168 100.662V103.392C142.718 103.302 142.358 103.272 141.848 103.272C139.568 103.272 137.738 105.072 137.738 107.832V116.412H135.038V100.722H137.738V103.392C138.428 101.802 139.958 100.602 142.088 100.602C142.508 100.602 142.898 100.632 143.168 100.662Z" fill="#191919"/>
<path d="M153.787 100.722H156.067L159.307 112.422L162.577 100.722H165.277L160.507 116.412H158.137L154.867 104.772L151.597 116.412H149.227L144.457 100.722H147.247L150.547 112.392L153.787 100.722Z" fill="#191919"/>
<path d="M171.517 116.682C168.667 116.682 166.357 115.002 166.357 112.182C166.357 109.062 168.787 107.772 172.297 107.052L176.107 106.272V105.612C176.107 103.812 175.117 102.792 173.017 102.792C171.037 102.792 169.867 103.722 169.387 105.462L166.837 104.802C167.587 102.252 169.897 100.422 173.107 100.422C176.617 100.422 178.777 102.132 178.777 105.492V113.142C178.777 114.162 179.407 114.492 180.457 114.252V116.412C178.057 116.712 176.677 116.142 176.347 114.642C175.387 115.872 173.647 116.682 171.517 116.682ZM176.107 111.072V108.372L173.047 109.032C170.647 109.512 169.027 110.172 169.027 112.062C169.027 113.592 170.137 114.492 171.847 114.492C174.157 114.492 176.107 113.082 176.107 111.072Z" fill="#191919"/>
<path d="M189.022 118.122C188.122 120.492 186.892 121.992 184.162 121.992C183.502 121.992 183.172 121.962 182.692 121.872V119.532C183.202 119.652 183.532 119.682 183.982 119.682C185.152 119.682 185.782 119.262 186.412 117.702L187.162 115.842L181.342 100.722H184.192L188.602 112.722L192.952 100.722H195.772L189.022 118.122Z" fill="#191919"/>
<path d="M196.286 113.082L198.386 111.552C199.226 113.382 201.146 114.492 203.186 114.492C205.016 114.492 206.636 113.712 206.636 112.002C206.636 110.292 205.136 110.052 202.556 109.512C199.976 108.942 197.276 108.372 197.276 105.162C197.276 102.372 199.706 100.422 203.036 100.422C205.856 100.422 208.166 101.802 209.096 103.662L207.176 105.192C206.366 103.632 204.896 102.642 202.916 102.642C201.116 102.642 199.916 103.542 199.916 104.952C199.916 106.422 201.296 106.692 203.486 107.172C206.186 107.802 209.276 108.342 209.276 111.762C209.276 114.762 206.546 116.742 203.186 116.742C200.336 116.742 197.486 115.512 196.286 113.082Z" fill="#191919"/>
<defs>
<linearGradient id="paint0_linear_114_1386" x1="161.42" y1="-13.4769" x2="61.0921" y2="87.9743" gradientUnits="userSpaceOnUse">
<stop offset="0.123144" stop-color="#405BFF"/>
<stop offset="1" stop-color="#3DD6F5"/>
</linearGradient>
<linearGradient id="paint1_linear_114_1386" x1="119.778" y1="11.5187" x2="119.778" y2="78.7113" gradientUnits="userSpaceOnUse">
<stop stop-color="white"/>
<stop offset="1" stop-color="white" stop-opacity="0"/>
</linearGradient>
<linearGradient id="paint2_linear_114_1386" x1="9.59894" y1="0" x2="9.59894" y2="19.1979" gradientUnits="userSpaceOnUse">
<stop stop-color="white"/>
<stop offset="1" stop-color="white" stop-opacity="0"/>
</linearGradient>
</defs>
</svg>
