<svg width="403" height="89" viewBox="0 0 403 89" fill="none" xmlns="http://www.w3.org/2000/svg">
<circle cx="44.3853" cy="44.3853" r="36.3853" fill="url(#paint0_linear_114_1382)"/>
<mask id="mask0_114_1382" style="mask-type:alpha" maskUnits="userSpaceOnUse" x="8" y="8" width="73" height="73">
<circle cx="44.3853" cy="44.3853" r="36.3853" fill="white"/>
</mask>
<g mask="url(#mask0_114_1382)">
<path fill-rule="evenodd" clip-rule="evenodd" d="M94.7649 84.5022L52.2645 23.2104C50.5208 20.6956 47.6529 19.1954 44.5926 19.1954H28.6586C25.7016 19.1954 23.4883 21.9104 24.0865 24.8062L25.6257 32.2568H45.3187C52.5323 32.2568 58.3801 38.1046 58.3801 45.3182C58.3801 52.5318 52.5323 58.3796 45.3187 58.3796H31.0224L36.4191 84.5022H94.7649Z" fill="#282828"/>
</g>
<circle cx="9.32955" cy="9.32955" r="9.32955" transform="matrix(-1 0 0 1 54.6476 35.9887)" fill="#2C2C2C"/>
<path d="M115.771 55.0252V26.3052H121.651V49.9452H134.851V55.0252H115.771Z" fill="white"/>
<path d="M143.791 55.3852C139.671 55.3852 136.631 52.9052 136.631 49.1852C136.631 44.9852 139.991 43.2252 144.231 42.4652L149.471 41.4652V41.1452C149.471 39.3452 148.551 38.2252 146.231 38.2252C144.151 38.2252 143.071 39.1452 142.591 41.0252L137.271 40.0252C138.231 36.4652 141.431 33.5852 146.431 33.5852C151.751 33.5852 154.951 36.0252 154.951 40.9052V49.5052C154.951 50.6252 155.431 50.9852 156.671 50.8252V55.0252C153.111 55.5452 150.951 54.8252 150.031 53.0652C148.671 54.5452 146.551 55.3852 143.791 55.3852ZM149.471 47.5452V45.3852L145.351 46.2252C143.511 46.5852 142.151 47.1852 142.151 48.8652C142.151 50.3052 143.231 51.1452 144.911 51.1452C147.271 51.1452 149.471 49.9052 149.471 47.5452Z" fill="white"/>
<path d="M178.108 33.9852V55.0252H172.508V52.8652C171.348 54.2252 169.508 55.4652 166.828 55.4652C162.468 55.4652 159.668 52.4652 159.668 47.9052V33.9852H165.268V46.6652C165.268 48.9852 166.308 50.5052 168.628 50.5052C170.588 50.5052 172.508 49.0652 172.508 46.3452V33.9852H178.108Z" fill="white"/>
<path d="M182.758 55.0252V33.9852H188.358V36.1452C189.518 34.7852 191.438 33.5852 194.118 33.5852C198.518 33.5852 201.198 36.5852 201.198 41.1452V55.0252H195.598V42.7452C195.598 40.3852 194.638 38.7052 192.238 38.7052C190.278 38.7052 188.358 40.1052 188.358 42.8652V55.0252H182.758Z" fill="white"/>
<path d="M210.008 44.5052C210.008 48.4652 211.968 50.7452 214.928 50.7452C217.248 50.7452 218.648 49.1452 219.168 46.9852L224.008 49.1452C223.048 52.5852 219.768 55.4652 214.888 55.4652C208.768 55.4652 204.448 51.0252 204.448 44.5052C204.448 38.0252 208.768 33.5852 214.888 33.5852C219.728 33.5852 222.928 36.3852 223.928 39.7852L219.168 42.0252C218.648 39.8652 217.248 38.2652 214.928 38.2652C211.968 38.2652 210.008 40.5852 210.008 44.5052Z" fill="white"/>
<path d="M226.703 55.0252V26.3052H232.303V36.1452C233.463 34.7852 235.383 33.5852 238.063 33.5852C242.463 33.5852 245.143 36.5852 245.143 41.1452V55.0252H239.543V42.7452C239.543 40.3852 238.583 38.7052 236.183 38.7052C234.223 38.7052 232.303 40.1052 232.303 42.8652V55.0252H226.703Z" fill="white"/>
<path d="M267.471 26.3052H271.711L282.791 55.0252H278.911L275.991 47.4652H263.111L260.231 55.0252H256.391L267.471 26.3052ZM269.511 30.6252L264.391 44.1052H274.711L269.511 30.6252Z" fill="white"/>
<path d="M286.051 30.4652V26.3052H289.971V30.4652H286.051ZM289.811 34.1052V55.0252H286.211V34.1052H289.811Z" fill="white"/>
<path d="M306.661 34.0252V37.6652C306.061 37.5452 305.581 37.5052 304.901 37.5052C301.861 37.5052 299.421 39.9052 299.421 43.5852V55.0252H295.821V34.1052H299.421V37.6652C300.341 35.5452 302.381 33.9452 305.221 33.9452C305.781 33.9452 306.301 33.9852 306.661 34.0252Z" fill="white"/>
<path d="M320.82 34.1052H323.86L328.18 49.7052L332.54 34.1052H336.14L329.78 55.0252H326.62L322.26 39.5052L317.9 55.0252H314.74L308.38 34.1052H312.1L316.5 49.6652L320.82 34.1052Z" fill="white"/>
<path d="M344.459 55.3852C340.659 55.3852 337.579 53.1452 337.579 49.3852C337.579 45.2252 340.819 43.5052 345.499 42.5452L350.579 41.5052V40.6252C350.579 38.2252 349.259 36.8652 346.459 36.8652C343.819 36.8652 342.259 38.1052 341.619 40.4252L338.219 39.5452C339.219 36.1452 342.299 33.7052 346.579 33.7052C351.259 33.7052 354.139 35.9852 354.139 40.4652V50.6652C354.139 52.0252 354.979 52.4652 356.379 52.1452V55.0252C353.179 55.4252 351.339 54.6652 350.899 52.6652C349.619 54.3052 347.299 55.3852 344.459 55.3852ZM350.579 47.9052V44.3052L346.499 45.1852C343.299 45.8252 341.139 46.7052 341.139 49.2252C341.139 51.2652 342.619 52.4652 344.899 52.4652C347.979 52.4652 350.579 50.5852 350.579 47.9052Z" fill="white"/>
<path d="M367.8 57.3052C366.6 60.4652 364.96 62.4652 361.32 62.4652C360.44 62.4652 360 62.4252 359.36 62.3052V59.1852C360.04 59.3452 360.48 59.3852 361.08 59.3852C362.64 59.3852 363.48 58.8252 364.32 56.7452L365.32 54.2652L357.56 34.1052H361.36L367.24 50.1052L373.04 34.1052H376.8L367.8 57.3052Z" fill="white"/>
<path d="M377.485 50.5852L380.285 48.5452C381.405 50.9852 383.965 52.4652 386.685 52.4652C389.125 52.4652 391.285 51.4252 391.285 49.1452C391.285 46.8652 389.285 46.5452 385.845 45.8252C382.405 45.0652 378.805 44.3052 378.805 40.0252C378.805 36.3052 382.045 33.7052 386.485 33.7052C390.245 33.7052 393.325 35.5452 394.565 38.0252L392.005 40.0652C390.925 37.9852 388.965 36.6652 386.325 36.6652C383.925 36.6652 382.325 37.8652 382.325 39.7452C382.325 41.7052 384.165 42.0652 387.085 42.7052C390.685 43.5452 394.805 44.2652 394.805 48.8252C394.805 52.8252 391.165 55.4652 386.685 55.4652C382.885 55.4652 379.085 53.8252 377.485 50.5852Z" fill="white"/>
<defs>
<linearGradient id="paint0_linear_114_1382" x1="99.5738" y1="-5.09869" x2="2.06128" y2="93.5053" gradientUnits="userSpaceOnUse">
<stop offset="0.123144" stop-color="#405BFF"/>
<stop offset="1" stop-color="#3DD6F5"/>
</linearGradient>
</defs>
</svg>
