<svg width="24" height="24" viewBox="0 0 24 24" fill="none" xmlns="http://www.w3.org/2000/svg">
<path d="M19.1591 0.75L17.8705 3.5625L15.0682 4.84091L17.8705 6.12955L19.1591 8.93182L20.4375 6.12955L23.25 4.84091L20.4375 3.5625M8.93182 3.81818L6.375 9.44318L0.75 12L6.375 14.5568L8.93182 20.1818L11.4886 14.5568L17.1136 12L11.4886 9.44318M19.1591 15.0682L17.8705 17.8705L15.0682 19.1591L17.8705 20.4375L19.1591 23.25L20.4375 20.4375L23.25 19.1591L20.4375 17.8705" fill="white"/>
<path d="M19.1591 0.75L17.8705 3.5625L15.0682 4.84091L17.8705 6.12955L19.1591 8.93182L20.4375 6.12955L23.25 4.84091L20.4375 3.5625M8.93182 3.81818L6.375 9.44318L0.75 12L6.375 14.5568L8.93182 20.1818L11.4886 14.5568L17.1136 12L11.4886 9.44318M19.1591 15.0682L17.8705 17.8705L15.0682 19.1591L17.8705 20.4375L19.1591 23.25L20.4375 20.4375L23.25 19.1591L20.4375 17.8705" fill="url(#paint0_linear_520_370)"/>
<defs>
<linearGradient id="paint0_linear_520_370" x1="12" y1="0.75" x2="12" y2="23.25" gradientUnits="userSpaceOnUse">
<stop stop-color="white"/>
<stop offset="1" stop-color="white" stop-opacity="0"/>
</linearGradient>
</defs>
</svg>
