<svg width="10" height="16" viewBox="0 0 10 16" fill="none" xmlns="http://www.w3.org/2000/svg">
<path d="M2.49459 1.26268L2.31782 1.0859L2.14104 1.26268L0.928692 2.47503L0.750138 2.65358L0.930469 2.83034L6.52908 8.31803L0.930469 13.8057L0.750138 13.9825L0.928692 14.161L2.14104 15.3734L2.31782 15.5502L2.49459 15.3734L9.37317 8.49481L9.54995 8.31803L9.37317 8.14126L2.49459 1.26268Z" fill="white"/>
<path d="M2.49459 1.26268L2.31782 1.0859L2.14104 1.26268L0.928692 2.47503L0.750138 2.65358L0.930469 2.83034L6.52908 8.31803L0.930469 13.8057L0.750138 13.9825L0.928692 14.161L2.14104 15.3734L2.31782 15.5502L2.49459 15.3734L9.37317 8.49481L9.54995 8.31803L9.37317 8.14126L2.49459 1.26268Z" fill="url(#paint0_linear_172_10110)"/>
<path d="M2.49459 1.26268L2.31782 1.0859L2.14104 1.26268L0.928692 2.47503L0.750138 2.65358L0.930469 2.83034L6.52908 8.31803L0.930469 13.8057L0.750138 13.9825L0.928692 14.161L2.14104 15.3734L2.31782 15.5502L2.49459 15.3734L9.37317 8.49481L9.54995 8.31803L9.37317 8.14126L2.49459 1.26268Z" stroke="white" stroke-width="0.5"/>
<path d="M2.49459 1.26268L2.31782 1.0859L2.14104 1.26268L0.928692 2.47503L0.750138 2.65358L0.930469 2.83034L6.52908 8.31803L0.930469 13.8057L0.750138 13.9825L0.928692 14.161L2.14104 15.3734L2.31782 15.5502L2.49459 15.3734L9.37317 8.49481L9.54995 8.31803L9.37317 8.14126L2.49459 1.26268Z" stroke="url(#paint1_linear_172_10110)" stroke-width="0.5"/>
<defs>
<linearGradient id="paint0_linear_172_10110" x1="5.15093" y1="1.43945" x2="5.15093" y2="15.1966" gradientUnits="userSpaceOnUse">
<stop stop-color="white"/>
<stop offset="1" stop-color="white" stop-opacity="0"/>
</linearGradient>
<linearGradient id="paint1_linear_172_10110" x1="5.15093" y1="1.43945" x2="5.15093" y2="15.1966" gradientUnits="userSpaceOnUse">
<stop stop-color="white"/>
<stop offset="1" stop-color="white" stop-opacity="0"/>
</linearGradient>
</defs>
</svg>
