<svg width="24" height="24" viewBox="0 0 24 24" fill="none" xmlns="http://www.w3.org/2000/svg">
<mask id="mask0_163_9276" style="mask-type:alpha" maskUnits="userSpaceOnUse" x="0" y="0" width="24" height="24">
<rect width="24" height="24" fill="#D9D9D9"/>
</mask>
<g mask="url(#mask0_163_9276)">
<path d="M14.9 21.2V18.8H18.5C18.84 18.8 19.125 18.685 19.355 18.455C19.585 18.225 19.7 17.94 19.7 17.6V15.2C19.7 14.44 19.92 13.75 20.36 13.13C20.8 12.51 21.38 12.07 22.1 11.81V11.39C21.38 11.13 20.8 10.69 20.36 10.07C19.92 9.45 19.7 8.76 19.7 8V5.6C19.7 5.26 19.585 4.975 19.355 4.745C19.125 4.515 18.84 4.4 18.5 4.4H14.9V2H18.5C19.5 2 20.35 2.35 21.05 3.05C21.75 3.75 22.1 4.6 22.1 5.6V8C22.1 8.34 22.215 8.625 22.445 8.855C22.675 9.085 22.96 9.2 23.3 9.2H24.5V14H23.3C22.96 14 22.675 14.115 22.445 14.345C22.215 14.575 22.1 14.86 22.1 15.2V17.6C22.1 18.6 21.75 19.45 21.05 20.15C20.35 20.85 19.5 21.2 18.5 21.2H14.9ZM6.5 21.2C5.5 21.2 4.65 20.85 3.95 20.15C3.25 19.45 2.9 18.6 2.9 17.6V15.2C2.9 14.86 2.785 14.575 2.555 14.345C2.325 14.115 2.04 14 1.7 14H0.5V9.2H1.7C2.04 9.2 2.325 9.085 2.555 8.855C2.785 8.625 2.9 8.34 2.9 8V5.6C2.9 4.6 3.25 3.75 3.95 3.05C4.65 2.35 5.5 2 6.5 2H10.1V4.4H6.5C6.16 4.4 5.875 4.515 5.645 4.745C5.415 4.975 5.3 5.26 5.3 5.6V8C5.3 8.76 5.08 9.45 4.64 10.07C4.2 10.69 3.62 11.13 2.9 11.39V11.81C3.62 12.07 4.2 12.51 4.64 13.13C5.08 13.75 5.3 14.44 5.3 15.2V17.6C5.3 17.94 5.415 18.225 5.645 18.455C5.875 18.685 6.16 18.8 6.5 18.8H10.1V21.2H6.5Z" fill="#D1D3D4"/>
</g>
</svg>
