<svg width="26" height="25" viewBox="0 0 26 25" fill="none" xmlns="http://www.w3.org/2000/svg">
<path fill-rule="evenodd" clip-rule="evenodd" d="M5.75501 18.8476L5.75501 6H4V20.3272H5.75501V20.3272H21.1861V6.94751C21.1861 6.94751 19.3227 4.47295 17.6767 7.52191C17.0607 8.66296 16.5694 10.0319 16.115 11.2984C15.3551 13.416 14.698 15.2471 13.7325 15.2471C12.9823 15.2471 12.5134 14.6899 12.0316 14.1174C11.5226 13.5126 10.9993 12.8907 10.1144 12.8907C8.90626 12.8907 8.33157 14.1056 7.60772 15.6358C7.29967 16.287 6.96462 16.9953 6.54222 17.6914C6.26315 18.1513 5.99911 18.5323 5.75501 18.8476Z" fill="white"/>
<path fill-rule="evenodd" clip-rule="evenodd" d="M5.75501 18.8476L5.75501 6H4V20.3272H5.75501V20.3272H21.1861V6.94751C21.1861 6.94751 19.3227 4.47295 17.6767 7.52191C17.0607 8.66296 16.5694 10.0319 16.115 11.2984C15.3551 13.416 14.698 15.2471 13.7325 15.2471C12.9823 15.2471 12.5134 14.6899 12.0316 14.1174C11.5226 13.5126 10.9993 12.8907 10.1144 12.8907C8.90626 12.8907 8.33157 14.1056 7.60772 15.6358C7.29967 16.287 6.96462 16.9953 6.54222 17.6914C6.26315 18.1513 5.99911 18.5323 5.75501 18.8476Z" fill="url(#paint0_linear_248_836)"/>
<defs>
<linearGradient id="paint0_linear_248_836" x1="12.5931" y1="6" x2="12.5931" y2="20.3274" gradientUnits="userSpaceOnUse">
<stop stop-color="white"/>
<stop offset="1" stop-color="white" stop-opacity="0"/>
</linearGradient>
</defs>
</svg>
