<svg width="64" height="62" viewBox="0 0 64 62" fill="none" xmlns="http://www.w3.org/2000/svg">
<path d="M28.4932 6.67731C28.7299 6.07703 29.5795 6.07703 29.8162 6.67731L36.2822 23.0719C36.3544 23.2552 36.4995 23.4003 36.6828 23.4725L53.0774 29.9385C53.6777 30.1752 53.6777 31.0248 53.0774 31.2615L36.6828 37.7275C36.4995 37.7997 36.3544 37.9448 36.2822 38.1281L29.8162 54.5227C29.5795 55.123 28.7299 55.123 28.4932 54.5227L22.0272 38.1281C21.9549 37.9448 21.8099 37.7997 21.6266 37.7275L5.232 31.2615C4.63172 31.0248 4.63172 30.1752 5.232 29.9385L21.6266 23.4725C21.8099 23.4003 21.9549 23.2552 22.0272 23.0719L28.4932 6.67731Z" fill="url(#paint0_linear_229_3647)"/>
<g filter="url(#filter0_b_229_3647)">
<path d="M42.1224 14.2701C42.3592 13.6698 43.2087 13.6698 43.4455 14.2701L47.6753 24.9949C47.7476 25.1782 47.8927 25.3233 48.0759 25.3956L58.8008 29.6254C59.4011 29.8621 59.4011 30.7117 58.8008 30.9484L48.0759 35.1782C47.8927 35.2505 47.7476 35.3956 47.6753 35.5789L43.4455 46.3037C43.2087 46.904 42.3592 46.904 42.1224 46.3037L37.8926 35.5789C37.8203 35.3956 37.6753 35.2505 37.492 35.1782L26.7672 30.9484C26.1669 30.7117 26.1669 29.8621 26.7672 29.6254L37.492 25.3956C37.6753 25.3233 37.8203 25.1782 37.8926 24.9949L42.1224 14.2701Z" fill="url(#paint1_radial_229_3647)"/>
<path d="M42.1224 14.2701C42.3592 13.6698 43.2087 13.6698 43.4455 14.2701L47.6753 24.9949C47.7476 25.1782 47.8927 25.3233 48.0759 25.3956L58.8008 29.6254C59.4011 29.8621 59.4011 30.7117 58.8008 30.9484L48.0759 35.1782C47.8927 35.2505 47.7476 35.3956 47.6753 35.5789L43.4455 46.3037C43.2087 46.904 42.3592 46.904 42.1224 46.3037L37.8926 35.5789C37.8203 35.3956 37.6753 35.2505 37.492 35.1782L26.7672 30.9484C26.1669 30.7117 26.1669 29.8621 26.7672 29.6254L37.492 25.3956C37.6753 25.3233 37.8203 25.1782 37.8926 24.9949L42.1224 14.2701Z" fill="url(#paint2_radial_229_3647)"/>
</g>
<defs>
<filter id="filter0_b_229_3647" x="25.1164" y="12.6203" width="35.3355" height="35.3336" filterUnits="userSpaceOnUse" color-interpolation-filters="sRGB">
<feFlood flood-opacity="0" result="BackgroundImageFix"/>
<feGaussianBlur in="BackgroundImageFix" stdDeviation="0.6"/>
<feComposite in2="SourceAlpha" operator="in" result="effect1_backgroundBlur_229_3647"/>
<feBlend mode="normal" in="SourceGraphic" in2="effect1_backgroundBlur_229_3647" result="shape"/>
</filter>
<linearGradient id="paint0_linear_229_3647" x1="54.9283" y1="-5.496" x2="2.44831" y2="60.04" gradientUnits="userSpaceOnUse">
<stop offset="0.123144" stop-color="#405BFF"/>
<stop offset="1" stop-color="#A34FDE"/>
</linearGradient>
<radialGradient id="paint1_radial_229_3647" cx="0" cy="0" r="1" gradientUnits="userSpaceOnUse" gradientTransform="translate(83.7598 73.8049) rotate(-134.218) scale(74.1128 126.62)">
<stop stop-color="white" stop-opacity="0.77"/>
</radialGradient>
<radialGradient id="paint2_radial_229_3647" cx="0" cy="0" r="1" gradientUnits="userSpaceOnUse" gradientTransform="translate(36.7347 25.0139) rotate(-124.925) scale(34.9804 75.4771)">
<stop offset="0.105337" stop-color="white" stop-opacity="0.77"/>
<stop offset="1" stop-color="#A34FDE"/>
</radialGradient>
</defs>
</svg>
