<svg width="26" height="25" viewBox="0 0 26 25" fill="none" xmlns="http://www.w3.org/2000/svg">
<path d="M22.1 13.5L23.5 14.91L16.97 21.5L13.5 18L14.9 16.59L16.97 18.67L22.1 13.5ZM11 18L14 21H4V19C4 16.79 7.58 15 12 15L13.89 15.11L11 18ZM12 5C13.0609 5 14.0783 5.42143 14.8284 6.17157C15.5786 6.92172 16 7.93913 16 9C16 10.0609 15.5786 11.0783 14.8284 11.8284C14.0783 12.5786 13.0609 13 12 13C10.9391 13 9.92172 12.5786 9.17157 11.8284C8.42143 11.0783 8 10.0609 8 9C8 7.93913 8.42143 6.92172 9.17157 6.17157C9.92172 5.42143 10.9391 5 12 5Z" fill="white"/>
</svg>
