<svg width="27" height="27" viewBox="0 0 27 27" fill="none" xmlns="http://www.w3.org/2000/svg">
<path fill-rule="evenodd" clip-rule="evenodd" d="M13.5 23.2895C18.23 22.1455 21.75 17.4336 21.75 12.3947V6.94737L13.5 3.3158L5.25 6.94737V12.3947C5.25 17.4336 8.77 22.1455 13.5 23.2895ZM13.0333 17.1784L13.6731 17.7554L14.3128 17.1784C16.585 15.1368 18.0851 13.786 18.0851 12.1379C18.0851 10.787 17.0174 9.73345 15.6585 9.73345C14.8908 9.73345 14.154 10.0876 13.6731 10.6428C13.1921 10.0876 12.4553 9.73345 11.6876 9.73345C10.3287 9.73345 9.26097 10.787 9.26097 12.1379C9.26097 13.786 10.7611 15.1368 13.0333 17.1784Z" fill="white"/>
<path fill-rule="evenodd" clip-rule="evenodd" d="M13.5 23.2895C18.23 22.1455 21.75 17.4336 21.75 12.3947V6.94737L13.5 3.3158L5.25 6.94737V12.3947C5.25 17.4336 8.77 22.1455 13.5 23.2895ZM13.0333 17.1784L13.6731 17.7554L14.3128 17.1784C16.585 15.1368 18.0851 13.786 18.0851 12.1379C18.0851 10.787 17.0174 9.73345 15.6585 9.73345C14.8908 9.73345 14.154 10.0876 13.6731 10.6428C13.1921 10.0876 12.4553 9.73345 11.6876 9.73345C10.3287 9.73345 9.26097 10.787 9.26097 12.1379C9.26097 13.786 10.7611 15.1368 13.0333 17.1784Z" fill="url(#paint0_linear_520_445)"/>
<defs>
<linearGradient id="paint0_linear_520_445" x1="13.5" y1="3.3158" x2="13.5" y2="23.2895" gradientUnits="userSpaceOnUse">
<stop stop-color="white"/>
<stop offset="1" stop-color="white" stop-opacity="0"/>
</linearGradient>
</defs>
</svg>
