<svg width="265" height="127" viewBox="0 0 265 127" fill="none" xmlns="http://www.w3.org/2000/svg">
<rect x="132.325" width="59.3612" height="59.3612" rx="9.93438" transform="rotate(45 132.325 0)" fill="url(#paint0_linear_114_1387)"/>
<path d="M116.181 21.8555L116.963 31.3383H115.399L116.181 21.8555Z" fill="#191919"/>
<path d="M116.181 41.7243L115.399 32.2415L116.963 32.2415L116.181 41.7243Z" fill="#191919"/>
<path d="M106.246 31.7898L115.729 31.0076L115.729 32.5719L106.246 31.7898Z" fill="#191919"/>
<path d="M126.115 31.79L116.633 32.5721L116.633 31.0078L126.115 31.79Z" fill="#191919"/>
<path d="M115.278 30.8868H117.084V32.6931H115.278V30.8868Z" fill="#191919"/>
<path fill-rule="evenodd" clip-rule="evenodd" d="M124.282 33.0987L118.168 33.6029V33.777H117.994L117.175 43.7112L116.36 33.8352C115.998 34.5474 115.683 35.2865 115.416 36.0484C113.911 40.3497 114.087 45.0609 115.909 49.2378C117.731 53.4147 121.065 56.7484 125.241 58.5709C129.418 60.3933 134.129 60.5697 138.431 59.0647C142.732 57.5597 146.306 54.4845 148.435 50.4555L148.78 49.8021L148.78 49.0629V44.3641V41.3838H145.8H139.283L139.283 47.3445L142.82 47.3445L142.82 48.2803C141.368 50.6798 139.123 52.5075 136.462 53.4385C133.58 54.4469 130.424 54.3287 127.625 53.1076C124.827 51.8866 122.593 49.6529 121.372 46.8544C120.151 44.0558 120.033 40.8992 121.042 38.0173C121.706 36.121 122.825 34.4359 124.282 33.0987ZM124.956 32.5241L118.168 31.9642V31.7902H117.994L117.95 31.2635C119.546 29.1092 121.615 27.3185 124.026 26.0447C128.055 23.9156 132.74 23.388 137.141 24.5677C141.543 25.7474 145.336 28.5472 147.76 32.406L142.713 35.5768C141.089 32.9915 138.547 31.1155 135.598 30.3251C132.649 29.5347 129.51 29.8882 126.811 31.3147C126.152 31.6626 125.532 32.068 124.956 32.5241Z" fill="#191919"/>
<path d="M15.42 121.123V119.053C14.55 120.403 12.51 121.453 9.81 121.453C4.17 121.453 0 116.953 0 110.473C0 103.933 4.23 99.2532 10.11 99.2532C14.7 99.2532 17.7 101.683 19.05 105.553L14.82 106.963C14.25 104.533 12.6 103.123 10.17 103.123C6.78 103.123 4.44 106.003 4.44 110.383C4.44 114.763 6.78 117.703 10.23 117.703C13.02 117.703 14.88 115.753 15.06 113.113H9.84V109.363H19.38V121.123H15.42Z" fill="#191919"/>
<path d="M27.1341 121.393C24.0441 121.393 21.7641 119.533 21.7641 116.743C21.7641 113.593 24.2841 112.273 27.4641 111.703L31.3941 110.953V110.713C31.3941 109.363 30.7041 108.523 28.9641 108.523C27.4041 108.523 26.5941 109.213 26.2341 110.623L22.2441 109.873C22.9641 107.203 25.3641 105.043 29.1141 105.043C33.1041 105.043 35.5041 106.873 35.5041 110.533V116.983C35.5041 117.823 35.8641 118.093 36.7941 117.973V121.123C34.1241 121.513 32.5041 120.973 31.8141 119.653C30.7941 120.763 29.2041 121.393 27.1341 121.393ZM31.3941 115.513V113.893L28.3041 114.523C26.9241 114.793 25.9041 115.243 25.9041 116.503C25.9041 117.583 26.7141 118.213 27.9741 118.213C29.7441 118.213 31.3941 117.283 31.3941 115.513Z" fill="#191919"/>
<path d="M43.3624 99.5832V121.123H39.1624V99.5832H43.3624Z" fill="#191919"/>
<path d="M51.0989 121.393C48.0089 121.393 45.7289 119.533 45.7289 116.743C45.7289 113.593 48.2489 112.273 51.4289 111.703L55.3589 110.953V110.713C55.3589 109.363 54.6689 108.523 52.9289 108.523C51.3689 108.523 50.5589 109.213 50.1989 110.623L46.2089 109.873C46.9289 107.203 49.3289 105.043 53.0789 105.043C57.0689 105.043 59.4689 106.873 59.4689 110.533V116.983C59.4689 117.823 59.8289 118.093 60.7589 117.973V121.123C58.0889 121.513 56.4689 120.973 55.7789 119.653C54.7589 120.763 53.1689 121.393 51.0989 121.393ZM55.3589 115.513V113.893L52.2689 114.523C50.8889 114.793 49.8689 115.243 49.8689 116.503C49.8689 117.583 50.6789 118.213 51.9389 118.213C53.7089 118.213 55.3589 117.283 55.3589 115.513Z" fill="#191919"/>
<path d="M72.5187 121.123L69.1587 116.083L65.7987 121.123H61.2987L66.7887 112.963L61.6587 105.343H66.3387L69.3087 109.873L72.3087 105.343H76.8087L71.6787 112.963L77.1987 121.123H72.5187Z" fill="#191919"/>
<path d="M86.5397 122.023C85.5197 124.813 84.0797 126.613 80.5997 126.613C79.7897 126.613 79.4897 126.583 78.9497 126.523V123.133C79.3997 123.163 79.6697 123.193 80.1497 123.193C81.2597 123.193 81.8597 122.893 82.3097 121.753L82.8197 120.493L77.1497 105.343H81.4997L85.0697 115.723L88.5497 105.343H92.7797L86.5397 122.023Z" fill="#191919"/>
<path d="M112.837 121.123H110.527L103.957 103.393V121.123H101.257V99.5832H105.187L111.727 117.283L118.297 99.5832H122.107V121.123H119.437V103.393L112.837 121.123Z" fill="#191919"/>
<path d="M130.673 121.393C127.823 121.393 125.513 119.713 125.513 116.893C125.513 113.773 127.943 112.483 131.453 111.763L135.263 110.983V110.323C135.263 108.523 134.273 107.503 132.173 107.503C130.193 107.503 129.023 108.433 128.543 110.173L125.993 109.513C126.743 106.963 129.053 105.133 132.263 105.133C135.773 105.133 137.933 106.843 137.933 110.203V117.853C137.933 118.873 138.563 119.203 139.613 118.963V121.123C137.213 121.423 135.833 120.853 135.503 119.353C134.543 120.583 132.803 121.393 130.673 121.393ZM135.263 115.783V113.083L132.203 113.743C129.803 114.223 128.183 114.883 128.183 116.773C128.183 118.303 129.293 119.203 131.003 119.203C133.313 119.203 135.263 117.793 135.263 115.783Z" fill="#191919"/>
<path d="M150.664 105.373V108.103C150.214 108.013 149.854 107.983 149.344 107.983C147.064 107.983 145.234 109.783 145.234 112.543V121.123H142.534V105.433H145.234V108.103C145.924 106.513 147.454 105.313 149.584 105.313C150.004 105.313 150.394 105.343 150.664 105.373Z" fill="#191919"/>
<path d="M156.337 99.5832V112.753L163.297 105.433H166.657L160.537 111.613L167.167 121.123H164.017L158.617 113.563L156.337 115.873V121.123H153.637V99.5832H156.337Z" fill="#191919"/>
<path d="M175.288 121.453C170.938 121.453 167.938 118.123 167.938 113.293C167.938 108.613 170.908 105.133 175.168 105.133C179.548 105.133 181.858 108.463 181.858 112.813V113.713H170.518C170.668 117.013 172.558 119.113 175.288 119.113C177.388 119.113 178.888 117.973 179.368 116.113L181.738 116.953C180.778 119.743 178.408 121.453 175.288 121.453ZM175.138 107.443C172.858 107.443 171.148 108.973 170.668 111.643H179.128C179.068 109.423 177.868 107.443 175.138 107.443Z" fill="#191919"/>
<path d="M185.639 117.373V107.743H183.209V105.433H185.639V100.843H188.309V105.433H191.879V107.743H188.309V116.953C188.309 118.603 189.119 118.903 190.499 118.903C191.129 118.903 191.579 118.873 192.209 118.723V121.033C191.519 121.183 190.739 121.273 189.839 121.273C187.169 121.273 185.639 120.373 185.639 117.373Z" fill="#191919"/>
<path d="M202.975 121.453C200.785 121.453 199.045 120.403 198.115 118.843V126.523H195.415V105.433H198.115V107.713C199.045 106.183 200.785 105.133 202.975 105.133C207.325 105.133 209.815 108.823 209.815 113.293C209.815 117.733 207.325 121.453 202.975 121.453ZM198.055 112.753V113.863C198.055 117.463 200.275 119.083 202.495 119.083C205.435 119.083 207.085 116.653 207.085 113.293C207.085 109.903 205.435 107.503 202.495 107.503C200.275 107.503 198.055 109.093 198.055 112.753Z" fill="#191919"/>
<path d="M215.927 99.5832V121.123H213.227V99.5832H215.927Z" fill="#191919"/>
<path d="M224.364 121.393C221.514 121.393 219.204 119.713 219.204 116.893C219.204 113.773 221.634 112.483 225.144 111.763L228.954 110.983V110.323C228.954 108.523 227.964 107.503 225.864 107.503C223.884 107.503 222.714 108.433 222.234 110.173L219.684 109.513C220.434 106.963 222.744 105.133 225.954 105.133C229.464 105.133 231.624 106.843 231.624 110.203V117.853C231.624 118.873 232.254 119.203 233.304 118.963V121.123C230.904 121.423 229.524 120.853 229.194 119.353C228.234 120.583 226.494 121.393 224.364 121.393ZM228.954 115.783V113.083L225.894 113.743C223.494 114.223 221.874 114.883 221.874 116.773C221.874 118.303 222.984 119.203 224.694 119.203C227.004 119.203 228.954 117.793 228.954 115.783Z" fill="#191919"/>
<path d="M237.845 113.293C237.845 116.863 239.765 119.083 242.555 119.083C244.715 119.083 246.005 117.703 246.455 115.753L248.855 116.863C248.105 119.473 245.825 121.453 242.555 121.453C238.175 121.453 235.145 118.123 235.145 113.293C235.145 108.433 238.175 105.133 242.555 105.133C245.825 105.133 248.045 107.023 248.795 109.633L246.455 110.803C246.005 108.883 244.715 107.473 242.555 107.473C239.765 107.473 237.845 109.693 237.845 113.293Z" fill="#191919"/>
<path d="M258.081 121.453C253.731 121.453 250.731 118.123 250.731 113.293C250.731 108.613 253.701 105.133 257.961 105.133C262.341 105.133 264.651 108.463 264.651 112.813V113.713H253.311C253.461 117.013 255.351 119.113 258.081 119.113C260.181 119.113 261.681 117.973 262.161 116.113L264.531 116.953C263.571 119.743 261.201 121.453 258.081 121.453ZM257.931 107.443C255.651 107.443 253.941 108.973 253.461 111.643H261.921C261.861 109.423 260.661 107.443 257.931 107.443Z" fill="#191919"/>
<defs>
<linearGradient id="paint0_linear_114_1387" x1="205.244" y1="-11.155" x2="139.056" y2="55.0328" gradientUnits="userSpaceOnUse">
<stop offset="0.123144" stop-color="#EBFF38"/>
<stop offset="1" stop-color="#3DD6F5"/>
</linearGradient>
</defs>
</svg>
