<svg width="471" height="91" viewBox="0 0 471 91" fill="none" xmlns="http://www.w3.org/2000/svg">
<rect x="45.2361" y="6.10352e-05" width="63.9736" height="63.9736" rx="10.7063" transform="rotate(45 45.2361 6.10352e-05)" fill="url(#paint0_linear_114_1383)"/>
<path d="M27.8358 23.5538L28.6787 33.7735H26.9929L27.8358 23.5538Z" fill="black"/>
<path d="M27.8364 44.9664L26.9935 34.7467L28.6793 34.7467L27.8364 44.9664Z" fill="black"/>
<path d="M17.1301 34.2599L27.3497 33.417L27.3497 35.1028L17.1301 34.2599Z" fill="black"/>
<path d="M38.5422 34.2603L28.3226 35.1032L28.3226 33.4174L38.5422 34.2603Z" fill="black"/>
<path d="M26.8625 33.287H28.8091V35.2336H26.8625V33.287Z" fill="#060606"/>
<path fill-rule="evenodd" clip-rule="evenodd" d="M36.5663 35.6706L29.9776 36.214V36.4016H29.79L29.5158 39.7258L28.907 47.1078L28.2619 39.287L28.0292 36.4648C27.6394 37.2323 27.2991 38.0286 27.0118 38.8495C25.3895 43.4849 25.5793 48.5623 27.5431 53.0637C29.5068 57.5651 33.0994 61.1579 37.6007 63.1219C42.102 65.086 47.1793 65.2761 51.8148 63.6541C56.4504 62.0321 60.3016 58.718 62.5964 54.376L62.9686 53.6718V52.8752V47.8113V44.5995L59.7568 44.5995H52.733V51.0232H56.5449V52.0318C54.9803 54.6177 52.5608 56.5874 49.6933 57.5908C46.5874 58.6775 43.1856 58.5501 40.1697 57.2342C40.1041 57.2056 40.0389 57.1765 39.974 57.1469L48.7622 32.6815C51.9406 33.5333 54.6795 35.555 56.4299 38.3413L61.8693 34.924C59.2568 30.7655 55.1689 27.7481 50.4252 26.4767C45.6815 25.2053 40.6326 25.7739 36.2905 28.0685C33.6928 29.4412 31.4629 31.371 29.7432 33.6926L29.79 34.2604H29.9776V34.448L37.2927 35.0513C37.9138 34.5599 38.5823 34.1229 39.2918 33.748C42.2011 32.2106 45.5839 31.8296 48.7622 32.6815L39.8181 57.0746C36.9668 55.7288 34.6951 53.3929 33.4309 50.4951C32.1152 47.4791 31.988 44.0772 33.0749 40.9714C33.7901 38.9278 34.9962 37.1118 36.5663 35.6706ZM39.8181 57.0746L37.6007 63.1219L38.8852 60.1781L39.974 57.1469C39.9218 57.1231 39.8699 57.099 39.8181 57.0746Z" fill="black"/>
<path d="M138.032 56.1562V53.3962C136.872 55.1962 134.152 56.5962 130.552 56.5962C123.032 56.5962 117.472 50.5962 117.472 41.9562C117.472 33.2362 123.112 26.9962 130.952 26.9962C137.072 26.9962 141.072 30.2362 142.872 35.3962L137.232 37.2762C136.472 34.0362 134.272 32.1562 131.032 32.1562C126.512 32.1562 123.392 35.9962 123.392 41.8362C123.392 47.6762 126.512 51.5962 131.112 51.5962C134.832 51.5962 137.312 48.9962 137.552 45.4762H130.592V40.4762H143.312V56.1562H138.032Z" fill="white"/>
<path d="M138.032 56.1562V53.3962C136.872 55.1962 134.152 56.5962 130.552 56.5962C123.032 56.5962 117.472 50.5962 117.472 41.9562C117.472 33.2362 123.112 26.9962 130.952 26.9962C137.072 26.9962 141.072 30.2362 142.872 35.3962L137.232 37.2762C136.472 34.0362 134.272 32.1562 131.032 32.1562C126.512 32.1562 123.392 35.9962 123.392 41.8362C123.392 47.6762 126.512 51.5962 131.112 51.5962C134.832 51.5962 137.312 48.9962 137.552 45.4762H130.592V40.4762H143.312V56.1562H138.032Z" fill="url(#paint1_linear_114_1383)"/>
<path d="M153.651 56.5162C149.531 56.5162 146.491 54.0362 146.491 50.3162C146.491 46.1162 149.851 44.3562 154.091 43.5962L159.331 42.5962V42.2762C159.331 40.4762 158.411 39.3562 156.091 39.3562C154.011 39.3562 152.931 40.2762 152.451 42.1562L147.131 41.1562C148.091 37.5962 151.291 34.7162 156.291 34.7162C161.611 34.7162 164.811 37.1562 164.811 42.0362V50.6362C164.811 51.7562 165.291 52.1162 166.531 51.9562V56.1562C162.971 56.6762 160.811 55.9562 159.891 54.1962C158.531 55.6762 156.411 56.5162 153.651 56.5162ZM159.331 48.6762V46.5162L155.211 47.3562C153.371 47.7162 152.011 48.3162 152.011 49.9962C152.011 51.4362 153.091 52.2762 154.771 52.2762C157.131 52.2762 159.331 51.0362 159.331 48.6762Z" fill="white"/>
<path d="M153.651 56.5162C149.531 56.5162 146.491 54.0362 146.491 50.3162C146.491 46.1162 149.851 44.3562 154.091 43.5962L159.331 42.5962V42.2762C159.331 40.4762 158.411 39.3562 156.091 39.3562C154.011 39.3562 152.931 40.2762 152.451 42.1562L147.131 41.1562C148.091 37.5962 151.291 34.7162 156.291 34.7162C161.611 34.7162 164.811 37.1562 164.811 42.0362V50.6362C164.811 51.7562 165.291 52.1162 166.531 51.9562V56.1562C162.971 56.6762 160.811 55.9562 159.891 54.1962C158.531 55.6762 156.411 56.5162 153.651 56.5162ZM159.331 48.6762V46.5162L155.211 47.3562C153.371 47.7162 152.011 48.3162 152.011 49.9962C152.011 51.4362 153.091 52.2762 154.771 52.2762C157.131 52.2762 159.331 51.0362 159.331 48.6762Z" fill="url(#paint2_linear_114_1383)"/>
<path d="M175.289 27.4362V56.1562H169.689V27.4362H175.289Z" fill="white"/>
<path d="M175.289 27.4362V56.1562H169.689V27.4362H175.289Z" fill="url(#paint3_linear_114_1383)"/>
<path d="M185.604 56.5162C181.484 56.5162 178.444 54.0362 178.444 50.3162C178.444 46.1162 181.804 44.3562 186.044 43.5962L191.284 42.5962V42.2762C191.284 40.4762 190.364 39.3562 188.044 39.3562C185.964 39.3562 184.884 40.2762 184.404 42.1562L179.084 41.1562C180.044 37.5962 183.244 34.7162 188.244 34.7162C193.564 34.7162 196.764 37.1562 196.764 42.0362V50.6362C196.764 51.7562 197.244 52.1162 198.484 51.9562V56.1562C194.924 56.6762 192.764 55.9562 191.844 54.1962C190.484 55.6762 188.364 56.5162 185.604 56.5162ZM191.284 48.6762V46.5162L187.164 47.3562C185.324 47.7162 183.964 48.3162 183.964 49.9962C183.964 51.4362 185.044 52.2762 186.724 52.2762C189.084 52.2762 191.284 51.0362 191.284 48.6762Z" fill="white"/>
<path d="M185.604 56.5162C181.484 56.5162 178.444 54.0362 178.444 50.3162C178.444 46.1162 181.804 44.3562 186.044 43.5962L191.284 42.5962V42.2762C191.284 40.4762 190.364 39.3562 188.044 39.3562C185.964 39.3562 184.884 40.2762 184.404 42.1562L179.084 41.1562C180.044 37.5962 183.244 34.7162 188.244 34.7162C193.564 34.7162 196.764 37.1562 196.764 42.0362V50.6362C196.764 51.7562 197.244 52.1162 198.484 51.9562V56.1562C194.924 56.6762 192.764 55.9562 191.844 54.1962C190.484 55.6762 188.364 56.5162 185.604 56.5162ZM191.284 48.6762V46.5162L187.164 47.3562C185.324 47.7162 183.964 48.3162 183.964 49.9962C183.964 51.4362 185.044 52.2762 186.724 52.2762C189.084 52.2762 191.284 51.0362 191.284 48.6762Z" fill="url(#paint4_linear_114_1383)"/>
<path d="M214.164 56.1562L209.684 49.4362L205.204 56.1562H199.204L206.524 45.2762L199.684 35.1162H205.924L209.884 41.1562L213.884 35.1162H219.884L213.044 45.2762L220.404 56.1562H214.164Z" fill="white"/>
<path d="M214.164 56.1562L209.684 49.4362L205.204 56.1562H199.204L206.524 45.2762L199.684 35.1162H205.924L209.884 41.1562L213.884 35.1162H219.884L213.044 45.2762L220.404 56.1562H214.164Z" fill="url(#paint5_linear_114_1383)"/>
<path d="M232.859 57.3562C231.499 61.0762 229.579 63.4762 224.939 63.4762C223.859 63.4762 223.459 63.4362 222.739 63.3562V58.8362C223.339 58.8762 223.699 58.9162 224.339 58.9162C225.819 58.9162 226.619 58.5162 227.219 56.9962L227.899 55.3162L220.339 35.1162H226.139L230.899 48.9562L235.539 35.1162H241.179L232.859 57.3562Z" fill="white"/>
<path d="M232.859 57.3562C231.499 61.0762 229.579 63.4762 224.939 63.4762C223.859 63.4762 223.459 63.4362 222.739 63.3562V58.8362C223.339 58.8762 223.699 58.9162 224.339 58.9162C225.819 58.9162 226.619 58.5162 227.219 56.9962L227.899 55.3162L220.339 35.1162H226.139L230.899 48.9562L235.539 35.1162H241.179L232.859 57.3562Z" fill="url(#paint6_linear_114_1383)"/>
<path d="M267.922 56.1562H264.842L256.082 32.5162V56.1562H252.482V27.4362H257.722L266.442 51.0362L275.202 27.4362H280.282V56.1562H276.722V32.5162L267.922 56.1562Z" fill="white"/>
<path d="M267.922 56.1562H264.842L256.082 32.5162V56.1562H252.482V27.4362H257.722L266.442 51.0362L275.202 27.4362H280.282V56.1562H276.722V32.5162L267.922 56.1562Z" fill="url(#paint7_linear_114_1383)"/>
<path d="M291.703 56.5162C287.903 56.5162 284.823 54.2762 284.823 50.5162C284.823 46.3562 288.063 44.6362 292.743 43.6762L297.823 42.6362V41.7562C297.823 39.3562 296.503 37.9962 293.703 37.9962C291.063 37.9962 289.503 39.2362 288.863 41.5562L285.463 40.6762C286.463 37.2762 289.543 34.8362 293.823 34.8362C298.503 34.8362 301.383 37.1162 301.383 41.5962V51.7962C301.383 53.1562 302.223 53.5962 303.623 53.2762V56.1562C300.423 56.5562 298.583 55.7962 298.143 53.7962C296.863 55.4362 294.543 56.5162 291.703 56.5162ZM297.823 49.0362V45.4362L293.743 46.3162C290.543 46.9562 288.383 47.8362 288.383 50.3562C288.383 52.3962 289.863 53.5962 292.143 53.5962C295.223 53.5962 297.823 51.7162 297.823 49.0362Z" fill="white"/>
<path d="M291.703 56.5162C287.903 56.5162 284.823 54.2762 284.823 50.5162C284.823 46.3562 288.063 44.6362 292.743 43.6762L297.823 42.6362V41.7562C297.823 39.3562 296.503 37.9962 293.703 37.9962C291.063 37.9962 289.503 39.2362 288.863 41.5562L285.463 40.6762C286.463 37.2762 289.543 34.8362 293.823 34.8362C298.503 34.8362 301.383 37.1162 301.383 41.5962V51.7962C301.383 53.1562 302.223 53.5962 303.623 53.2762V56.1562C300.423 56.5562 298.583 55.7962 298.143 53.7962C296.863 55.4362 294.543 56.5162 291.703 56.5162ZM297.823 49.0362V45.4362L293.743 46.3162C290.543 46.9562 288.383 47.8362 288.383 50.3562C288.383 52.3962 289.863 53.5962 292.143 53.5962C295.223 53.5962 297.823 51.7162 297.823 49.0362Z" fill="url(#paint8_linear_114_1383)"/>
<path d="M318.357 35.1562V38.7962C317.757 38.6762 317.277 38.6362 316.597 38.6362C313.557 38.6362 311.117 41.0362 311.117 44.7162V56.1562H307.517V35.2362H311.117V38.7962C312.037 36.6762 314.077 35.0762 316.917 35.0762C317.477 35.0762 317.997 35.1162 318.357 35.1562Z" fill="white"/>
<path d="M318.357 35.1562V38.7962C317.757 38.6762 317.277 38.6362 316.597 38.6362C313.557 38.6362 311.117 41.0362 311.117 44.7162V56.1562H307.517V35.2362H311.117V38.7962C312.037 36.6762 314.077 35.0762 316.917 35.0762C317.477 35.0762 317.997 35.1162 318.357 35.1562Z" fill="url(#paint9_linear_114_1383)"/>
<path d="M325.922 27.4362V44.9962L335.202 35.2362H339.682L331.522 43.4762L340.362 56.1562H336.162L328.962 46.0762L325.922 49.1562V56.1562H322.322V27.4362H325.922Z" fill="white"/>
<path d="M325.922 27.4362V44.9962L335.202 35.2362H339.682L331.522 43.4762L340.362 56.1562H336.162L328.962 46.0762L325.922 49.1562V56.1562H322.322V27.4362H325.922Z" fill="url(#paint10_linear_114_1383)"/>
<path d="M351.19 56.5962C345.39 56.5962 341.39 52.1562 341.39 45.7162C341.39 39.4762 345.35 34.8362 351.03 34.8362C356.87 34.8362 359.95 39.2762 359.95 45.0762V46.2762H344.83C345.03 50.6762 347.55 53.4762 351.19 53.4762C353.99 53.4762 355.99 51.9562 356.63 49.4762L359.79 50.5962C358.51 54.3162 355.35 56.5962 351.19 56.5962ZM350.99 37.9162C347.95 37.9162 345.67 39.9562 345.03 43.5162H356.31C356.23 40.5562 354.63 37.9162 350.99 37.9162Z" fill="white"/>
<path d="M351.19 56.5962C345.39 56.5962 341.39 52.1562 341.39 45.7162C341.39 39.4762 345.35 34.8362 351.03 34.8362C356.87 34.8362 359.95 39.2762 359.95 45.0762V46.2762H344.83C345.03 50.6762 347.55 53.4762 351.19 53.4762C353.99 53.4762 355.99 51.9562 356.63 49.4762L359.79 50.5962C358.51 54.3162 355.35 56.5962 351.19 56.5962ZM350.99 37.9162C347.95 37.9162 345.67 39.9562 345.03 43.5162H356.31C356.23 40.5562 354.63 37.9162 350.99 37.9162Z" fill="url(#paint11_linear_114_1383)"/>
<path d="M364.991 51.1562V38.3162H361.751V35.2362H364.991V29.1162H368.551V35.2362H373.311V38.3162H368.551V50.5962C368.551 52.7962 369.631 53.1962 371.471 53.1962C372.311 53.1962 372.911 53.1562 373.751 52.9562V56.0362C372.831 56.2362 371.791 56.3562 370.591 56.3562C367.031 56.3562 364.991 55.1562 364.991 51.1562Z" fill="white"/>
<path d="M364.991 51.1562V38.3162H361.751V35.2362H364.991V29.1162H368.551V35.2362H373.311V38.3162H368.551V50.5962C368.551 52.7962 369.631 53.1962 371.471 53.1962C372.311 53.1962 372.911 53.1562 373.751 52.9562V56.0362C372.831 56.2362 371.791 56.3562 370.591 56.3562C367.031 56.3562 364.991 55.1562 364.991 51.1562Z" fill="url(#paint12_linear_114_1383)"/>
<path d="M388.105 56.5962C385.185 56.5962 382.865 55.1962 381.625 53.1162V63.3562H378.025V35.2362H381.625V38.2762C382.865 36.2362 385.185 34.8362 388.105 34.8362C393.905 34.8362 397.225 39.7562 397.225 45.7162C397.225 51.6362 393.905 56.5962 388.105 56.5962ZM381.545 44.9962V46.4762C381.545 51.2762 384.505 53.4362 387.465 53.4362C391.385 53.4362 393.585 50.1962 393.585 45.7162C393.585 41.1962 391.385 37.9962 387.465 37.9962C384.505 37.9962 381.545 40.1162 381.545 44.9962Z" fill="white"/>
<path d="M388.105 56.5962C385.185 56.5962 382.865 55.1962 381.625 53.1162V63.3562H378.025V35.2362H381.625V38.2762C382.865 36.2362 385.185 34.8362 388.105 34.8362C393.905 34.8362 397.225 39.7562 397.225 45.7162C397.225 51.6362 393.905 56.5962 388.105 56.5962ZM381.545 44.9962V46.4762C381.545 51.2762 384.505 53.4362 387.465 53.4362C391.385 53.4362 393.585 50.1962 393.585 45.7162C393.585 41.1962 391.385 37.9962 387.465 37.9962C384.505 37.9962 381.545 40.1162 381.545 44.9962Z" fill="url(#paint13_linear_114_1383)"/>
<path d="M405.375 27.4362V56.1562H401.775V27.4362H405.375Z" fill="white"/>
<path d="M405.375 27.4362V56.1562H401.775V27.4362H405.375Z" fill="url(#paint14_linear_114_1383)"/>
<path d="M416.624 56.5162C412.824 56.5162 409.744 54.2762 409.744 50.5162C409.744 46.3562 412.984 44.6362 417.664 43.6762L422.744 42.6362V41.7562C422.744 39.3562 421.424 37.9962 418.624 37.9962C415.984 37.9962 414.424 39.2362 413.784 41.5562L410.384 40.6762C411.384 37.2762 414.464 34.8362 418.744 34.8362C423.424 34.8362 426.304 37.1162 426.304 41.5962V51.7962C426.304 53.1562 427.144 53.5962 428.544 53.2762V56.1562C425.344 56.5562 423.504 55.7962 423.064 53.7962C421.784 55.4362 419.464 56.5162 416.624 56.5162ZM422.744 49.0362V45.4362L418.664 46.3162C415.464 46.9562 413.304 47.8362 413.304 50.3562C413.304 52.3962 414.784 53.5962 417.064 53.5962C420.144 53.5962 422.744 51.7162 422.744 49.0362Z" fill="white"/>
<path d="M416.624 56.5162C412.824 56.5162 409.744 54.2762 409.744 50.5162C409.744 46.3562 412.984 44.6362 417.664 43.6762L422.744 42.6362V41.7562C422.744 39.3562 421.424 37.9962 418.624 37.9962C415.984 37.9962 414.424 39.2362 413.784 41.5562L410.384 40.6762C411.384 37.2762 414.464 34.8362 418.744 34.8362C423.424 34.8362 426.304 37.1162 426.304 41.5962V51.7962C426.304 53.1562 427.144 53.5962 428.544 53.2762V56.1562C425.344 56.5562 423.504 55.7962 423.064 53.7962C421.784 55.4362 419.464 56.5162 416.624 56.5162ZM422.744 49.0362V45.4362L418.664 46.3162C415.464 46.9562 413.304 47.8362 413.304 50.3562C413.304 52.3962 414.784 53.5962 417.064 53.5962C420.144 53.5962 422.744 51.7162 422.744 49.0362Z" fill="url(#paint15_linear_114_1383)"/>
<path d="M434.599 45.7162C434.599 50.4762 437.159 53.4362 440.879 53.4362C443.759 53.4362 445.479 51.5962 446.079 48.9962L449.279 50.4762C448.279 53.9562 445.239 56.5962 440.879 56.5962C435.039 56.5962 430.999 52.1562 430.999 45.7162C430.999 39.2362 435.039 34.8362 440.879 34.8362C445.239 34.8362 448.199 37.3562 449.199 40.8362L446.079 42.3962C445.479 39.8362 443.759 37.9562 440.879 37.9562C437.159 37.9562 434.599 40.9162 434.599 45.7162Z" fill="white"/>
<path d="M434.599 45.7162C434.599 50.4762 437.159 53.4362 440.879 53.4362C443.759 53.4362 445.479 51.5962 446.079 48.9962L449.279 50.4762C448.279 53.9562 445.239 56.5962 440.879 56.5962C435.039 56.5962 430.999 52.1562 430.999 45.7162C430.999 39.2362 435.039 34.8362 440.879 34.8362C445.239 34.8362 448.199 37.3562 449.199 40.8362L446.079 42.3962C445.479 39.8362 443.759 37.9562 440.879 37.9562C437.159 37.9562 434.599 40.9162 434.599 45.7162Z" fill="url(#paint16_linear_114_1383)"/>
<path d="M461.58 56.5962C455.78 56.5962 451.78 52.1562 451.78 45.7162C451.78 39.4762 455.74 34.8362 461.42 34.8362C467.26 34.8362 470.34 39.2762 470.34 45.0762V46.2762H455.22C455.42 50.6762 457.94 53.4762 461.58 53.4762C464.38 53.4762 466.38 51.9562 467.02 49.4762L470.18 50.5962C468.9 54.3162 465.74 56.5962 461.58 56.5962ZM461.38 37.9162C458.34 37.9162 456.06 39.9562 455.42 43.5162H466.7C466.62 40.5562 465.02 37.9162 461.38 37.9162Z" fill="white"/>
<path d="M461.58 56.5962C455.78 56.5962 451.78 52.1562 451.78 45.7162C451.78 39.4762 455.74 34.8362 461.42 34.8362C467.26 34.8362 470.34 39.2762 470.34 45.0762V46.2762H455.22C455.42 50.6762 457.94 53.4762 461.58 53.4762C464.38 53.4762 466.38 51.9562 467.02 49.4762L470.18 50.5962C468.9 54.3162 465.74 56.5962 461.58 56.5962ZM461.38 37.9162C458.34 37.9162 456.06 39.9562 455.42 43.5162H466.7C466.62 40.5562 465.02 37.9162 461.38 37.9162Z" fill="url(#paint17_linear_114_1383)"/>
<defs>
<linearGradient id="paint0_linear_114_1383" x1="123.821" y1="-12.0217" x2="52.4901" y2="59.3088" gradientUnits="userSpaceOnUse">
<stop offset="0.123144" stop-color="#EBFF38"/>
<stop offset="1" stop-color="#3DD6F5"/>
</linearGradient>
<linearGradient id="paint1_linear_114_1383" x1="293.906" y1="26.9962" x2="293.906" y2="63.4762" gradientUnits="userSpaceOnUse">
<stop stop-color="white"/>
<stop offset="1" stop-color="white" stop-opacity="0"/>
</linearGradient>
<linearGradient id="paint2_linear_114_1383" x1="293.906" y1="26.9962" x2="293.906" y2="63.4762" gradientUnits="userSpaceOnUse">
<stop stop-color="white"/>
<stop offset="1" stop-color="white" stop-opacity="0"/>
</linearGradient>
<linearGradient id="paint3_linear_114_1383" x1="293.906" y1="26.9962" x2="293.906" y2="63.4762" gradientUnits="userSpaceOnUse">
<stop stop-color="white"/>
<stop offset="1" stop-color="white" stop-opacity="0"/>
</linearGradient>
<linearGradient id="paint4_linear_114_1383" x1="293.906" y1="26.9962" x2="293.906" y2="63.4762" gradientUnits="userSpaceOnUse">
<stop stop-color="white"/>
<stop offset="1" stop-color="white" stop-opacity="0"/>
</linearGradient>
<linearGradient id="paint5_linear_114_1383" x1="293.906" y1="26.9962" x2="293.906" y2="63.4762" gradientUnits="userSpaceOnUse">
<stop stop-color="white"/>
<stop offset="1" stop-color="white" stop-opacity="0"/>
</linearGradient>
<linearGradient id="paint6_linear_114_1383" x1="293.906" y1="26.9962" x2="293.906" y2="63.4762" gradientUnits="userSpaceOnUse">
<stop stop-color="white"/>
<stop offset="1" stop-color="white" stop-opacity="0"/>
</linearGradient>
<linearGradient id="paint7_linear_114_1383" x1="293.906" y1="26.9962" x2="293.906" y2="63.4762" gradientUnits="userSpaceOnUse">
<stop stop-color="white"/>
<stop offset="1" stop-color="white" stop-opacity="0"/>
</linearGradient>
<linearGradient id="paint8_linear_114_1383" x1="293.906" y1="26.9962" x2="293.906" y2="63.4762" gradientUnits="userSpaceOnUse">
<stop stop-color="white"/>
<stop offset="1" stop-color="white" stop-opacity="0"/>
</linearGradient>
<linearGradient id="paint9_linear_114_1383" x1="293.906" y1="26.9962" x2="293.906" y2="63.4762" gradientUnits="userSpaceOnUse">
<stop stop-color="white"/>
<stop offset="1" stop-color="white" stop-opacity="0"/>
</linearGradient>
<linearGradient id="paint10_linear_114_1383" x1="293.906" y1="26.9962" x2="293.906" y2="63.4762" gradientUnits="userSpaceOnUse">
<stop stop-color="white"/>
<stop offset="1" stop-color="white" stop-opacity="0"/>
</linearGradient>
<linearGradient id="paint11_linear_114_1383" x1="293.906" y1="26.9962" x2="293.906" y2="63.4762" gradientUnits="userSpaceOnUse">
<stop stop-color="white"/>
<stop offset="1" stop-color="white" stop-opacity="0"/>
</linearGradient>
<linearGradient id="paint12_linear_114_1383" x1="293.906" y1="26.9962" x2="293.906" y2="63.4762" gradientUnits="userSpaceOnUse">
<stop stop-color="white"/>
<stop offset="1" stop-color="white" stop-opacity="0"/>
</linearGradient>
<linearGradient id="paint13_linear_114_1383" x1="293.906" y1="26.9962" x2="293.906" y2="63.4762" gradientUnits="userSpaceOnUse">
<stop stop-color="white"/>
<stop offset="1" stop-color="white" stop-opacity="0"/>
</linearGradient>
<linearGradient id="paint14_linear_114_1383" x1="293.906" y1="26.9962" x2="293.906" y2="63.4762" gradientUnits="userSpaceOnUse">
<stop stop-color="white"/>
<stop offset="1" stop-color="white" stop-opacity="0"/>
</linearGradient>
<linearGradient id="paint15_linear_114_1383" x1="293.906" y1="26.9962" x2="293.906" y2="63.4762" gradientUnits="userSpaceOnUse">
<stop stop-color="white"/>
<stop offset="1" stop-color="white" stop-opacity="0"/>
</linearGradient>
<linearGradient id="paint16_linear_114_1383" x1="293.906" y1="26.9962" x2="293.906" y2="63.4762" gradientUnits="userSpaceOnUse">
<stop stop-color="white"/>
<stop offset="1" stop-color="white" stop-opacity="0"/>
</linearGradient>
<linearGradient id="paint17_linear_114_1383" x1="293.906" y1="26.9962" x2="293.906" y2="63.4762" gradientUnits="userSpaceOnUse">
<stop stop-color="white"/>
<stop offset="1" stop-color="white" stop-opacity="0"/>
</linearGradient>
</defs>
</svg>
