<svg width="44" height="44" viewBox="0 0 44 44" fill="none" xmlns="http://www.w3.org/2000/svg">
<g clip-path="url(#clip0_520_243)">
<rect width="44" height="44" rx="22" fill="url(#paint0_linear_520_243)"/>
</g>
<path d="M28.6364 10L27.2618 13L24.2727 14.3636L27.2618 15.7382L28.6364 18.7273L30 15.7382L33 14.3636L30 13M17.7273 13.2727L15 19.2727L9 22L15 24.7273L17.7273 30.7273L20.4545 24.7273L26.4545 22L20.4545 19.2727M28.6364 25.2727L27.2618 28.2618L24.2727 29.6364L27.2618 31L28.6364 34L30 31L33 29.6364L30 28.2618" fill="white"/>
<path d="M28.6364 10L27.2618 13L24.2727 14.3636L27.2618 15.7382L28.6364 18.7273L30 15.7382L33 14.3636L30 13M17.7273 13.2727L15 19.2727L9 22L15 24.7273L17.7273 30.7273L20.4545 24.7273L26.4545 22L20.4545 19.2727M28.6364 25.2727L27.2618 28.2618L24.2727 29.6364L27.2618 31L28.6364 34L30 31L33 29.6364L30 28.2618" fill="url(#paint1_linear_520_243)"/>
<defs>
<linearGradient id="paint0_linear_520_243" x1="44.1492" y1="-9.02" x2="-0.95079" y2="47.3" gradientUnits="userSpaceOnUse">
<stop offset="0.123144" stop-color="#405BFF"/>
<stop offset="1" stop-color="#A34FDE"/>
</linearGradient>
<linearGradient id="paint1_linear_520_243" x1="21" y1="10" x2="21" y2="34" gradientUnits="userSpaceOnUse">
<stop stop-color="white"/>
<stop offset="1" stop-color="white" stop-opacity="0"/>
</linearGradient>
<clipPath id="clip0_520_243">
<rect width="44" height="44" fill="white"/>
</clipPath>
</defs>
</svg>
