<svg width="217" height="138" viewBox="0 0 217 138" fill="none" xmlns="http://www.w3.org/2000/svg">
<circle cx="108.5" cy="40" r="40" fill="url(#paint0_linear_2156_3270)"/>
<mask id="mask0_2156_3270" style="mask-type:alpha" maskUnits="userSpaceOnUse" x="68" y="0" width="81" height="80">
<circle cx="108.5" cy="40" r="40" fill="white"/>
</mask>
<g mask="url(#mask0_2156_3270)">
<path fill-rule="evenodd" clip-rule="evenodd" d="M163.884 84.1026L115.569 14.4255C114.65 13.099 113.135 12.3077 111.521 12.3077H87.9326C86.3729 12.3077 85.2057 13.7398 85.5212 15.2673L87.8762 26.6667H109.525C117.455 26.6667 123.884 33.0954 123.884 41.0256C123.884 48.9559 117.455 55.3846 109.525 55.3846H93.8091L99.7419 84.1026H163.884Z" fill="white"/>
<path fill-rule="evenodd" clip-rule="evenodd" d="M163.884 84.1026L115.569 14.4255C114.65 13.099 113.135 12.3077 111.521 12.3077H87.9326C86.3729 12.3077 85.2057 13.7398 85.5212 15.2673L87.8762 26.6667H109.525C117.455 26.6667 123.884 33.0954 123.884 41.0256C123.884 48.9559 117.455 55.3846 109.525 55.3846H93.8091L99.7419 84.1026H163.884Z" fill="url(#paint1_linear_2156_3270)"/>
</g>
<circle cx="10.2564" cy="10.2564" r="10.2564" transform="matrix(-1 0 0 1 119.782 30.7693)" fill="white"/>
<circle cx="10.2564" cy="10.2564" r="10.2564" transform="matrix(-1 0 0 1 119.782 30.7693)" fill="url(#paint2_linear_2156_3270)"/>
<path d="M2.42046 131V109.113H6.90154V127.129H16.9611V131H2.42046ZM23.7742 131.274C20.6344 131.274 18.3176 129.384 18.3176 126.549C18.3176 123.349 20.8782 122.007 24.1095 121.428L28.1028 120.666V120.422C28.1028 119.05 27.4017 118.197 25.6337 118.197C24.0485 118.197 23.2255 118.898 22.8597 120.331L18.8054 119.569C19.537 116.856 21.9756 114.661 25.7861 114.661C29.8404 114.661 32.2791 116.52 32.2791 120.239V126.793C32.2791 127.647 32.6449 127.921 33.5899 127.799V131C30.8768 131.396 29.2307 130.848 28.5296 129.506C27.4932 130.634 25.8775 131.274 23.7742 131.274ZM28.1028 125.3V123.653L24.963 124.294C23.5608 124.568 22.5243 125.025 22.5243 126.306C22.5243 127.403 23.3474 128.043 24.6277 128.043C26.4262 128.043 28.1028 127.098 28.1028 125.3ZM49.9274 114.966V131H45.6597V129.354C44.7756 130.39 43.3734 131.335 41.331 131.335C38.0083 131.335 35.8745 129.049 35.8745 125.574V114.966H40.1422V124.629C40.1422 126.397 40.9347 127.555 42.7028 127.555C44.1965 127.555 45.6597 126.458 45.6597 124.385V114.966H49.9274ZM53.4708 131V114.966H57.7385V116.612C58.6225 115.575 60.0858 114.661 62.1281 114.661C65.4813 114.661 67.5237 116.947 67.5237 120.422V131H63.256V121.642C63.256 119.843 62.5244 118.563 60.6954 118.563C59.2017 118.563 57.7385 119.63 57.7385 121.733V131H53.4708ZM74.2375 122.983C74.2375 126.001 75.7312 127.738 77.987 127.738C79.755 127.738 80.8219 126.519 81.2182 124.873L84.9067 126.519C84.1751 129.141 81.6755 131.335 77.9565 131.335C73.2925 131.335 70.0003 127.952 70.0003 122.983C70.0003 118.045 73.2925 114.661 77.9565 114.661C81.645 114.661 84.0837 116.795 84.8458 119.386L81.2182 121.093C80.8219 119.447 79.755 118.227 77.987 118.227C75.7312 118.227 74.2375 119.995 74.2375 122.983ZM86.961 131V109.113H91.2287V116.612C92.1127 115.575 93.5759 114.661 95.6183 114.661C98.9715 114.661 101.014 116.947 101.014 120.422V131H96.7462V121.642C96.7462 119.843 96.0146 118.563 94.1856 118.563C92.6919 118.563 91.2287 119.63 91.2287 121.733V131H86.961ZM118.029 109.113H121.26L129.704 131H126.747L124.522 125.239H114.707L112.512 131H109.585L118.029 109.113ZM119.584 112.405L115.682 122.678H123.547L119.584 112.405ZM132.19 112.283V109.113H135.177V112.283H132.19ZM135.055 115.057V131H132.311V115.057H135.055ZM147.896 114.996V117.77C147.438 117.679 147.073 117.648 146.554 117.648C144.238 117.648 142.378 119.477 142.378 122.282V131H139.635V115.057H142.378V117.77C143.079 116.155 144.634 114.935 146.798 114.935C147.225 114.935 147.621 114.966 147.896 114.996ZM158.686 115.057H161.003L164.295 126.946L167.618 115.057H170.361L165.514 131H163.106L159.784 119.172L156.461 131H154.053L149.206 115.057H152.041L155.394 126.915L158.686 115.057ZM176.701 131.274C173.805 131.274 171.458 129.567 171.458 126.702C171.458 123.532 173.927 122.221 177.494 121.489L181.365 120.697V120.026C181.365 118.197 180.359 117.16 178.226 117.16C176.214 117.16 175.025 118.105 174.537 119.874L171.946 119.203C172.708 116.612 175.055 114.752 178.317 114.752C181.884 114.752 184.078 116.49 184.078 119.904V127.677C184.078 128.714 184.719 129.049 185.785 128.805V131C183.347 131.305 181.945 130.726 181.609 129.201C180.634 130.451 178.866 131.274 176.701 131.274ZM181.365 125.574V122.83L178.256 123.501C175.817 123.989 174.171 124.659 174.171 126.58C174.171 128.135 175.299 129.049 177.037 129.049C179.384 129.049 181.365 127.616 181.365 125.574ZM194.489 132.738C193.574 135.146 192.324 136.67 189.55 136.67C188.88 136.67 188.544 136.639 188.057 136.548V134.17C188.575 134.292 188.91 134.323 189.368 134.323C190.556 134.323 191.197 133.896 191.837 132.311L192.599 130.421L186.685 115.057H189.581L194.062 127.251L198.482 115.057H201.348L194.489 132.738ZM201.87 127.616L204.004 126.062C204.857 127.921 206.808 129.049 208.881 129.049C210.741 129.049 212.387 128.256 212.387 126.519C212.387 124.781 210.863 124.537 208.241 123.989C205.62 123.41 202.876 122.83 202.876 119.569C202.876 116.734 205.345 114.752 208.729 114.752C211.594 114.752 213.942 116.155 214.887 118.045L212.936 119.599C212.113 118.014 210.619 117.008 208.607 117.008C206.778 117.008 205.559 117.923 205.559 119.355C205.559 120.849 206.961 121.123 209.186 121.611C211.93 122.251 215.069 122.8 215.069 126.275C215.069 129.323 212.295 131.335 208.881 131.335C205.985 131.335 203.089 130.085 201.87 127.616Z" fill="#191919"/>
<defs>
<linearGradient id="paint0_linear_2156_3270" x1="176.371" y1="5.11037e-06" x2="77.5713" y2="104.4" gradientUnits="userSpaceOnUse">
<stop offset="0.123144" stop-color="#FF386B"/>
<stop offset="1" stop-color="#A34FDE"/>
</linearGradient>
<linearGradient id="paint1_linear_2156_3270" x1="124.677" y1="12.3077" x2="124.677" y2="84.1026" gradientUnits="userSpaceOnUse">
<stop stop-color="white"/>
<stop offset="1" stop-color="white" stop-opacity="0"/>
</linearGradient>
<linearGradient id="paint2_linear_2156_3270" x1="10.2564" y1="0" x2="10.2564" y2="20.5128" gradientUnits="userSpaceOnUse">
<stop stop-color="white"/>
<stop offset="1" stop-color="white" stop-opacity="0"/>
</linearGradient>
</defs>
</svg>
