<svg width="44" height="44" viewBox="0 0 44 44" fill="none" xmlns="http://www.w3.org/2000/svg">
<g clip-path="url(#clip0_519_53)">
<rect width="44" height="44" rx="22" fill="url(#paint0_linear_519_53)"/>
<circle cx="25.2848" cy="9.28606" r="2.28606" fill="white"/>
<circle cx="25.2848" cy="9.28606" r="2.28606" fill="url(#paint1_linear_519_53)"/>
<circle cx="18.0107" cy="13.2345" r="2.90953" fill="white"/>
<circle cx="18.0107" cy="13.2345" r="2.90953" fill="url(#paint2_linear_519_53)"/>
<path fill-rule="evenodd" clip-rule="evenodd" d="M18.6073 17.3028V23.0131L13.2851 30.2987C12.5768 31.2683 13.2693 32.6319 14.4701 32.6319H29.8639C31.0649 32.6319 31.7574 31.2679 31.0486 30.2983L25.4995 22.7075V15.18H21.6422C21.1937 16.4181 20.0073 17.3028 18.6143 17.3028C18.612 17.3028 18.6097 17.3028 18.6073 17.3028Z" fill="white"/>
<path fill-rule="evenodd" clip-rule="evenodd" d="M18.6073 17.3028V23.0131L13.2851 30.2987C12.5768 31.2683 13.2693 32.6319 14.4701 32.6319H29.8639C31.0649 32.6319 31.7574 31.2679 31.0486 30.2983L25.4995 22.7075V15.18H21.6422C21.1937 16.4181 20.0073 17.3028 18.6143 17.3028C18.612 17.3028 18.6097 17.3028 18.6073 17.3028Z" fill="url(#paint3_linear_519_53)"/>
</g>
<defs>
<linearGradient id="paint0_linear_519_53" x1="54.0492" y1="-8.26837" x2="4.9892" y2="40.7916" gradientUnits="userSpaceOnUse">
<stop offset="0.123144" stop-color="#EBFF38"/>
<stop offset="1" stop-color="#3DD6F5"/>
</linearGradient>
<linearGradient id="paint1_linear_519_53" x1="25.2848" y1="7" x2="25.2848" y2="11.5721" gradientUnits="userSpaceOnUse">
<stop stop-color="white"/>
<stop offset="1" stop-color="white" stop-opacity="0"/>
</linearGradient>
<linearGradient id="paint2_linear_519_53" x1="18.0107" y1="10.325" x2="18.0107" y2="16.1441" gradientUnits="userSpaceOnUse">
<stop stop-color="white"/>
<stop offset="1" stop-color="white" stop-opacity="0"/>
</linearGradient>
<linearGradient id="paint3_linear_519_53" x1="22.167" y1="15.18" x2="22.167" y2="32.6319" gradientUnits="userSpaceOnUse">
<stop stop-color="white"/>
<stop offset="1" stop-color="white" stop-opacity="0"/>
</linearGradient>
<clipPath id="clip0_519_53">
<rect width="44" height="44" fill="white"/>
</clipPath>
</defs>
</svg>
