<svg width="227" height="133" viewBox="0 0 227 133" fill="none" xmlns="http://www.w3.org/2000/svg">
<rect x="113.5" y="0.873413" width="59.3612" height="59.3612" rx="9.93438" transform="rotate(45 113.5 0.873413)" fill="url(#paint0_linear_304_504)"/>
<path d="M97.355 22.7289L98.1372 32.2117H96.5729L97.355 22.7289Z" fill="#191919"/>
<path d="M97.355 42.5978L96.5728 33.115L98.1371 33.115L97.355 42.5978Z" fill="#191919"/>
<path d="M87.4203 32.6632L96.9032 31.881L96.9032 33.4453L87.4203 32.6632Z" fill="#191919"/>
<path d="M107.289 32.6634L97.8062 33.4455L97.8062 31.8813L107.289 32.6634Z" fill="#191919"/>
<path d="M96.4519 31.7603H98.2582V33.5665H96.4519V31.7603Z" fill="#191919"/>
<path fill-rule="evenodd" clip-rule="evenodd" d="M105.456 33.9721L99.3417 34.4763V34.6504H99.1681L98.3488 44.5845L97.5342 34.7087C97.1725 35.421 96.8566 36.16 96.59 36.9219C95.0847 41.2231 95.2608 45.9344 97.083 50.1112C98.9052 54.2881 102.239 57.6219 106.415 59.4443C110.592 61.2667 115.303 61.4431 119.605 59.9381C123.906 58.4331 127.48 55.3579 129.609 51.329L129.954 50.6755V49.9364V45.2376V42.2573H126.974H120.457L120.457 48.2179H123.994L123.994 49.1538C122.542 51.5532 120.297 53.381 117.636 54.3119C114.754 55.3203 111.598 55.2021 108.799 53.9811C106.001 52.76 103.767 50.5264 102.546 47.7278C101.325 44.9293 101.207 41.7727 102.216 38.8908C102.88 36.9945 103.999 35.3093 105.456 33.9721ZM106.13 33.3974L99.3417 32.8376V32.6635H99.1676L99.1242 32.1371C100.72 29.9828 102.789 28.192 105.2 26.9181C109.229 24.789 113.914 24.2614 118.315 25.4411C122.717 26.6208 126.51 29.4207 128.934 33.2794L123.887 36.4503C122.263 33.8649 119.721 31.989 116.772 31.1985C113.823 30.4081 110.684 30.7616 107.985 32.1882C107.326 32.536 106.706 32.9415 106.13 33.3974Z" fill="#191919"/>
<path d="M14.2362 126.127V124.375C13.4998 125.517 11.7733 126.406 9.48818 126.406C4.71479 126.406 1.18554 122.597 1.18554 117.113C1.18554 111.578 4.76558 107.617 9.74208 107.617C13.6268 107.617 16.1658 109.674 17.3084 112.949L13.7284 114.142C13.2459 112.086 11.8495 110.892 9.79286 110.892C6.92375 110.892 4.94331 113.33 4.94331 117.037C4.94331 120.744 6.92375 123.232 9.84364 123.232C12.2049 123.232 13.7791 121.582 13.9315 119.347H9.51357V116.174H17.5877V126.127H14.2362ZM24.1503 126.355C21.5351 126.355 19.6054 124.781 19.6054 122.42C19.6054 119.754 21.7382 118.636 24.4296 118.154L27.7557 117.519V117.316C27.7557 116.174 27.1717 115.463 25.6991 115.463C24.3788 115.463 23.6933 116.047 23.3886 117.24L20.0117 116.605C20.621 114.345 22.6523 112.517 25.8261 112.517C29.203 112.517 31.2342 114.066 31.2342 117.164V122.623C31.2342 123.334 31.5389 123.562 32.326 123.461V126.127C30.0662 126.457 28.6952 126 28.1112 124.882C27.2479 125.822 25.9022 126.355 24.1503 126.355ZM27.7557 121.379V120.008L25.1405 120.541C23.9726 120.769 23.1093 121.15 23.1093 122.216C23.1093 123.131 23.7948 123.664 24.8612 123.664C26.3593 123.664 27.7557 122.877 27.7557 121.379ZM37.8851 107.896V126.127H34.3304V107.896H37.8851ZM44.4328 126.355C41.8176 126.355 39.8879 124.781 39.8879 122.42C39.8879 119.754 42.0207 118.636 44.7121 118.154L48.0382 117.519V117.316C48.0382 116.174 47.4543 115.463 45.9816 115.463C44.6613 115.463 43.9758 116.047 43.6711 117.24L40.2942 116.605C40.9035 114.345 42.9348 112.517 46.1086 112.517C49.4855 112.517 51.5167 114.066 51.5167 117.164V122.623C51.5167 123.334 51.8214 123.562 52.6085 123.461V126.127C50.3488 126.457 48.9777 126 48.3937 124.882C47.5304 125.822 46.1847 126.355 44.4328 126.355ZM48.0382 121.379V120.008L45.423 120.541C44.2551 120.769 43.3918 121.15 43.3918 122.216C43.3918 123.131 44.0773 123.664 45.1437 123.664C46.6418 123.664 48.0382 122.877 48.0382 121.379ZM62.5613 126.127L59.7176 121.861L56.8739 126.127H53.0653L57.7117 119.22L53.37 112.771H57.3309L59.8445 116.605L62.3836 112.771H66.1921L61.8504 119.22L66.5222 126.127H62.5613ZM74.4279 126.888C73.5646 129.25 72.3459 130.773 69.4006 130.773C68.7151 130.773 68.4612 130.748 68.0042 130.697V127.828C68.385 127.853 68.6135 127.879 69.0198 127.879C69.9592 127.879 70.467 127.625 70.8479 126.66L71.2795 125.593L66.4807 112.771H70.1623L73.1838 121.556L76.1291 112.771H79.7091L74.4279 126.888ZM96.6847 126.127H94.7297L89.1692 111.121V126.127H86.884V107.896H90.2102L95.7453 122.877L101.306 107.896H104.53V126.127H102.271V111.121L96.6847 126.127ZM111.78 126.355C109.368 126.355 107.413 124.933 107.413 122.547C107.413 119.906 109.469 118.814 112.44 118.205L115.664 117.545V116.986C115.664 115.463 114.826 114.599 113.049 114.599C111.373 114.599 110.383 115.386 109.977 116.859L107.819 116.301C108.454 114.142 110.409 112.594 113.125 112.594C116.096 112.594 117.924 114.041 117.924 116.885V123.359C117.924 124.222 118.457 124.502 119.346 124.298V126.127C117.315 126.38 116.147 125.898 115.867 124.629C115.055 125.67 113.582 126.355 111.78 126.355ZM115.664 121.607V119.322L113.075 119.881C111.043 120.287 109.672 120.845 109.672 122.445C109.672 123.74 110.612 124.502 112.059 124.502C114.014 124.502 115.664 123.308 115.664 121.607ZM128.699 112.797V115.107C128.318 115.031 128.013 115.006 127.582 115.006C125.652 115.006 124.103 116.529 124.103 118.865V126.127H121.818V112.847H124.103V115.107C124.687 113.761 125.982 112.746 127.785 112.746C128.14 112.746 128.47 112.771 128.699 112.797ZM133.501 107.896V119.043L139.391 112.847H142.235L137.055 118.078L142.667 126.127H140.001L135.43 119.728L133.501 121.683V126.127H131.216V107.896H133.501ZM149.54 126.406C145.858 126.406 143.319 123.588 143.319 119.5C143.319 115.539 145.833 112.594 149.438 112.594C153.145 112.594 155.1 115.412 155.1 119.093V119.855H145.503C145.63 122.648 147.229 124.425 149.54 124.425C151.317 124.425 152.586 123.461 152.993 121.886L154.999 122.597C154.186 124.959 152.18 126.406 149.54 126.406ZM149.413 114.549C147.483 114.549 146.036 115.844 145.63 118.103H152.79C152.739 116.224 151.723 114.549 149.413 114.549ZM158.3 122.953V114.803H156.244V112.847H158.3V108.963H160.56V112.847H163.581V114.803H160.56V122.597C160.56 123.994 161.246 124.248 162.414 124.248C162.947 124.248 163.328 124.222 163.861 124.095V126.05C163.277 126.177 162.617 126.254 161.855 126.254C159.595 126.254 158.3 125.492 158.3 122.953ZM172.972 126.406C171.118 126.406 169.646 125.517 168.859 124.197V130.697H166.574V112.847H168.859V114.777C169.646 113.482 171.118 112.594 172.972 112.594C176.654 112.594 178.761 115.717 178.761 119.5C178.761 123.257 176.654 126.406 172.972 126.406ZM168.808 119.043V119.982C168.808 123.029 170.687 124.4 172.566 124.4C175.054 124.4 176.45 122.343 176.45 119.5C176.45 116.631 175.054 114.599 172.566 114.599C170.687 114.599 168.808 115.945 168.808 119.043ZM183.934 107.896V126.127H181.649V107.896H183.934ZM191.075 126.355C188.663 126.355 186.708 124.933 186.708 122.547C186.708 119.906 188.764 118.814 191.735 118.205L194.96 117.545V116.986C194.96 115.463 194.122 114.599 192.344 114.599C190.669 114.599 189.678 115.386 189.272 116.859L187.114 116.301C187.749 114.142 189.704 112.594 192.421 112.594C195.391 112.594 197.219 114.041 197.219 116.885V123.359C197.219 124.222 197.753 124.502 198.641 124.298V126.127C196.61 126.38 195.442 125.898 195.163 124.629C194.35 125.67 192.878 126.355 191.075 126.355ZM194.96 121.607V119.322L192.37 119.881C190.339 120.287 188.967 120.845 188.967 122.445C188.967 123.74 189.907 124.502 191.354 124.502C193.309 124.502 194.96 123.308 194.96 121.607ZM202.484 119.5C202.484 122.521 204.109 124.4 206.471 124.4C208.299 124.4 209.391 123.232 209.771 121.582L211.803 122.521C211.168 124.73 209.238 126.406 206.471 126.406C202.764 126.406 200.199 123.588 200.199 119.5C200.199 115.386 202.764 112.594 206.471 112.594C209.238 112.594 211.117 114.193 211.752 116.402L209.771 117.392C209.391 115.767 208.299 114.574 206.471 114.574C204.109 114.574 202.484 116.453 202.484 119.5ZM219.611 126.406C215.929 126.406 213.39 123.588 213.39 119.5C213.39 115.539 215.904 112.594 219.509 112.594C223.216 112.594 225.171 115.412 225.171 119.093V119.855H215.574C215.701 122.648 217.3 124.425 219.611 124.425C221.388 124.425 222.658 123.461 223.064 121.886L225.07 122.597C224.257 124.959 222.252 126.406 219.611 126.406ZM219.484 114.549C217.554 114.549 216.107 115.844 215.701 118.103H222.861C222.81 116.224 221.795 114.549 219.484 114.549Z" fill="#191919"/>
<defs>
<linearGradient id="paint0_linear_304_504" x1="186.419" y1="-10.2816" x2="120.231" y2="55.9062" gradientUnits="userSpaceOnUse">
<stop offset="0.123144" stop-color="#EBFF38"/>
<stop offset="1" stop-color="#3DD6F5"/>
</linearGradient>
</defs>
</svg>
