<svg width="85" height="85" viewBox="0 0 85 85" fill="none" xmlns="http://www.w3.org/2000/svg">
<rect x="42.4998" y="0.873413" width="59.3612" height="59.3612" rx="9.93438" transform="rotate(45 42.4998 0.873413)" fill="url(#paint0_linear_304_505)"/>
<path d="M26.355 22.7289L27.1372 32.2117H25.5729L26.355 22.7289Z" fill="#191919"/>
<path d="M26.355 42.5978L25.5728 33.115L27.1371 33.115L26.355 42.5978Z" fill="#191919"/>
<path d="M16.4203 32.6632L25.9032 31.881L25.9032 33.4453L16.4203 32.6632Z" fill="#191919"/>
<path d="M36.289 32.6634L26.8062 33.4455L26.8062 31.8813L36.289 32.6634Z" fill="#191919"/>
<path d="M25.4519 31.7603H27.2582V33.5665H25.4519V31.7603Z" fill="#191919"/>
<path fill-rule="evenodd" clip-rule="evenodd" d="M34.4558 33.9721L28.3417 34.4763V34.6504H28.1681L27.3488 44.5845L26.5342 34.7087C26.1725 35.421 25.8566 36.16 25.59 36.9219C24.0847 41.2231 24.2608 45.9344 26.083 50.1112C27.9052 54.2881 31.2387 57.6219 35.4155 59.4443C39.5922 61.2667 44.3035 61.4431 48.6048 59.9381C52.9062 58.4331 56.4797 55.3579 58.6091 51.329L58.9545 50.6755V49.9364V45.2376V42.2573H55.9741H49.4568L49.4567 48.2179H52.9938L52.9938 49.1538C51.5421 51.5532 49.297 53.381 46.6362 54.3119C43.7543 55.3203 40.5977 55.2021 37.7992 53.9811C35.0008 52.76 32.7672 50.5264 31.5463 47.7278C30.3255 44.9293 30.2075 41.7727 31.216 38.8908C31.8797 36.9945 32.9988 35.3093 34.4558 33.9721ZM35.1298 33.3974L28.3417 32.8376V32.6635H28.1676L28.1242 32.1371C29.72 29.9828 31.7892 28.192 34.1997 26.9181C38.2288 24.789 42.9137 24.2614 47.3154 25.4411C51.7171 26.6208 55.5102 29.4207 57.9344 33.2794L52.8872 36.4503C51.2629 33.8649 48.7215 31.989 45.7723 31.1985C42.8231 30.4081 39.6842 30.7616 36.9847 32.1882C36.3264 32.536 35.7061 32.9415 35.1298 33.3974Z" fill="#191919"/>
<defs>
<linearGradient id="paint0_linear_304_505" x1="115.419" y1="-10.2816" x2="49.2309" y2="55.9062" gradientUnits="userSpaceOnUse">
<stop offset="0.123144" stop-color="#EBFF38"/>
<stop offset="1" stop-color="#3DD6F5"/>
</linearGradient>
</defs>
</svg>
