<svg width="227" height="159" viewBox="0 0 227 159" fill="none" xmlns="http://www.w3.org/2000/svg">
<rect x="113.5" y="-6.10352e-05" width="78.4531" height="78.4531" rx="13.1295" transform="rotate(45 113.5 -6.10352e-05)" fill="url(#paint0_linear_2180_564)"/>
<path d="M92.1618 28.8849L93.1955 41.4176H91.1281L92.1618 28.8849Z" fill="#191919"/>
<path d="M92.1621 55.1439L91.1284 42.6112L93.1957 42.6112L92.1621 55.1439Z" fill="#191919"/>
<path d="M79.0324 42.0141L91.5651 40.9804L91.5651 43.0478L79.0324 42.0141Z" fill="#191919"/>
<path d="M105.291 42.0146L92.7587 43.0483L92.7587 40.981L105.291 42.0146Z" fill="#191919"/>
<path d="M90.9682 40.821H93.3554V43.2082H90.9682V40.821Z" fill="#191919"/>
<path fill-rule="evenodd" clip-rule="evenodd" d="M102.868 43.7439L94.7878 44.4104V44.6404H94.5578L93.4749 57.7698L92.3984 44.7181C91.9204 45.6592 91.503 46.6357 91.1507 47.6424C89.1613 53.327 89.3941 59.5535 91.8023 65.0737C94.2105 70.594 98.6162 75 104.136 77.4086C109.656 79.8171 115.883 80.0502 121.568 78.0612C127.252 76.0721 131.975 72.0079 134.789 66.6832L135.246 65.8195L135.246 64.8426V58.6326L135.246 54.6938L131.307 54.6938H122.694V62.5715H127.368V63.8084C125.45 66.9795 122.482 69.3951 118.966 70.6255C115.157 71.9582 110.985 71.802 107.287 70.1882C103.588 68.5745 100.636 65.6224 99.0228 61.9238C97.4092 58.2251 97.2533 54.0533 98.5862 50.2446C99.4633 47.7384 100.942 45.5113 102.868 43.7439ZM103.759 42.9845L94.7878 42.2446V42.0145H94.5578L94.5004 41.3183C96.6094 38.4713 99.3439 36.1047 102.53 34.4213C107.854 31.6073 114.046 30.9101 119.864 32.4692C125.681 34.0283 130.694 37.7287 133.898 42.8284L127.227 47.0192C125.081 43.6022 121.722 41.123 117.824 40.0783C113.926 39.0337 109.778 39.5009 106.21 41.3862C105.34 41.846 104.52 42.3818 103.759 42.9845Z" fill="#191919"/>
<path d="M14.2362 152.253V150.501C13.4998 151.644 11.7733 152.533 9.48818 152.533C4.71479 152.533 1.18554 148.724 1.18554 143.24C1.18554 137.705 4.76558 133.744 9.74208 133.744C13.6268 133.744 16.1658 135.8 17.3084 139.076L13.7284 140.269C13.2459 138.212 11.8495 137.019 9.79286 137.019C6.92375 137.019 4.94331 139.457 4.94331 143.163C4.94331 146.87 6.92375 149.359 9.84364 149.359C12.2049 149.359 13.7791 147.708 13.9315 145.474H9.51357V142.3H17.5877V152.253H14.2362ZM24.1503 152.482C21.5351 152.482 19.6054 150.908 19.6054 148.546C19.6054 145.88 21.7382 144.763 24.4296 144.281L27.7557 143.646V143.443C27.7557 142.3 27.1717 141.589 25.6991 141.589C24.3788 141.589 23.6933 142.173 23.3886 143.367L20.0117 142.732C20.621 140.472 22.6523 138.644 25.8261 138.644C29.203 138.644 31.2342 140.193 31.2342 143.29V148.749C31.2342 149.46 31.5389 149.689 32.326 149.587V152.253C30.0662 152.583 28.6952 152.126 28.1112 151.009C27.2479 151.949 25.9022 152.482 24.1503 152.482ZM27.7557 147.505V146.134L25.1405 146.667C23.9726 146.896 23.1093 147.277 23.1093 148.343C23.1093 149.257 23.7948 149.79 24.8612 149.79C26.3593 149.79 27.7557 149.003 27.7557 147.505ZM37.8851 134.023V152.253H34.3304V134.023H37.8851ZM44.4328 152.482C41.8176 152.482 39.8879 150.908 39.8879 148.546C39.8879 145.88 42.0207 144.763 44.7121 144.281L48.0382 143.646V143.443C48.0382 142.3 47.4543 141.589 45.9816 141.589C44.6613 141.589 43.9758 142.173 43.6711 143.367L40.2942 142.732C40.9035 140.472 42.9348 138.644 46.1086 138.644C49.4855 138.644 51.5167 140.193 51.5167 143.29V148.749C51.5167 149.46 51.8214 149.689 52.6085 149.587V152.253C50.3488 152.583 48.9777 152.126 48.3937 151.009C47.5304 151.949 46.1847 152.482 44.4328 152.482ZM48.0382 147.505V146.134L45.423 146.667C44.2551 146.896 43.3918 147.277 43.3918 148.343C43.3918 149.257 44.0773 149.79 45.1437 149.79C46.6418 149.79 48.0382 149.003 48.0382 147.505ZM62.5613 152.253L59.7176 147.988L56.8739 152.253H53.0653L57.7117 145.347L53.37 138.898H57.3309L59.8445 142.732L62.3836 138.898H66.1921L61.8504 145.347L66.5222 152.253H62.5613ZM74.4279 153.015C73.5646 155.376 72.3459 156.9 69.4006 156.9C68.7151 156.9 68.4612 156.874 68.0042 156.823V153.954C68.385 153.98 68.6135 154.005 69.0198 154.005C69.9592 154.005 70.467 153.751 70.8479 152.786L71.2795 151.72L66.4807 138.898H70.1623L73.1838 147.683L76.1291 138.898H79.7091L74.4279 153.015ZM96.6847 152.253H94.7297L89.1692 137.248V152.253H86.884V134.023H90.2102L95.7453 149.003L101.306 134.023H104.53V152.253H102.271V137.248L96.6847 152.253ZM111.78 152.482C109.368 152.482 107.413 151.06 107.413 148.673C107.413 146.033 109.469 144.941 112.44 144.331L115.664 143.671V143.113C115.664 141.589 114.826 140.726 113.049 140.726C111.373 140.726 110.383 141.513 109.977 142.986L107.819 142.427C108.454 140.269 110.409 138.72 113.125 138.72C116.096 138.72 117.924 140.167 117.924 143.011V149.486C117.924 150.349 118.457 150.628 119.346 150.425V152.253C117.315 152.507 116.147 152.025 115.867 150.755C115.055 151.796 113.582 152.482 111.78 152.482ZM115.664 147.734V145.449L113.075 146.007C111.043 146.413 109.672 146.972 109.672 148.572C109.672 149.867 110.612 150.628 112.059 150.628C114.014 150.628 115.664 149.435 115.664 147.734ZM128.699 138.923V141.234C128.318 141.158 128.013 141.132 127.582 141.132C125.652 141.132 124.103 142.656 124.103 144.992V152.253H121.818V138.974H124.103V141.234C124.687 139.888 125.982 138.873 127.785 138.873C128.14 138.873 128.47 138.898 128.699 138.923ZM133.501 134.023V145.169L139.391 138.974H142.235L137.055 144.205L142.667 152.253H140.001L135.43 145.855L133.501 147.81V152.253H131.216V134.023H133.501ZM149.54 152.533C145.858 152.533 143.319 149.714 143.319 145.626C143.319 141.665 145.833 138.72 149.438 138.72C153.145 138.72 155.1 141.539 155.1 145.22V145.982H145.503C145.63 148.775 147.229 150.552 149.54 150.552C151.317 150.552 152.586 149.587 152.993 148.013L154.999 148.724C154.186 151.085 152.18 152.533 149.54 152.533ZM149.413 140.675C147.483 140.675 146.036 141.97 145.63 144.23H152.79C152.739 142.351 151.723 140.675 149.413 140.675ZM158.3 149.079V140.929H156.244V138.974H158.3V135.089H160.56V138.974H163.581V140.929H160.56V148.724C160.56 150.12 161.246 150.374 162.414 150.374C162.947 150.374 163.328 150.349 163.861 150.222V152.177C163.277 152.304 162.617 152.38 161.855 152.38C159.595 152.38 158.3 151.618 158.3 149.079ZM172.972 152.533C171.118 152.533 169.646 151.644 168.859 150.324V156.823H166.574V138.974H168.859V140.904C169.646 139.609 171.118 138.72 172.972 138.72C176.654 138.72 178.761 141.843 178.761 145.626C178.761 149.384 176.654 152.533 172.972 152.533ZM168.808 145.169V146.109C168.808 149.156 170.687 150.527 172.566 150.527C175.054 150.527 176.45 148.47 176.45 145.626C176.45 142.757 175.054 140.726 172.566 140.726C170.687 140.726 168.808 142.072 168.808 145.169ZM183.934 134.023V152.253H181.649V134.023H183.934ZM191.075 152.482C188.663 152.482 186.708 151.06 186.708 148.673C186.708 146.033 188.764 144.941 191.735 144.331L194.96 143.671V143.113C194.96 141.589 194.122 140.726 192.344 140.726C190.669 140.726 189.678 141.513 189.272 142.986L187.114 142.427C187.749 140.269 189.704 138.72 192.421 138.72C195.391 138.72 197.219 140.167 197.219 143.011V149.486C197.219 150.349 197.753 150.628 198.641 150.425V152.253C196.61 152.507 195.442 152.025 195.163 150.755C194.35 151.796 192.878 152.482 191.075 152.482ZM194.96 147.734V145.449L192.37 146.007C190.339 146.413 188.967 146.972 188.967 148.572C188.967 149.867 189.907 150.628 191.354 150.628C193.309 150.628 194.96 149.435 194.96 147.734ZM202.484 145.626C202.484 148.648 204.109 150.527 206.471 150.527C208.299 150.527 209.391 149.359 209.771 147.708L211.803 148.648C211.168 150.857 209.238 152.533 206.471 152.533C202.764 152.533 200.199 149.714 200.199 145.626C200.199 141.513 202.764 138.72 206.471 138.72C209.238 138.72 211.117 140.32 211.752 142.529L209.771 143.519C209.391 141.894 208.299 140.701 206.471 140.701C204.109 140.701 202.484 142.58 202.484 145.626ZM219.611 152.533C215.929 152.533 213.39 149.714 213.39 145.626C213.39 141.665 215.904 138.72 219.509 138.72C223.216 138.72 225.171 141.539 225.171 145.22V145.982H215.574C215.701 148.775 217.3 150.552 219.611 150.552C221.388 150.552 222.658 149.587 223.064 148.013L225.07 148.724C224.257 151.085 222.252 152.533 219.611 152.533ZM219.484 140.675C217.554 140.675 216.107 141.97 215.701 144.23H222.861C222.81 142.351 221.795 140.675 219.484 140.675Z" fill="#191919"/>
<defs>
<linearGradient id="paint0_linear_2180_564" x1="209.871" y1="-14.7428" x2="122.396" y2="72.7324" gradientUnits="userSpaceOnUse">
<stop offset="0.123144" stop-color="#EBFF38"/>
<stop offset="1" stop-color="#3DD6F5"/>
</linearGradient>
</defs>
</svg>
