<svg width="32" height="32" viewBox="0 0 32 32" fill="none" xmlns="http://www.w3.org/2000/svg">
<rect width="32" height="32" rx="5" fill="url(#paint0_linear_2000_3010)"/>
<path d="M25.075 13.1492L23.7825 7.75H20.345H18.5025H16.9167H15.0833H13.5067H11.655H8.21751L6.92501 13.1492C6.70501 14.0842 6.90667 15.0375 7.49334 15.7892C7.56667 15.89 7.66751 15.9633 7.75001 16.055V24.25H24.25V16.055C24.3325 15.9725 24.4333 15.89 24.5067 15.7983C25.0933 15.0467 25.3042 14.0842 25.075 13.1492ZM11.435 9.58333L10.9033 14.0383C10.83 14.6342 10.3533 15.0833 9.79417 15.0833C9.34501 15.0833 9.06084 14.8175 8.94167 14.6525C8.70334 14.35 8.62084 13.9558 8.71251 13.58L9.66584 9.58333H11.435ZM22.3342 9.58333L23.2967 13.58C23.3883 13.965 23.3058 14.35 23.0675 14.6525C22.9392 14.8175 22.6642 15.0833 22.2058 15.0833C21.6467 15.0833 21.1608 14.6342 21.0967 14.0383L20.565 9.58333H22.3342ZM19.2175 13.7267C19.2633 14.0842 19.1533 14.4417 18.915 14.7075C18.7042 14.9458 18.4108 15.0833 18.035 15.0833C17.4208 15.0833 16.9167 14.5425 16.9167 13.8825V9.58333H18.7133L19.2175 13.7267ZM15.0833 13.8825C15.0833 14.5425 14.5792 15.0833 13.9008 15.0833C13.5892 15.0833 13.305 14.9458 13.085 14.7075C12.8558 14.4417 12.7458 14.0842 12.7825 13.7267L13.2867 9.58333H15.0833V13.8825ZM9.58334 22.4167V16.8892C9.65667 16.8983 9.72084 16.9167 9.79417 16.9167C10.5917 16.9167 11.3158 16.5867 11.8475 16.0458C12.3975 16.5958 13.1308 16.9167 13.965 16.9167C14.7625 16.9167 15.4775 16.5867 16.0092 16.0642C16.55 16.5867 17.2833 16.9167 18.1083 16.9167C18.8783 16.9167 19.6117 16.5958 20.1617 16.0458C20.6933 16.5867 21.4175 16.9167 22.215 16.9167C22.2883 16.9167 22.3525 16.8983 22.4258 16.8892V22.4167H9.58334Z" fill="#282828"/>
<defs>
<linearGradient id="paint0_linear_2000_3010" x1="39.3085" y1="-6.01336" x2="3.62851" y2="29.6666" gradientUnits="userSpaceOnUse">
<stop offset="0.123144" stop-color="#EBFF38"/>
<stop offset="1" stop-color="#3DD6F5"/>
</linearGradient>
</defs>
</svg>
