<svg width="44" height="44" viewBox="0 0 44 44" fill="none" xmlns="http://www.w3.org/2000/svg">
<rect width="44" height="44" rx="22" fill="url(#paint0_linear_519_29)"/>
<path fill-rule="evenodd" clip-rule="evenodd" d="M17.0093 15.9556C13.671 15.9556 10.9648 18.6617 10.9648 22C10.9648 25.3382 13.671 28.0444 17.0093 28.0444H26.9917C30.33 28.0444 33.0362 25.3382 33.0362 22C33.0362 18.6617 30.33 15.9556 26.9917 15.9556H17.0093ZM26.8194 26.5812C29.3495 26.5812 31.4005 24.5302 31.4005 22.0001C31.4005 19.47 29.3495 17.4189 26.8194 17.4189C24.2893 17.4189 22.2383 19.47 22.2383 22.0001C22.2383 24.5302 24.2893 26.5812 26.8194 26.5812Z" fill="white"/>
<path fill-rule="evenodd" clip-rule="evenodd" d="M17.0093 15.9556C13.671 15.9556 10.9648 18.6617 10.9648 22C10.9648 25.3382 13.671 28.0444 17.0093 28.0444H26.9917C30.33 28.0444 33.0362 25.3382 33.0362 22C33.0362 18.6617 30.33 15.9556 26.9917 15.9556H17.0093ZM26.8194 26.5812C29.3495 26.5812 31.4005 24.5302 31.4005 22.0001C31.4005 19.47 29.3495 17.4189 26.8194 17.4189C24.2893 17.4189 22.2383 19.47 22.2383 22.0001C22.2383 24.5302 24.2893 26.5812 26.8194 26.5812Z" fill="url(#paint1_linear_519_29)"/>
<defs>
<linearGradient id="paint0_linear_519_29" x1="52.7292" y1="-11.66" x2="5.64921" y2="44" gradientUnits="userSpaceOnUse">
<stop offset="0.123144" stop-color="#3DD6F5"/>
<stop offset="1" stop-color="#A34FDE"/>
</linearGradient>
<linearGradient id="paint1_linear_519_29" x1="22.0005" y1="15.9556" x2="22.0005" y2="28.0444" gradientUnits="userSpaceOnUse">
<stop stop-color="white"/>
<stop offset="1" stop-color="white" stop-opacity="0"/>
</linearGradient>
</defs>
</svg>
