<svg width="44" height="44" viewBox="0 0 44 44" fill="none" xmlns="http://www.w3.org/2000/svg">
<g clip-path="url(#clip0_519_89)">
<rect width="44" height="44" rx="22" fill="url(#paint0_linear_519_89)"/>
<path fill-rule="evenodd" clip-rule="evenodd" d="M21.7158 33.5224C27.2861 32.1752 31.4315 26.626 31.4315 20.692V14.2768L21.7158 10L12 14.2768V20.692C12 26.626 16.1454 32.1752 21.7158 33.5224ZM21.1662 26.3254L21.9196 27.005L22.673 26.3254C25.3489 23.9212 27.1156 22.3303 27.1156 20.3894C27.1156 18.7985 25.8581 17.5578 24.2578 17.5578C23.3537 17.5578 22.486 17.9748 21.9196 18.6286C21.3532 17.9748 20.4855 17.5578 19.5814 17.5578C17.981 17.5578 16.7236 18.7985 16.7236 20.3894C16.7236 22.3303 18.4903 23.9212 21.1662 26.3254Z" fill="white"/>
<path fill-rule="evenodd" clip-rule="evenodd" d="M21.7158 33.5224C27.2861 32.1752 31.4315 26.626 31.4315 20.692V14.2768L21.7158 10L12 14.2768V20.692C12 26.626 16.1454 32.1752 21.7158 33.5224ZM21.1662 26.3254L21.9196 27.005L22.673 26.3254C25.3489 23.9212 27.1156 22.3303 27.1156 20.3894C27.1156 18.7985 25.8581 17.5578 24.2578 17.5578C23.3537 17.5578 22.486 17.9748 21.9196 18.6286C21.3532 17.9748 20.4855 17.5578 19.5814 17.5578C17.981 17.5578 16.7236 18.7985 16.7236 20.3894C16.7236 22.3303 18.4903 23.9212 21.1662 26.3254Z" fill="url(#paint1_linear_519_89)"/>
</g>
<defs>
<linearGradient id="paint0_linear_519_89" x1="59.3292" y1="2.8107e-06" x2="4.98921" y2="57.42" gradientUnits="userSpaceOnUse">
<stop offset="0.123144" stop-color="#FF386B"/>
<stop offset="1" stop-color="#A34FDE"/>
</linearGradient>
<linearGradient id="paint1_linear_519_89" x1="21.7158" y1="10" x2="21.7158" y2="33.5224" gradientUnits="userSpaceOnUse">
<stop stop-color="white"/>
<stop offset="1" stop-color="white" stop-opacity="0"/>
</linearGradient>
<clipPath id="clip0_519_89">
<rect width="44" height="44" fill="white"/>
</clipPath>
</defs>
</svg>
