<svg width="159" height="98" viewBox="0 0 159 98" fill="none" xmlns="http://www.w3.org/2000/svg">
<path fill-rule="evenodd" clip-rule="evenodd" d="M98.0286 0.334961H60.9712C49.1741 0.334961 39.5776 9.78543 39.5776 21.4031C39.5776 33.0209 49.1741 42.4713 60.9712 42.4713H98.0286C109.826 42.4713 119.422 33.0209 119.422 21.4031C119.427 9.78543 109.83 0.334961 98.0286 0.334961ZM60.9712 37.7267C51.8351 37.7267 44.4 30.4046 44.4 21.4031C44.4 12.406 51.8351 5.08394 60.9712 5.08394H85.5432C80.6025 8.86585 77.4241 14.7675 77.4241 21.4031C77.4241 28.0431 80.6069 33.9448 85.5432 37.7224H60.9712V37.7267ZM91.4878 26.5277L93.6578 24.4123C94.6311 25.837 95.8279 26.64 97.3667 26.9033V22.4997C94.881 22.0335 92.3032 21.2995 92.3032 18.135C92.3032 15.441 94.4952 13.6839 97.3667 13.3256V11.1885H99.6507V13.3256C101.913 13.5932 103.741 14.6164 104.692 16.0411L102.614 18.1782C101.891 17.0643 100.874 16.2872 99.6551 15.9764V20.095C102.141 20.5613 104.784 21.2952 104.784 24.5677C104.784 27.348 102.57 29.1526 99.6551 29.5541V31.7559H97.371V29.5973C94.8327 29.3555 92.6189 28.2417 91.4878 26.5277ZM97.3624 15.9118C96.1217 16.1363 95.2625 16.8012 95.2625 17.8935C95.2625 18.9167 96.1437 19.3613 97.3624 19.6506V15.9118ZM99.6464 22.9446C100.913 23.2554 101.816 23.7217 101.816 24.814C101.816 26.0617 100.935 26.6833 99.6464 26.9078V22.9446Z" fill="url(#paint0_linear_304_677)"/>
<path d="M9.7302 72.8536V92.0987H7.67873V72.8536H0.121094V71.0669H17.2839V72.8536H9.7302Z" fill="#191919"/>
<path d="M23.0862 92.3904C18.92 92.3904 16.1254 89.1674 16.1254 84.4534C16.1254 79.7394 18.92 76.5164 23.0862 76.5164C27.2524 76.5164 30.0786 79.7394 30.0786 84.4534C30.0786 89.1674 27.2484 92.3904 23.0862 92.3904ZM23.0862 90.7205C26.0903 90.7205 28.0825 88.2604 28.0825 84.4534C28.0825 80.6737 26.0903 78.1863 23.0862 78.1863C20.0821 78.1863 18.0899 80.6776 18.0899 84.4534C18.086 88.2604 20.0821 90.7205 23.0862 90.7205Z" fill="#191919"/>
<path d="M39.625 97.6649C36.3837 97.6649 33.8817 96.0845 33.1109 93.4181L34.9845 92.6863C35.522 94.8233 37.3047 96.0261 39.625 96.0261C42.6607 96.0261 44.5936 94.4457 44.5936 90.958V88.7314C43.7596 90.5181 41.886 91.7793 39.5973 91.7793C35.3125 91.7793 32.846 88.2643 32.846 84.1615C32.846 80.0002 35.3165 76.5164 39.5973 76.5164C41.8583 76.5164 43.7635 77.7776 44.5936 79.5915V76.8083H46.5581V90.8412C46.5541 95.3216 43.7003 97.6649 39.625 97.6649ZM39.8622 78.2408C36.7395 78.2408 34.8343 80.6425 34.8343 84.1576C34.8343 87.6453 36.7395 90.0743 39.8622 90.0743C42.0915 90.0743 44.6213 88.4044 44.6213 84.5663V83.8033C44.6213 79.8835 42.0955 78.2408 39.8622 78.2408Z" fill="#191919"/>
<path d="M57.2065 97.6649C53.9653 97.6649 51.4632 96.0845 50.6924 93.4181L52.566 92.6863C53.1036 94.8233 54.8862 96.0261 57.2065 96.0261C60.2422 96.0261 62.1751 94.4457 62.1751 90.958V88.7314C61.3411 90.5181 59.4675 91.7793 57.1788 91.7793C52.8941 91.7793 50.4276 88.2643 50.4276 84.1615C50.4276 80.0002 52.898 76.5164 57.1788 76.5164C59.4398 76.5164 61.345 77.7776 62.1751 79.5915V76.8083H64.1396V90.8412C64.1357 95.3216 61.2818 97.6649 57.2065 97.6649ZM57.4437 78.2408C54.321 78.2408 52.4158 80.6425 52.4158 84.1576C52.4158 87.6453 54.321 90.0743 57.4437 90.0743C59.673 90.0743 62.2028 88.4044 62.2028 84.5663V83.8033C62.2028 79.8835 59.673 78.2408 57.4437 78.2408Z" fill="#191919"/>
<path d="M71.1242 92.0987H69.1597V71.0669H71.1242V92.0987Z" fill="#191919"/>
<path d="M75.0215 84.4534C75.0215 79.8251 77.816 76.5164 81.9506 76.5164C86.1445 76.5164 88.3145 79.7083 88.3145 83.959V84.6052H76.8911C76.9504 88.3266 79.0335 90.6972 82.0376 90.6972C84.3894 90.6972 85.935 89.4087 86.4093 87.3884L88.1959 87.9451C87.3619 90.6972 85.1326 92.3982 82.0376 92.3982C77.82 92.3904 75.0215 89.1674 75.0215 84.4534ZM76.986 83.0754H86.3263C86.267 80.5569 84.9863 78.2135 81.9546 78.2135C79.3655 78.2135 77.4326 80.0586 76.986 83.0754Z" fill="#191919"/>
<path d="M91.56 71.0669H100.367C105.007 71.0669 107.478 73.0599 107.478 76.6606C107.478 79.1791 105.96 80.5571 104.501 81.1721C106.644 81.8767 108.13 83.6634 108.13 86.2092C108.13 89.8994 105.422 92.0987 100.9 92.0987H91.56V71.0669ZM99.9517 79.619C102.122 79.619 103.343 78.7976 103.343 77.1277C103.343 75.4889 102.122 74.6364 99.9517 74.6364H95.7578V79.6151H99.9517V79.619ZM95.7538 88.4941H100.604C102.746 88.4941 103.904 87.412 103.904 85.8004C103.904 84.22 102.742 83.1068 100.604 83.1068H95.7538V88.4941Z" fill="#191919"/>
<path d="M109.497 87.8208C109.497 84.7457 111.996 83.4572 115.15 82.9006L119.047 82.1688V81.9352C119.047 80.6156 118.363 79.7982 116.636 79.7982C115.091 79.7982 114.284 80.4716 113.928 81.8496L109.972 81.1178C110.687 78.5097 113.067 76.3999 116.782 76.3999C120.739 76.3999 123.119 78.1866 123.119 81.76V88.0583C123.119 88.8796 123.474 89.1404 124.399 89.0237V92.0988C121.751 92.4803 120.146 91.9509 119.462 90.6624C118.45 91.7446 116.873 92.3596 114.822 92.3596C111.758 92.3635 109.497 90.5457 109.497 87.8208ZM119.047 85.0376L115.984 85.6526C114.616 85.9173 113.604 86.3572 113.604 87.5873C113.604 88.6422 114.407 89.2572 115.656 89.2572C117.411 89.2572 119.047 88.3502 119.047 86.6219V85.0376Z" fill="#191919"/>
<path d="M126.751 76.6916H130.917V78.272C131.779 77.2755 133.21 76.3958 135.202 76.3958C138.475 76.3958 140.467 78.5912 140.467 81.9311V92.0947H136.301V83.1027C136.301 81.3744 135.585 80.1443 133.803 80.1443C132.344 80.1443 130.917 81.1681 130.917 83.1923V92.0986H126.751V76.6916Z" fill="#191919"/>
<path d="M147.961 82.6669L153.436 76.6917H158.432L152.693 82.5501L158.879 92.0987H154.12L149.807 85.5085L147.961 87.3847V92.1026H143.795V71.0669H147.961V82.6669Z" fill="#191919"/>
<defs>
<linearGradient id="paint0_linear_304_677" x1="135.263" y1="-10.8312" x2="101.228" y2="65.4148" gradientUnits="userSpaceOnUse">
<stop offset="0.123144" stop-color="#3DD6F5"/>
<stop offset="1" stop-color="#A34FDE"/>
</linearGradient>
</defs>
</svg>
