<svg width="174" height="28" viewBox="0 0 174 28" fill="none" xmlns="http://www.w3.org/2000/svg">
<path fill-rule="evenodd" clip-rule="evenodd" d="M38.8372 0H14.2148C6.37626 0 0 6.27927 0 13.9986C0 21.7179 6.37626 27.9971 14.2148 27.9971H38.8372C46.6758 27.9971 53.052 21.7179 53.052 13.9986C53.0549 6.27927 46.6787 0 38.8372 0ZM14.2148 24.8446C8.14437 24.8446 3.20415 19.9795 3.20415 13.9986C3.20415 8.02049 8.14437 3.15541 14.2148 3.15541H30.5414C27.2586 5.66827 25.1468 9.58959 25.1468 13.9986C25.1468 18.4104 27.2615 22.3317 30.5414 24.8417H14.2148V24.8446ZM34.4912 17.4035L35.9331 15.998C36.5798 16.9446 37.375 17.4781 38.3974 17.6531V14.7272C36.7458 14.4174 35.033 13.9297 35.033 11.8271C35.033 10.0371 36.4895 8.86958 38.3974 8.63149V7.21156H39.915V8.63149C41.418 8.80934 42.6327 9.48919 43.2648 10.4358L41.8841 11.8558C41.4035 11.1157 40.7277 10.5993 39.9179 10.3928V13.1294C41.5695 13.4392 43.326 13.9269 43.326 16.1012C43.326 17.9486 41.855 19.1476 39.9179 19.4144V20.8774H38.4003V19.4431C36.7138 19.2824 35.2428 18.5424 34.4912 17.4035ZM38.3945 10.3498C37.5702 10.4989 36.9993 10.9407 36.9993 11.6664C36.9993 12.3463 37.5848 12.6417 38.3945 12.8339V10.3498ZM39.9121 15.0226C40.7539 15.2292 41.354 15.539 41.354 16.2647C41.354 17.0937 40.7685 17.5068 39.9121 17.656V15.0226Z" fill="url(#paint0_linear_2099_372)"/>
<path d="M67.4157 7.43667V20.2239H66.0526V7.43667H61.031V6.24951H72.4347V7.43667H67.4157Z" fill="white"/>
<path d="M76.29 20.4178C73.5218 20.4178 71.665 18.2762 71.665 15.1441C71.665 12.0119 73.5218 9.87036 76.29 9.87036C79.0582 9.87036 80.936 12.0119 80.936 15.1441C80.936 18.2762 79.0556 20.4178 76.29 20.4178ZM76.29 19.3082C78.286 19.3082 79.6097 17.6736 79.6097 15.1441C79.6097 12.6327 78.286 10.9799 76.29 10.9799C74.294 10.9799 72.9703 12.6352 72.9703 15.1441C72.9677 17.6736 74.294 19.3082 76.29 19.3082Z" fill="white"/>
<path d="M87.2789 23.9223C85.1253 23.9223 83.4628 22.8723 82.9507 21.1006L84.1956 20.6143C84.5528 22.0343 85.7373 22.8335 87.2789 22.8335C89.296 22.8335 90.5803 21.7834 90.5803 19.466V17.9865C90.0261 19.1737 88.7812 20.0117 87.2605 20.0117C84.4136 20.0117 82.7747 17.6762 82.7747 14.9501C82.7747 12.1852 84.4162 9.87036 87.2605 9.87036C88.7628 9.87036 90.0287 10.7084 90.5803 11.9136V10.0643H91.8856V19.3884C91.8829 22.3653 89.9867 23.9223 87.2789 23.9223ZM87.4365 11.0161C85.3617 11.0161 84.0958 12.612 84.0958 14.9475C84.0958 17.2649 85.3617 18.8788 87.4365 18.8788C88.9178 18.8788 90.5987 17.7693 90.5987 15.2191V14.7121C90.5987 12.1076 88.9204 11.0161 87.4365 11.0161Z" fill="white"/>
<path d="M98.9609 23.9223C96.8073 23.9223 95.1448 22.8723 94.6326 21.1006L95.8775 20.6143C96.2347 22.0343 97.4192 22.8335 98.9609 22.8335C100.978 22.8335 102.262 21.7834 102.262 19.466V17.9865C101.708 19.1737 100.463 20.0117 98.9425 20.0117C96.0955 20.0117 94.4567 17.6762 94.4567 14.9501C94.4567 12.1852 96.0981 9.87036 98.9425 9.87036C100.445 9.87036 101.711 10.7084 102.262 11.9136V10.0643H103.568V19.3884C103.565 22.3653 101.669 23.9223 98.9609 23.9223ZM99.1185 11.0161C97.0436 11.0161 95.7777 12.612 95.7777 14.9475C95.7777 17.2649 97.0436 18.8788 99.1185 18.8788C100.6 18.8788 102.281 17.7693 102.281 15.2191V14.7121C102.281 12.1076 100.6 11.0161 99.1185 11.0161Z" fill="white"/>
<path d="M108.208 20.2239H106.903V6.24951H108.208V20.2239Z" fill="white"/>
<path d="M110.798 15.1441C110.798 12.0688 112.655 9.87036 115.402 9.87036C118.188 9.87036 119.63 11.9912 119.63 14.8156V15.2449H112.04C112.08 17.7175 113.464 19.2927 115.46 19.2927C117.022 19.2927 118.049 18.4366 118.364 17.0942L119.552 17.4641C118.997 19.2927 117.516 20.4229 115.46 20.4229C112.657 20.4178 110.798 18.2762 110.798 15.1441ZM112.103 14.2285H118.309C118.27 12.5551 117.419 10.998 115.404 10.998C113.684 10.998 112.4 12.224 112.103 14.2285Z" fill="white"/>
<path d="M121.787 6.24951H127.638C130.722 6.24951 132.363 7.57375 132.363 9.96619C132.363 11.6396 131.355 12.5552 130.385 12.9638C131.809 13.432 132.796 14.6191 132.796 16.3107C132.796 18.7626 130.997 20.2239 127.993 20.2239H121.787V6.24951ZM127.362 11.9319C128.804 11.9319 129.616 11.3861 129.616 10.2766C129.616 9.18768 128.804 8.62125 127.362 8.62125H124.576V11.9293H127.362V11.9319ZM124.573 17.8289H127.796C129.219 17.8289 129.989 17.1099 129.989 16.0391C129.989 14.989 129.217 14.2493 127.796 14.2493H124.573V17.8289Z" fill="white"/>
<path d="M133.705 17.3815C133.705 15.3382 135.365 14.4821 137.461 14.1123L140.05 13.626V13.4708C140.05 12.5941 139.596 12.0509 138.448 12.0509C137.421 12.0509 136.886 12.4984 136.649 13.4139L134.02 12.9277C134.496 11.1948 136.077 9.79297 138.546 9.79297C141.175 9.79297 142.756 10.9801 142.756 13.3545V17.5393C142.756 18.085 142.992 18.2583 143.607 18.1807V20.224C141.847 20.4774 140.781 20.1257 140.326 19.2696C139.654 19.9886 138.606 20.3973 137.243 20.3973C135.207 20.3998 133.705 19.192 133.705 17.3815ZM140.05 15.5322L138.015 15.9409C137.106 16.1167 136.434 16.409 136.434 17.2263C136.434 17.9272 136.967 18.3359 137.797 18.3359C138.963 18.3359 140.05 17.7333 140.05 16.5849V15.5322Z" fill="white"/>
<path d="M145.169 9.98673H147.937V11.0368C148.51 10.3747 149.461 9.79016 150.784 9.79016C152.959 9.79016 154.283 11.2489 154.283 13.468V20.2212H151.514V14.2466C151.514 13.0982 151.039 12.2809 149.855 12.2809C148.885 12.2809 147.937 12.9611 147.937 14.306V20.2238H145.169V9.98673Z" fill="white"/>
<path d="M159.262 13.957L162.9 9.98688H166.219L162.406 13.8794L166.516 20.2239H163.354L160.489 15.8451L159.262 17.0918V20.2265H156.494V6.24951H159.262V13.957Z" fill="white"/>
<defs>
<linearGradient id="paint0_linear_2099_372" x1="10.8041" y1="6.97271" x2="34.0692" y2="52.7981" gradientUnits="userSpaceOnUse">
<stop stop-color="#3DD6F5"/>
<stop offset="1" stop-color="#405BFF"/>
</linearGradient>
</defs>
</svg>
