<svg width="198" height="118" viewBox="0 0 198 118" fill="none" xmlns="http://www.w3.org/2000/svg">
<path d="M77.1638 35.1933C77.1638 26.9493 81.2781 19.2491 88.1312 14.6667V56.4734C88.1312 64.7175 84.017 72.4176 77.1638 77V35.1933Z" fill="url(#paint0_linear_114_1388)"/>
<path d="M93.2612 27.86C93.2612 19.6159 97.3754 11.9157 104.229 7.3334V49.1401C104.229 57.3841 100.114 65.0843 93.2612 69.6667V27.86Z" fill="url(#paint1_linear_114_1388)"/>
<path d="M109.196 20.5266C109.196 12.2825 113.311 4.58235 120.164 0V41.8067C120.164 50.0507 116.05 57.7509 109.196 62.3333V20.5266Z" fill="url(#paint2_linear_114_1388)"/>
<path d="M4.35 111.87H0V90.33H14.7V94.14H4.35V99.51H12.99V103.32H4.35V111.87Z" fill="#191919"/>
<path d="M25.3247 96.06V100.17C24.8447 100.11 24.4847 100.08 23.9747 100.08C21.7847 100.08 20.1047 101.43 20.1047 103.86V111.87H15.9047V96.09H20.1047V98.31C20.7947 96.93 22.3547 96 24.3047 96C24.7247 96 25.0247 96.03 25.3247 96.06Z" fill="#191919"/>
<path d="M41.4996 103.98C41.4996 108.9 38.3196 112.2 33.7596 112.2C29.1996 112.2 26.0196 108.9 26.0196 103.98C26.0196 99.09 29.1996 95.79 33.7596 95.79C38.3196 95.79 41.4996 99.09 41.4996 103.98ZM30.1896 103.98C30.1896 106.98 31.5696 108.72 33.7596 108.72C35.9496 108.72 37.2996 106.98 37.2996 103.98C37.2996 101.01 35.9496 99.27 33.7596 99.27C31.5696 99.27 30.1896 101.01 30.1896 103.98Z" fill="#191919"/>
<path d="M44.059 111.87V96.09H48.259V97.71C49.129 96.69 50.569 95.79 52.579 95.79C55.879 95.79 57.889 98.04 57.889 101.46V111.87H53.689V102.66C53.689 100.89 52.969 99.63 51.169 99.63C49.699 99.63 48.259 100.68 48.259 102.75V111.87H44.059Z" fill="#191919"/>
<path d="M61.6763 107.76V99.6H59.5762V96.09H61.6763V91.59H65.8163V96.09H69.0263V99.6H65.8163V106.89C65.8163 108.24 66.5662 108.42 67.7962 108.42C68.3962 108.42 68.6963 108.39 69.2363 108.33V111.81C68.4863 111.96 67.5862 112.05 66.5362 112.05C63.3562 112.05 61.6763 111 61.6763 107.76Z" fill="#191919"/>
<path d="M71.6845 94.23V90.33H75.9745V94.23H71.6845ZM75.9445 96.09V111.87H71.7445V96.09H75.9445Z" fill="#191919"/>
<path d="M86.291 112.2C81.641 112.2 78.461 108.87 78.461 103.98C78.461 99.33 81.671 95.79 86.141 95.79C90.821 95.79 93.341 99.27 93.341 103.68V104.91H82.481C82.781 107.31 84.251 108.75 86.321 108.75C87.941 108.75 89.231 107.97 89.711 106.44L93.251 107.7C92.111 110.58 89.441 112.2 86.291 112.2ZM86.111 99.15C84.431 99.15 83.141 100.14 82.631 102.06H89.171C89.141 100.5 88.151 99.15 86.111 99.15Z" fill="#191919"/>
<path d="M105.247 96.06V100.17C104.767 100.11 104.407 100.08 103.897 100.08C101.707 100.08 100.027 101.43 100.027 103.86V111.87H95.8266V96.09H100.027V98.31C100.717 96.93 102.277 96 104.227 96C104.647 96 104.947 96.03 105.247 96.06Z" fill="#191919"/>
<path d="M109.795 101.1C109.795 106.2 112.615 109.65 116.605 109.65C119.395 109.65 121.405 108.03 122.185 105.3L124.915 106.2C123.655 109.92 120.715 112.2 116.605 112.2C111.025 112.2 106.915 107.67 106.915 101.1C106.915 94.53 111.025 90 116.605 90C120.715 90 123.655 92.28 124.915 96L122.185 96.9C121.405 94.17 119.395 92.55 116.605 92.55C112.615 92.55 109.795 96 109.795 101.1Z" fill="#191919"/>
<path d="M131.761 112.14C128.911 112.14 126.601 110.46 126.601 107.64C126.601 104.52 129.031 103.23 132.541 102.51L136.351 101.73V101.07C136.351 99.27 135.361 98.25 133.261 98.25C131.281 98.25 130.111 99.18 129.631 100.92L127.081 100.26C127.831 97.71 130.141 95.88 133.351 95.88C136.861 95.88 139.021 97.59 139.021 100.95V108.6C139.021 109.62 139.651 109.95 140.701 109.71V111.87C138.301 112.17 136.921 111.6 136.591 110.1C135.631 111.33 133.891 112.14 131.761 112.14ZM136.351 106.53V103.83L133.291 104.49C130.891 104.97 129.271 105.63 129.271 107.52C129.271 109.05 130.381 109.95 132.091 109.95C134.401 109.95 136.351 108.54 136.351 106.53Z" fill="#191919"/>
<path d="M151.182 112.2C148.992 112.2 147.252 111.15 146.322 109.59V117.27H143.622V96.18H146.322V98.46C147.252 96.93 148.992 95.88 151.182 95.88C155.532 95.88 158.022 99.57 158.022 104.04C158.022 108.48 155.532 112.2 151.182 112.2ZM146.262 103.5V104.61C146.262 108.21 148.482 109.83 150.702 109.83C153.642 109.83 155.292 107.4 155.292 104.04C155.292 100.65 153.642 98.25 150.702 98.25C148.482 98.25 146.262 99.84 146.262 103.5Z" fill="#191919"/>
<path d="M161.314 93.45V90.33H164.254V93.45H161.314ZM164.134 96.18V111.87H161.434V96.18H164.134Z" fill="#191919"/>
<path d="M169.061 108.12V98.49H166.631V96.18H169.061V91.59H171.731V96.18H175.301V98.49H171.731V107.7C171.731 109.35 172.541 109.65 173.921 109.65C174.551 109.65 175.001 109.62 175.631 109.47V111.78C174.941 111.93 174.161 112.02 173.261 112.02C170.591 112.02 169.061 111.12 169.061 108.12Z" fill="#191919"/>
<path d="M182.767 112.14C179.917 112.14 177.607 110.46 177.607 107.64C177.607 104.52 180.037 103.23 183.547 102.51L187.357 101.73V101.07C187.357 99.27 186.367 98.25 184.267 98.25C182.287 98.25 181.117 99.18 180.637 100.92L178.087 100.26C178.837 97.71 181.147 95.88 184.357 95.88C187.867 95.88 190.027 97.59 190.027 100.95V108.6C190.027 109.62 190.657 109.95 191.707 109.71V111.87C189.307 112.17 187.927 111.6 187.597 110.1C186.637 111.33 184.897 112.14 182.767 112.14ZM187.357 106.53V103.83L184.297 104.49C181.897 104.97 180.277 105.63 180.277 107.52C180.277 109.05 181.387 109.95 183.097 109.95C185.407 109.95 187.357 108.54 187.357 106.53Z" fill="#191919"/>
<path d="M197.328 90.33V111.87H194.628V90.33H197.328Z" fill="#191919"/>
<defs>
<linearGradient id="paint0_linear_114_1388" x1="135.145" y1="4.91873e-06" x2="51.7744" y2="49.1963" gradientUnits="userSpaceOnUse">
<stop offset="0.123144" stop-color="#FF386B"/>
<stop offset="1" stop-color="#A34FDE"/>
</linearGradient>
<linearGradient id="paint1_linear_114_1388" x1="135.145" y1="4.91873e-06" x2="51.7744" y2="49.1963" gradientUnits="userSpaceOnUse">
<stop offset="0.123144" stop-color="#FF386B"/>
<stop offset="1" stop-color="#A34FDE"/>
</linearGradient>
<linearGradient id="paint2_linear_114_1388" x1="135.145" y1="4.91873e-06" x2="51.7744" y2="49.1963" gradientUnits="userSpaceOnUse">
<stop offset="0.123144" stop-color="#FF386B"/>
<stop offset="1" stop-color="#A34FDE"/>
</linearGradient>
</defs>
</svg>
