<svg width="373" height="77" viewBox="0 0 373 77" fill="none" xmlns="http://www.w3.org/2000/svg">
<path d="M18 35.1933C18 26.9493 22.1142 19.2491 28.9674 14.6667V56.4734C28.9674 64.7175 24.8532 72.4176 18 77V35.1933Z" fill="url(#paint0_linear_114_1384)"/>
<path d="M34.0974 27.86C34.0974 19.6159 38.2116 11.9157 45.0648 7.3334V49.1401C45.0648 57.3841 40.9505 65.0843 34.0974 69.6667V27.86Z" fill="url(#paint1_linear_114_1384)"/>
<path d="M50.0326 20.5266C50.0326 12.2825 54.1468 4.58235 61 0V41.8067C61 50.0507 56.8857 57.7509 50.0326 62.3333V20.5266Z" fill="url(#paint2_linear_114_1384)"/>
<path d="M96.8 49.48H91V20.76H110.6V25.84H96.8V33H108.32V38.08H96.8V49.48Z" fill="white"/>
<path d="M96.8 49.48H91V20.76H110.6V25.84H96.8V33H108.32V38.08H96.8V49.48Z" fill="url(#paint3_linear_114_1384)"/>
<path d="M124.766 28.4V33.88C124.126 33.8 123.646 33.76 122.966 33.76C120.046 33.76 117.806 35.56 117.806 38.8V49.48H112.206V28.44H117.806V31.4C118.726 29.56 120.806 28.32 123.406 28.32C123.966 28.32 124.366 28.36 124.766 28.4Z" fill="white"/>
<path d="M124.766 28.4V33.88C124.126 33.8 123.646 33.76 122.966 33.76C120.046 33.76 117.806 35.56 117.806 38.8V49.48H112.206V28.44H117.806V31.4C118.726 29.56 120.806 28.32 123.406 28.32C123.966 28.32 124.366 28.36 124.766 28.4Z" fill="url(#paint4_linear_114_1384)"/>
<path d="M146.333 38.96C146.333 45.52 142.093 49.92 136.013 49.92C129.933 49.92 125.693 45.52 125.693 38.96C125.693 32.44 129.933 28.04 136.013 28.04C142.093 28.04 146.333 32.44 146.333 38.96ZM131.253 38.96C131.253 42.96 133.093 45.28 136.013 45.28C138.933 45.28 140.733 42.96 140.733 38.96C140.733 35 138.933 32.68 136.013 32.68C133.093 32.68 131.253 35 131.253 38.96Z" fill="white"/>
<path d="M146.333 38.96C146.333 45.52 142.093 49.92 136.013 49.92C129.933 49.92 125.693 45.52 125.693 38.96C125.693 32.44 129.933 28.04 136.013 28.04C142.093 28.04 146.333 32.44 146.333 38.96ZM131.253 38.96C131.253 42.96 133.093 45.28 136.013 45.28C138.933 45.28 140.733 42.96 140.733 38.96C140.733 35 138.933 32.68 136.013 32.68C133.093 32.68 131.253 35 131.253 38.96Z" fill="url(#paint5_linear_114_1384)"/>
<path d="M149.745 49.48V28.44H155.345V30.6C156.505 29.24 158.425 28.04 161.105 28.04C165.505 28.04 168.185 31.04 168.185 35.6V49.48H162.585V37.2C162.585 34.84 161.625 33.16 159.225 33.16C157.265 33.16 155.345 34.56 155.345 37.32V49.48H149.745Z" fill="white"/>
<path d="M149.745 49.48V28.44H155.345V30.6C156.505 29.24 158.425 28.04 161.105 28.04C165.505 28.04 168.185 31.04 168.185 35.6V49.48H162.585V37.2C162.585 34.84 161.625 33.16 159.225 33.16C157.265 33.16 155.345 34.56 155.345 37.32V49.48H149.745Z" fill="url(#paint6_linear_114_1384)"/>
<path d="M173.235 44V33.12H170.435V28.44H173.235V22.44H178.755V28.44H183.035V33.12H178.755V42.84C178.755 44.64 179.755 44.88 181.395 44.88C182.195 44.88 182.595 44.84 183.315 44.76V49.4C182.315 49.6 181.115 49.72 179.715 49.72C175.475 49.72 173.235 48.32 173.235 44Z" fill="white"/>
<path d="M173.235 44V33.12H170.435V28.44H173.235V22.44H178.755V28.44H183.035V33.12H178.755V42.84C178.755 44.64 179.755 44.88 181.395 44.88C182.195 44.88 182.595 44.84 183.315 44.76V49.4C182.315 49.6 181.115 49.72 179.715 49.72C175.475 49.72 173.235 48.32 173.235 44Z" fill="url(#paint7_linear_114_1384)"/>
<path d="M186.579 25.96V20.76H192.299V25.96H186.579ZM192.259 28.44V49.48H186.659V28.44H192.259Z" fill="white"/>
<path d="M186.579 25.96V20.76H192.299V25.96H186.579ZM192.259 28.44V49.48H186.659V28.44H192.259Z" fill="url(#paint8_linear_114_1384)"/>
<path d="M206.055 49.92C199.855 49.92 195.615 45.48 195.615 38.96C195.615 32.76 199.895 28.04 205.855 28.04C212.095 28.04 215.455 32.68 215.455 38.56V40.2H200.975C201.375 43.4 203.335 45.32 206.095 45.32C208.255 45.32 209.975 44.28 210.615 42.24L215.335 43.92C213.815 47.76 210.255 49.92 206.055 49.92ZM205.815 32.52C203.575 32.52 201.855 33.84 201.175 36.4H209.895C209.855 34.32 208.535 32.52 205.815 32.52Z" fill="white"/>
<path d="M206.055 49.92C199.855 49.92 195.615 45.48 195.615 38.96C195.615 32.76 199.895 28.04 205.855 28.04C212.095 28.04 215.455 32.68 215.455 38.56V40.2H200.975C201.375 43.4 203.335 45.32 206.095 45.32C208.255 45.32 209.975 44.28 210.615 42.24L215.335 43.92C213.815 47.76 210.255 49.92 206.055 49.92ZM205.815 32.52C203.575 32.52 201.855 33.84 201.175 36.4H209.895C209.855 34.32 208.535 32.52 205.815 32.52Z" fill="url(#paint9_linear_114_1384)"/>
<path d="M231.329 28.4V33.88C230.689 33.8 230.209 33.76 229.529 33.76C226.609 33.76 224.369 35.56 224.369 38.8V49.48H218.769V28.44H224.369V31.4C225.289 29.56 227.369 28.32 229.969 28.32C230.529 28.32 230.929 28.36 231.329 28.4Z" fill="white"/>
<path d="M231.329 28.4V33.88C230.689 33.8 230.209 33.76 229.529 33.76C226.609 33.76 224.369 35.56 224.369 38.8V49.48H218.769V28.44H224.369V31.4C225.289 29.56 227.369 28.32 229.969 28.32C230.529 28.32 230.929 28.36 231.329 28.4Z" fill="url(#paint10_linear_114_1384)"/>
<path d="M237.394 35.12C237.394 41.92 241.154 46.52 246.474 46.52C250.194 46.52 252.874 44.36 253.914 40.72L257.554 41.92C255.874 46.88 251.954 49.92 246.474 49.92C239.034 49.92 233.554 43.88 233.554 35.12C233.554 26.36 239.034 20.32 246.474 20.32C251.954 20.32 255.874 23.36 257.554 28.32L253.914 29.52C252.874 25.88 250.194 23.72 246.474 23.72C241.154 23.72 237.394 28.32 237.394 35.12Z" fill="white"/>
<path d="M237.394 35.12C237.394 41.92 241.154 46.52 246.474 46.52C250.194 46.52 252.874 44.36 253.914 40.72L257.554 41.92C255.874 46.88 251.954 49.92 246.474 49.92C239.034 49.92 233.554 43.88 233.554 35.12C233.554 26.36 239.034 20.32 246.474 20.32C251.954 20.32 255.874 23.36 257.554 28.32L253.914 29.52C252.874 25.88 250.194 23.72 246.474 23.72C241.154 23.72 237.394 28.32 237.394 35.12Z" fill="url(#paint11_linear_114_1384)"/>
<path d="M266.681 49.84C262.881 49.84 259.801 47.6 259.801 43.84C259.801 39.68 263.041 37.96 267.721 37L272.801 35.96V35.08C272.801 32.68 271.481 31.32 268.681 31.32C266.041 31.32 264.481 32.56 263.841 34.88L260.441 34C261.441 30.6 264.521 28.16 268.801 28.16C273.481 28.16 276.361 30.44 276.361 34.92V45.12C276.361 46.48 277.201 46.92 278.601 46.6V49.48C275.401 49.88 273.561 49.12 273.121 47.12C271.841 48.76 269.521 49.84 266.681 49.84ZM272.801 42.36V38.76L268.721 39.64C265.521 40.28 263.361 41.16 263.361 43.68C263.361 45.72 264.841 46.92 267.121 46.92C270.201 46.92 272.801 45.04 272.801 42.36Z" fill="white"/>
<path d="M266.681 49.84C262.881 49.84 259.801 47.6 259.801 43.84C259.801 39.68 263.041 37.96 267.721 37L272.801 35.96V35.08C272.801 32.68 271.481 31.32 268.681 31.32C266.041 31.32 264.481 32.56 263.841 34.88L260.441 34C261.441 30.6 264.521 28.16 268.801 28.16C273.481 28.16 276.361 30.44 276.361 34.92V45.12C276.361 46.48 277.201 46.92 278.601 46.6V49.48C275.401 49.88 273.561 49.12 273.121 47.12C271.841 48.76 269.521 49.84 266.681 49.84ZM272.801 42.36V38.76L268.721 39.64C265.521 40.28 263.361 41.16 263.361 43.68C263.361 45.72 264.841 46.92 267.121 46.92C270.201 46.92 272.801 45.04 272.801 42.36Z" fill="url(#paint12_linear_114_1384)"/>
<path d="M292.576 49.92C289.656 49.92 287.336 48.52 286.096 46.44V56.68H282.496V28.56H286.096V31.6C287.336 29.56 289.656 28.16 292.576 28.16C298.376 28.16 301.696 33.08 301.696 39.04C301.696 44.96 298.376 49.92 292.576 49.92ZM286.016 38.32V39.8C286.016 44.6 288.976 46.76 291.936 46.76C295.856 46.76 298.056 43.52 298.056 39.04C298.056 34.52 295.856 31.32 291.936 31.32C288.976 31.32 286.016 33.44 286.016 38.32Z" fill="white"/>
<path d="M292.576 49.92C289.656 49.92 287.336 48.52 286.096 46.44V56.68H282.496V28.56H286.096V31.6C287.336 29.56 289.656 28.16 292.576 28.16C298.376 28.16 301.696 33.08 301.696 39.04C301.696 44.96 298.376 49.92 292.576 49.92ZM286.016 38.32V39.8C286.016 44.6 288.976 46.76 291.936 46.76C295.856 46.76 298.056 43.52 298.056 39.04C298.056 34.52 295.856 31.32 291.936 31.32C288.976 31.32 286.016 33.44 286.016 38.32Z" fill="url(#paint13_linear_114_1384)"/>
<path d="M306.086 24.92V20.76H310.006V24.92H306.086ZM309.846 28.56V49.48H306.246V28.56H309.846Z" fill="white"/>
<path d="M306.086 24.92V20.76H310.006V24.92H306.086ZM309.846 28.56V49.48H306.246V28.56H309.846Z" fill="url(#paint14_linear_114_1384)"/>
<path d="M316.415 44.48V31.64H313.175V28.56H316.415V22.44H319.975V28.56H324.735V31.64H319.975V43.92C319.975 46.12 321.055 46.52 322.895 46.52C323.735 46.52 324.335 46.48 325.175 46.28V49.36C324.255 49.56 323.215 49.68 322.015 49.68C318.455 49.68 316.415 48.48 316.415 44.48Z" fill="white"/>
<path d="M316.415 44.48V31.64H313.175V28.56H316.415V22.44H319.975V28.56H324.735V31.64H319.975V43.92C319.975 46.12 321.055 46.52 322.895 46.52C323.735 46.52 324.335 46.48 325.175 46.28V49.36C324.255 49.56 323.215 49.68 322.015 49.68C318.455 49.68 316.415 48.48 316.415 44.48Z" fill="url(#paint15_linear_114_1384)"/>
<path d="M334.689 49.84C330.889 49.84 327.809 47.6 327.809 43.84C327.809 39.68 331.049 37.96 335.729 37L340.809 35.96V35.08C340.809 32.68 339.489 31.32 336.689 31.32C334.049 31.32 332.489 32.56 331.849 34.88L328.449 34C329.449 30.6 332.529 28.16 336.809 28.16C341.489 28.16 344.369 30.44 344.369 34.92V45.12C344.369 46.48 345.209 46.92 346.609 46.6V49.48C343.409 49.88 341.569 49.12 341.129 47.12C339.849 48.76 337.529 49.84 334.689 49.84ZM340.809 42.36V38.76L336.729 39.64C333.529 40.28 331.369 41.16 331.369 43.68C331.369 45.72 332.849 46.92 335.129 46.92C338.209 46.92 340.809 45.04 340.809 42.36Z" fill="white"/>
<path d="M334.689 49.84C330.889 49.84 327.809 47.6 327.809 43.84C327.809 39.68 331.049 37.96 335.729 37L340.809 35.96V35.08C340.809 32.68 339.489 31.32 336.689 31.32C334.049 31.32 332.489 32.56 331.849 34.88L328.449 34C329.449 30.6 332.529 28.16 336.809 28.16C341.489 28.16 344.369 30.44 344.369 34.92V45.12C344.369 46.48 345.209 46.92 346.609 46.6V49.48C343.409 49.88 341.569 49.12 341.129 47.12C339.849 48.76 337.529 49.84 334.689 49.84ZM340.809 42.36V38.76L336.729 39.64C333.529 40.28 331.369 41.16 331.369 43.68C331.369 45.72 332.849 46.92 335.129 46.92C338.209 46.92 340.809 45.04 340.809 42.36Z" fill="url(#paint16_linear_114_1384)"/>
<path d="M354.103 20.76V49.48H350.503V20.76H354.103Z" fill="white"/>
<path d="M354.103 20.76V49.48H350.503V20.76H354.103Z" fill="url(#paint17_linear_114_1384)"/>
<defs>
<linearGradient id="paint0_linear_114_1384" x1="75.9808" y1="4.91873e-06" x2="-7.38937" y2="49.1963" gradientUnits="userSpaceOnUse">
<stop offset="0.123144" stop-color="#FF386B"/>
<stop offset="1" stop-color="#A34FDE"/>
</linearGradient>
<linearGradient id="paint1_linear_114_1384" x1="75.9808" y1="4.91873e-06" x2="-7.38937" y2="49.1963" gradientUnits="userSpaceOnUse">
<stop offset="0.123144" stop-color="#FF386B"/>
<stop offset="1" stop-color="#A34FDE"/>
</linearGradient>
<linearGradient id="paint2_linear_114_1384" x1="75.9808" y1="4.91873e-06" x2="-7.38937" y2="49.1963" gradientUnits="userSpaceOnUse">
<stop offset="0.123144" stop-color="#FF386B"/>
<stop offset="1" stop-color="#A34FDE"/>
</linearGradient>
<linearGradient id="paint3_linear_114_1384" x1="222.552" y1="20.32" x2="222.552" y2="56.68" gradientUnits="userSpaceOnUse">
<stop stop-color="white"/>
<stop offset="1" stop-color="white" stop-opacity="0"/>
</linearGradient>
<linearGradient id="paint4_linear_114_1384" x1="222.552" y1="20.32" x2="222.552" y2="56.68" gradientUnits="userSpaceOnUse">
<stop stop-color="white"/>
<stop offset="1" stop-color="white" stop-opacity="0"/>
</linearGradient>
<linearGradient id="paint5_linear_114_1384" x1="222.552" y1="20.32" x2="222.552" y2="56.68" gradientUnits="userSpaceOnUse">
<stop stop-color="white"/>
<stop offset="1" stop-color="white" stop-opacity="0"/>
</linearGradient>
<linearGradient id="paint6_linear_114_1384" x1="222.552" y1="20.32" x2="222.552" y2="56.68" gradientUnits="userSpaceOnUse">
<stop stop-color="white"/>
<stop offset="1" stop-color="white" stop-opacity="0"/>
</linearGradient>
<linearGradient id="paint7_linear_114_1384" x1="222.552" y1="20.32" x2="222.552" y2="56.68" gradientUnits="userSpaceOnUse">
<stop stop-color="white"/>
<stop offset="1" stop-color="white" stop-opacity="0"/>
</linearGradient>
<linearGradient id="paint8_linear_114_1384" x1="222.552" y1="20.32" x2="222.552" y2="56.68" gradientUnits="userSpaceOnUse">
<stop stop-color="white"/>
<stop offset="1" stop-color="white" stop-opacity="0"/>
</linearGradient>
<linearGradient id="paint9_linear_114_1384" x1="222.552" y1="20.32" x2="222.552" y2="56.68" gradientUnits="userSpaceOnUse">
<stop stop-color="white"/>
<stop offset="1" stop-color="white" stop-opacity="0"/>
</linearGradient>
<linearGradient id="paint10_linear_114_1384" x1="222.552" y1="20.32" x2="222.552" y2="56.68" gradientUnits="userSpaceOnUse">
<stop stop-color="white"/>
<stop offset="1" stop-color="white" stop-opacity="0"/>
</linearGradient>
<linearGradient id="paint11_linear_114_1384" x1="222.552" y1="20.32" x2="222.552" y2="56.68" gradientUnits="userSpaceOnUse">
<stop stop-color="white"/>
<stop offset="1" stop-color="white" stop-opacity="0"/>
</linearGradient>
<linearGradient id="paint12_linear_114_1384" x1="222.552" y1="20.32" x2="222.552" y2="56.68" gradientUnits="userSpaceOnUse">
<stop stop-color="white"/>
<stop offset="1" stop-color="white" stop-opacity="0"/>
</linearGradient>
<linearGradient id="paint13_linear_114_1384" x1="222.552" y1="20.32" x2="222.552" y2="56.68" gradientUnits="userSpaceOnUse">
<stop stop-color="white"/>
<stop offset="1" stop-color="white" stop-opacity="0"/>
</linearGradient>
<linearGradient id="paint14_linear_114_1384" x1="222.552" y1="20.32" x2="222.552" y2="56.68" gradientUnits="userSpaceOnUse">
<stop stop-color="white"/>
<stop offset="1" stop-color="white" stop-opacity="0"/>
</linearGradient>
<linearGradient id="paint15_linear_114_1384" x1="222.552" y1="20.32" x2="222.552" y2="56.68" gradientUnits="userSpaceOnUse">
<stop stop-color="white"/>
<stop offset="1" stop-color="white" stop-opacity="0"/>
</linearGradient>
<linearGradient id="paint16_linear_114_1384" x1="222.552" y1="20.32" x2="222.552" y2="56.68" gradientUnits="userSpaceOnUse">
<stop stop-color="white"/>
<stop offset="1" stop-color="white" stop-opacity="0"/>
</linearGradient>
<linearGradient id="paint17_linear_114_1384" x1="222.552" y1="20.32" x2="222.552" y2="56.68" gradientUnits="userSpaceOnUse">
<stop stop-color="white"/>
<stop offset="1" stop-color="white" stop-opacity="0"/>
</linearGradient>
</defs>
</svg>
