<svg width="168" height="36" viewBox="0 0 168 36" fill="none" xmlns="http://www.w3.org/2000/svg">
<path d="M8.11328 16.5094C8.11328 12.7935 9.96773 9.32276 13.0567 7.25733V7.25733V26.1012C13.0567 29.817 11.2023 33.2878 8.11328 35.3533V35.3533V16.5094Z" fill="url(#paint0_linear_631_9301)"/>
<path d="M15.369 13.204C15.369 9.48813 17.2234 6.01736 20.3124 3.95192V3.95192V22.7958C20.3124 26.5116 18.4579 29.9824 15.369 32.0479V32.0479V13.204Z" fill="url(#paint1_linear_631_9301)"/>
<path d="M22.5516 9.89858C22.5516 6.18269 24.406 2.71192 27.495 0.646484V0.646484V19.4903C27.495 23.2062 25.6405 26.677 22.5516 28.7424V28.7424V9.89858Z" fill="url(#paint2_linear_631_9301)"/>
<path d="M43.6314 22.9482H41.0171V10.003H49.8515V12.2928H43.6314V15.52H48.8239V17.8098H43.6314V22.9482Z" fill="#2C2C2C"/>
<path d="M56.2368 13.4466V15.9167C55.9483 15.8806 55.732 15.8626 55.4255 15.8626C54.1093 15.8626 53.0997 16.6739 53.0997 18.1343V22.9482H50.5755V13.4647H53.0997V14.7989C53.5143 13.9695 54.4519 13.4106 55.6238 13.4106C55.8762 13.4106 56.0565 13.4286 56.2368 13.4466Z" fill="#2C2C2C"/>
<path d="M65.9577 18.2064C65.9577 21.1633 64.0465 23.1465 61.306 23.1465C58.5656 23.1465 56.6544 21.1633 56.6544 18.2064C56.6544 15.2676 58.5656 13.2844 61.306 13.2844C64.0465 13.2844 65.9577 15.2676 65.9577 18.2064ZM59.1605 18.2064C59.1605 20.0094 59.9899 21.0551 61.306 21.0551C62.6222 21.0551 63.4335 20.0094 63.4335 18.2064C63.4335 16.4215 62.6222 15.3758 61.306 15.3758C59.9899 15.3758 59.1605 16.4215 59.1605 18.2064Z" fill="#2C2C2C"/>
<path d="M67.4958 22.9482V13.4647H70.0199V14.4383C70.5428 13.8253 71.4082 13.2844 72.6162 13.2844C74.5994 13.2844 75.8074 14.6366 75.8074 16.692V22.9482H73.2833V17.4131C73.2833 16.3494 72.8506 15.5922 71.7688 15.5922C70.8853 15.5922 70.0199 16.2232 70.0199 17.4672V22.9482H67.4958Z" fill="#2C2C2C"/>
<path d="M78.0835 20.4781V15.5741H76.8214V13.4647H78.0835V10.7603H80.5715V13.4647H82.5007V15.5741H80.5715V19.9553C80.5715 20.7666 81.0223 20.8748 81.7615 20.8748C82.1221 20.8748 82.3024 20.8568 82.6269 20.8207V22.9121C82.1762 23.0023 81.6353 23.0564 81.0043 23.0564C79.0931 23.0564 78.0835 22.4253 78.0835 20.4781Z" fill="#2C2C2C"/>
<path d="M84.0983 12.3468V10.003H86.6765V12.3468H84.0983ZM86.6585 13.4647V22.9482H84.1343V13.4647H86.6585Z" fill="#2C2C2C"/>
<path d="M92.8765 23.1465C90.082 23.1465 88.1708 21.1452 88.1708 18.2064C88.1708 15.4119 90.1 13.2844 92.7864 13.2844C95.599 13.2844 97.1135 15.3758 97.1135 18.0261V18.7653H90.5868C90.7671 20.2077 91.6505 21.0731 92.8946 21.0731C93.8682 21.0731 94.6434 20.6044 94.9319 19.6849L97.0594 20.4421C96.3743 22.1729 94.7696 23.1465 92.8765 23.1465ZM92.7684 15.3037C91.7587 15.3037 90.9834 15.8987 90.6769 17.0525H94.6074C94.5893 16.115 93.9944 15.3037 92.7684 15.3037Z" fill="#2C2C2C"/>
<path d="M104.269 13.4466V15.9167C103.98 15.8806 103.764 15.8626 103.457 15.8626C102.141 15.8626 101.131 16.6739 101.131 18.1343V22.9482H98.6072V13.4647H101.131V14.7989C101.546 13.9695 102.484 13.4106 103.655 13.4106C103.908 13.4106 104.088 13.4286 104.269 13.4466Z" fill="#2C2C2C"/>
<path d="M107.002 16.4756C107.002 19.5406 108.697 21.614 111.095 21.614C112.772 21.614 113.98 20.6404 114.448 18.9997L116.089 19.5406C115.332 21.7763 113.565 23.1465 111.095 23.1465C107.741 23.1465 105.271 20.4241 105.271 16.4756C105.271 12.5271 107.741 9.80469 111.095 9.80469C113.565 9.80469 115.332 11.1749 116.089 13.4106L114.448 13.9515C113.98 12.3108 112.772 11.3372 111.095 11.3372C108.697 11.3372 107.002 13.4106 107.002 16.4756Z" fill="#2C2C2C"/>
<path d="M120.203 23.1105C118.49 23.1105 117.102 22.1008 117.102 20.406C117.102 18.531 118.562 17.7557 120.672 17.323L122.962 16.8542V16.4576C122.962 15.3758 122.367 14.7628 121.105 14.7628C119.915 14.7628 119.211 15.3217 118.923 16.3674L117.39 15.9708C117.841 14.4383 119.229 13.3385 121.159 13.3385C123.268 13.3385 124.566 14.3661 124.566 16.3855V20.983C124.566 21.596 124.945 21.7943 125.576 21.6501V22.9482C124.133 23.1285 123.304 22.7859 123.106 21.8844C122.529 22.6237 121.483 23.1105 120.203 23.1105ZM122.962 19.7389V18.1163L121.123 18.5129C119.68 18.8014 118.707 19.1981 118.707 20.3339C118.707 21.2534 119.374 21.7943 120.401 21.7943C121.79 21.7943 122.962 20.9469 122.962 19.7389Z" fill="#2C2C2C"/>
<path d="M131.875 23.1465C130.559 23.1465 129.513 22.5155 128.954 21.5779V26.1935H127.331V13.5188H128.954V14.889C129.513 13.9695 130.559 13.3385 131.875 13.3385C134.489 13.3385 135.985 15.5561 135.985 18.2425C135.985 20.9109 134.489 23.1465 131.875 23.1465ZM128.918 17.918V18.5851C128.918 20.7486 130.252 21.7222 131.586 21.7222C133.353 21.7222 134.345 20.2618 134.345 18.2425C134.345 16.2052 133.353 14.7628 131.586 14.7628C130.252 14.7628 128.918 15.7184 128.918 17.918Z" fill="#2C2C2C"/>
<path d="M137.964 11.8781V10.003H139.731V11.8781H137.964ZM139.659 13.5188V22.9482H138.036V13.5188H139.659Z" fill="#2C2C2C"/>
<path d="M142.62 20.6945V14.907H141.16V13.5188H142.62V10.7603H144.225V13.5188H146.37V14.907H144.225V20.4421C144.225 21.4337 144.711 21.614 145.541 21.614C145.919 21.614 146.19 21.596 146.569 21.5058V22.8941C146.154 22.9842 145.685 23.0383 145.144 23.0383C143.54 23.0383 142.62 22.4975 142.62 20.6945Z" fill="#2C2C2C"/>
<path d="M150.857 23.1105C149.144 23.1105 147.756 22.1008 147.756 20.406C147.756 18.531 149.216 17.7557 151.325 17.323L153.615 16.8542V16.4576C153.615 15.3758 153.02 14.7628 151.758 14.7628C150.568 14.7628 149.865 15.3217 149.577 16.3674L148.044 15.9708C148.495 14.4383 149.883 13.3385 151.812 13.3385C153.922 13.3385 155.22 14.3661 155.22 16.3855V20.983C155.22 21.596 155.598 21.7943 156.23 21.6501V22.9482C154.787 23.1285 153.958 22.7859 153.759 21.8844C153.183 22.6237 152.137 23.1105 150.857 23.1105ZM153.615 19.7389V18.1163L151.776 18.5129C150.334 18.8014 149.36 19.1981 149.36 20.3339C149.36 21.2534 150.027 21.7943 151.055 21.7943C152.443 21.7943 153.615 20.9469 153.615 19.7389Z" fill="#2C2C2C"/>
<path d="M159.608 10.003V22.9482H157.985V10.003H159.608Z" fill="#2C2C2C"/>
<defs>
<linearGradient id="paint0_linear_631_9301" x1="34.2474" y1="0.646487" x2="-3.33066" y2="22.8211" gradientUnits="userSpaceOnUse">
<stop offset="0.123144" stop-color="#FF386B"/>
<stop offset="1" stop-color="#A34FDE"/>
</linearGradient>
<linearGradient id="paint1_linear_631_9301" x1="34.2474" y1="0.646487" x2="-3.33066" y2="22.8211" gradientUnits="userSpaceOnUse">
<stop offset="0.123144" stop-color="#FF386B"/>
<stop offset="1" stop-color="#A34FDE"/>
</linearGradient>
<linearGradient id="paint2_linear_631_9301" x1="34.2474" y1="0.646487" x2="-3.33066" y2="22.8211" gradientUnits="userSpaceOnUse">
<stop offset="0.123144" stop-color="#FF386B"/>
<stop offset="1" stop-color="#A34FDE"/>
</linearGradient>
</defs>
</svg>
