<svg width="1440" height="1795" viewBox="0 0 1440 1795" fill="none" xmlns="http://www.w3.org/2000/svg">
<g clip-path="url(#clip0_419_10277)">
<rect width="1440" height="1795" fill="white"/>
<rect width="1440" height="1795" fill="url(#paint0_linear_419_10277)"/>
<g clip-path="url(#clip1_419_10277)">
<g opacity="0.55" filter="url(#filter0_f_419_10277)">
<path d="M71.1887 1885.9C-113.234 1779.42 -191.488 1569.7 -103.597 1417.47C358.406 617.254 205.05 1228.14 389.473 1334.62C573.896 1441.09 938.376 1211.15 564.258 1803.05C476.366 1955.28 255.612 1992.38 71.1887 1885.9Z" fill="url(#paint1_linear_419_10277)"/>
</g>
</g>
<g clip-path="url(#clip2_419_10277)">
<g opacity="0.25" filter="url(#filter1_f_419_10277)">
<path d="M933.1 1038.8C983.718 894.765 1121.21 811.901 1240.2 853.717C1865.65 1073.52 1577.91 1144.56 1527.29 1288.59C1476.67 1432.63 1364.58 1375.31 1056.89 1375.31C937.906 1333.49 882.482 1182.83 933.1 1038.8Z" fill="#A34FDE"/>
</g>
</g>
</g>
<defs>
<filter id="filter0_f_419_10277" x="-839.666" y="311.383" width="2266.32" height="2335.28" filterUnits="userSpaceOnUse" color-interpolation-filters="sRGB">
<feFlood flood-opacity="0" result="BackgroundImageFix"/>
<feBlend mode="normal" in="SourceGraphic" in2="BackgroundImageFix" result="shape"/>
<feGaussianBlur stdDeviation="350" result="effect1_foregroundBlur_419_10277"/>
</filter>
<filter id="filter1_f_419_10277" x="464.355" y="392.878" width="1622.92" height="1443.69" filterUnits="userSpaceOnUse" color-interpolation-filters="sRGB">
<feFlood flood-opacity="0" result="BackgroundImageFix"/>
<feBlend mode="normal" in="SourceGraphic" in2="BackgroundImageFix" result="shape"/>
<feGaussianBlur stdDeviation="225" result="effect1_foregroundBlur_419_10277"/>
</filter>
<linearGradient id="paint0_linear_419_10277" x1="720" y1="0" x2="720" y2="1795" gradientUnits="userSpaceOnUse">
<stop stop-color="white"/>
<stop offset="1" stop-color="white" stop-opacity="0"/>
</linearGradient>
<linearGradient id="paint1_linear_419_10277" x1="502.498" y1="2325.4" x2="12.6641" y2="1100.23" gradientUnits="userSpaceOnUse">
<stop offset="0.123144" stop-color="#3DD6F5"/>
<stop offset="1" stop-color="#A34FDE"/>
</linearGradient>
<clipPath id="clip0_419_10277">
<rect width="1440" height="1795" fill="white"/>
</clipPath>
<clipPath id="clip1_419_10277">
<rect width="1440" height="1795" fill="white"/>
</clipPath>
<clipPath id="clip2_419_10277">
<rect width="822" height="1444.28" fill="white" transform="translate(618 350.718)"/>
</clipPath>
</defs>
</svg>
