<svg width="321" height="336" viewBox="0 0 321 336" fill="none" xmlns="http://www.w3.org/2000/svg">
<g clip-path="url(#clip0_419_10835)">
<mask id="mask0_419_10835" style="mask-type:alpha" maskUnits="userSpaceOnUse" x="-229" y="0" width="550" height="263">
<path fill-rule="evenodd" clip-rule="evenodd" d="M-225.253 0.196273H-205.172L-205.172 20.261H-225.253V0.196273ZM57.7378 262.907H37.6578H37.5143H17.4341H17.2905H-2.79002H-2.93356H-23.0141H-23.1577H-43.2379H-43.3814H-63.4617H-63.6052H-83.6855H-83.829H-103.909H-104.053H-124.134H-124.277H-144.357H-144.501H-164.581H-164.724H-184.805H-184.949H-205.029H-205.172H-225.253H-225.396L-225.396 0.196086H-225.253L-225.253 0.196273V0.0527344H320.792V0.196273V20.261V20.4045V40.4697V40.6133V60.6783V60.8218V80.8868V81.0303V101.095V101.239V121.304V121.447V141.512V141.656V161.721V161.864V181.929V182.073V202.138V202.281V222.346V222.49V242.555V242.698V262.763V262.907H320.648H300.568H300.424H280.344H280.201H260.12H259.977H239.896H239.753H219.672H219.529H199.448H199.305H179.225H179.081H159H158.857H138.777H138.634H118.553H118.41H98.3292H98.1857H78.1051H77.9616H57.8813H57.7378ZM57.8813 262.763H77.9616V242.698H57.8813V262.763ZM57.7378 242.698V262.763H37.6578V242.698H57.7378ZM57.8813 242.555H77.9616V222.49H57.8813V242.555ZM57.7378 222.49V242.555H37.6578V222.49H57.7378ZM57.8813 222.346H77.9616V202.281H57.8813V222.346ZM57.7378 202.281V222.346H37.6578V202.281H57.7378ZM57.8813 202.138H77.9616V182.073H57.8813V202.138ZM57.7378 182.073V202.138H37.6578V182.073H57.7378ZM57.8813 181.929H77.9616V161.864H57.8813V181.929ZM57.7378 161.864V181.929H37.6578V161.864H57.7378ZM57.8813 161.721H77.9616V141.656H57.8813V161.721ZM57.7378 141.656V161.721H37.6578V141.656H57.7378ZM57.8813 141.512H77.9616L77.9616 121.447H57.8813L57.8813 141.512ZM57.7378 121.447L57.7378 141.512H37.6578L37.6578 121.447H57.7378ZM57.8813 121.304H77.9616V101.239H57.8813V121.304ZM57.7378 101.239V121.304H37.6578V101.239H57.7378ZM57.8813 101.095H77.9616V81.0303H57.8813V101.095ZM57.7378 81.0303V101.095H37.6578V81.0303H57.7378ZM57.8813 80.8868H77.9616V60.8218H57.8813V80.8868ZM57.7378 60.8218V80.8868H37.6578V60.8218H57.7378ZM57.8813 60.6783H77.9616V40.6133H57.8813V60.6783ZM57.7378 40.6133V60.6783H37.6578V40.6133H57.7378ZM57.8813 40.4697H77.9616V20.4045H57.8813V40.4697ZM57.7378 20.4045V40.4697H37.6578V20.4045H57.7378ZM57.8813 20.261H77.9616V0.196273H57.8813V20.261ZM57.7378 0.196273V20.261H37.6578V0.196273H57.7378ZM-225.253 40.4697V20.4045H-205.172L-205.172 40.4697H-225.253ZM-225.253 60.6783V40.6133H-205.172V60.6783H-225.253ZM-225.253 80.8868V60.8218H-205.172L-205.172 80.8868H-225.253ZM-225.253 101.095V81.0303H-205.172L-205.172 101.095H-225.253ZM-225.253 121.304V101.239H-205.172L-205.172 121.304H-225.253ZM-225.253 141.512V121.447H-205.172V141.512H-225.253ZM-225.253 161.721V141.656H-205.172L-205.172 161.721H-225.253ZM-225.253 181.929V161.864H-205.172L-205.172 181.929H-225.253ZM-225.253 202.138V182.073H-205.172L-205.172 202.138H-225.253ZM-225.253 222.346V202.281H-205.172V222.346H-225.253ZM-225.253 242.555V222.49H-205.172L-205.172 242.555H-225.253ZM-225.253 262.763V242.698H-205.172L-205.172 262.763H-225.253ZM78.1051 262.763H98.1857V242.698H78.1051V262.763ZM78.1051 242.555H98.1857V222.49H78.1051V242.555ZM78.1051 222.346H98.1857V202.281H78.1051V222.346ZM78.1051 202.138H98.1857V182.073H78.1051V202.138ZM78.1051 181.929H98.1857V161.864H78.1051V181.929ZM78.1051 161.721H98.1857V141.656H78.1051V161.721ZM78.1051 141.512H98.1857L98.1857 121.447H78.1051L78.1051 141.512ZM78.1051 121.304H98.1857V101.239H78.1051V121.304ZM78.1051 101.095H98.1857V81.0303H78.1051V101.095ZM78.1051 80.8868H98.1857V60.8218H78.1051V80.8868ZM78.1051 60.6783H98.1857V40.6133H78.1051V60.6783ZM78.1051 40.4697H98.1857V20.4045H78.1051V40.4697ZM78.1051 20.261H98.1857V0.196273H78.1051V20.261ZM-205.029 20.261L-205.029 0.196273H-184.949V20.261H-205.029ZM-205.029 40.4697L-205.029 20.4045H-184.949L-184.949 40.4697H-205.029ZM-205.029 60.6783V40.6133H-184.949V60.6783H-205.029ZM-205.029 80.8868L-205.029 60.8218H-184.949L-184.949 80.8868H-205.029ZM-205.029 101.095L-205.029 81.0303H-184.949V101.095H-205.029ZM-205.029 121.304L-205.029 101.239H-184.949V121.304H-205.029ZM-205.029 141.512V121.447H-184.949L-184.949 141.512H-205.029ZM-205.029 161.721L-205.029 141.656H-184.949V161.721H-205.029ZM-205.029 181.929L-205.029 161.864H-184.949V181.929H-205.029ZM-205.029 202.138L-205.029 182.073H-184.949L-184.949 202.138H-205.029ZM-205.029 222.346V202.281H-184.949V222.346H-205.029ZM-205.029 242.555L-205.029 222.49H-184.949L-184.949 242.555H-205.029ZM-205.029 262.763L-205.029 242.698H-184.949V262.763H-205.029ZM98.3292 262.763H118.41V242.698H98.3292V262.763ZM98.3292 242.555H118.41V222.49H98.3292V242.555ZM98.3292 222.346H118.41V202.281H98.3292V222.346ZM98.3292 202.138H118.41V182.073H98.3292V202.138ZM98.3292 181.929H118.41V161.864H98.3292V181.929ZM98.3292 161.721H118.41V141.656H98.3292V161.721ZM98.3292 141.512H118.41L118.41 121.447H98.3292L98.3292 141.512ZM98.3292 121.304H118.41V101.239H98.3292V121.304ZM98.3292 101.095H118.41V81.0303H98.3292V101.095ZM98.3292 80.8868H118.41V60.8218H98.3292V80.8868ZM98.3292 60.6783H118.41V40.6133H98.3292V60.6783ZM98.3292 40.4697H118.41V20.4045H98.3292V40.4697ZM98.3292 20.261H118.41V0.196273H98.3292V20.261ZM-184.805 20.261V0.196273H-164.725V20.261H-184.805ZM-184.805 40.4697L-184.805 20.4045H-164.725L-164.725 40.4697H-184.805ZM-184.805 60.6783V40.6133H-164.725V60.6783H-184.805ZM-184.805 80.8868L-184.805 60.8218H-164.725L-164.725 80.8868H-184.805ZM-184.805 101.095V81.0303H-164.725V101.095H-184.805ZM-184.805 121.304V101.239H-164.725V121.304H-184.805ZM-184.805 141.512L-184.805 121.447H-164.725L-164.725 141.512H-184.805ZM-184.805 161.721V141.656H-164.725V161.721H-184.805ZM-184.805 181.929V161.864H-164.725V181.929H-184.805ZM-184.805 202.138L-184.805 182.073H-164.725L-164.725 202.138H-184.805ZM-184.805 222.346V202.281H-164.725V222.346H-184.805ZM-184.805 242.555L-184.805 222.49H-164.725L-164.724 242.555H-184.805ZM-184.805 262.763V242.698H-164.724V262.763H-184.805ZM118.553 262.763H138.634V242.698H118.553V262.763ZM118.553 242.555H138.634V222.49H118.553V242.555ZM118.553 222.346H138.634V202.281H118.553V222.346ZM118.553 202.138H138.634V182.073H118.553V202.138ZM118.553 181.929H138.634V161.864H118.553V181.929ZM118.553 161.721H138.634V141.656H118.553V161.721ZM118.553 141.512H138.634L138.634 121.447H118.553L118.553 141.512ZM118.553 121.304H138.634V101.239H118.553V121.304ZM118.553 101.095H138.634V81.0303H118.553V101.095ZM118.553 80.8868H138.634V60.8218H118.553V80.8868ZM118.553 60.6783H138.634V40.6133H118.553V60.6783ZM118.553 40.4697H138.634V20.4045H118.553V40.4697ZM118.553 20.261H138.634V0.196273H118.553V20.261ZM-164.581 20.261V0.196273H-144.501V20.261H-164.581ZM-164.581 40.4697L-164.581 20.4045H-144.501V40.4697H-164.581ZM-164.581 60.6783V40.6133H-144.501V60.6783H-164.581ZM-164.581 80.8868L-164.581 60.8218H-144.501L-144.501 80.8868H-164.581ZM-164.581 101.095V81.0303H-144.501V101.095H-164.581ZM-164.581 121.304V101.239H-144.501V121.304H-164.581ZM-164.581 141.512L-164.581 121.447H-144.501V141.512H-164.581ZM-164.581 161.721V141.656H-144.501V161.721H-164.581ZM-164.581 181.929V161.864H-144.501V181.929H-164.581ZM-164.581 202.138L-164.581 182.073H-144.501L-144.501 202.138H-164.581ZM-164.581 222.346V202.281H-144.501V222.346H-164.581ZM-164.581 242.555L-164.581 222.49H-144.501V242.555H-164.581ZM-164.581 262.763V242.698H-144.501V262.763H-164.581ZM138.777 262.763H158.857V242.698H138.777V262.763ZM138.777 242.555H158.857V222.49H138.777V242.555ZM138.777 222.346H158.857V202.281H138.777V222.346ZM138.777 202.138H158.857V182.073H138.777V202.138ZM138.777 181.929H158.857V161.864H138.777V181.929ZM138.777 161.721H158.857V141.656H138.777V161.721ZM138.777 141.512H158.857L158.857 121.447H138.777L138.777 141.512ZM138.777 121.304H158.857V101.239H138.777V121.304ZM138.777 101.095H158.857V81.0303H138.777V101.095ZM138.777 80.8868H158.857V60.8218H138.777V80.8868ZM138.777 60.6783H158.857V40.6133H138.777V60.6783ZM138.777 40.4697H158.857V20.4045H138.777V40.4697ZM138.777 20.261H158.857V0.196273H138.777V20.261ZM-144.357 20.261V0.196273H-124.277V20.261H-144.357ZM-144.357 40.4697V20.4045H-124.277V40.4697H-144.357ZM-144.357 60.6783L-144.357 40.6133H-124.277V60.6783H-144.357ZM-144.357 80.8868V60.8218H-124.277L-124.277 80.8868H-144.357ZM-144.357 101.095V81.0303H-124.277V101.095H-144.357ZM-144.357 121.304V101.239H-124.277V121.304H-144.357ZM-144.357 141.512L-144.357 121.447H-124.277V141.512H-144.357ZM-144.357 161.721V141.656H-124.277V161.721H-144.357ZM-144.357 181.929V161.864H-124.277V181.929H-144.357ZM-144.357 202.138V182.073H-124.277L-124.277 202.138H-144.357ZM-144.357 222.346L-144.357 202.281H-124.277V222.346H-144.357ZM-144.357 242.555V222.49H-124.277V242.555H-144.357ZM-144.357 262.763V242.698H-124.277V262.763H-144.357ZM159 262.763H179.081V242.698H159V262.763ZM159 242.555H179.081V222.49H159V242.555ZM159 222.346H179.081V202.281H159V222.346ZM159 202.138H179.081V182.073H159V202.138ZM159 181.929H179.081V161.864H159V181.929ZM159 161.721H179.081V141.656H159V161.721ZM159 141.512H179.081L179.081 121.447H159L159 141.512ZM159 121.304H179.081V101.239H159V121.304ZM159 101.095H179.081V81.0303H159V101.095ZM159 80.8868H179.081V60.8218H159V80.8868ZM159 60.6783H179.081V40.6133H159V60.6783ZM159 40.4697H179.081V20.4045H159V40.4697ZM159 20.261H179.081V0.196273H159V20.261ZM-124.134 20.261V0.196273H-104.053V20.261H-124.134ZM-124.134 40.4697V20.4045H-104.053V40.4697H-124.134ZM-124.134 60.6783L-124.134 40.6133H-104.053V60.6783H-124.134ZM-124.134 80.8868V60.8218H-104.053L-104.053 80.8868H-124.134ZM-124.134 101.095V81.0303H-104.053V101.095H-124.134ZM-124.134 121.304V101.239H-104.053V121.304H-124.134ZM-124.134 141.512L-124.134 121.447H-104.053V141.512H-124.134ZM-124.134 161.721V141.656H-104.053V161.721H-124.134ZM-124.134 181.929V161.864H-104.053V181.929H-124.134ZM-124.134 202.138V182.073H-104.053L-104.053 202.138H-124.134ZM-124.134 222.346L-124.134 202.281H-104.053V222.346H-124.134ZM-124.134 242.555V222.49H-104.053V242.555H-124.134ZM-124.134 262.763V242.698H-104.053V262.763H-124.134ZM179.225 262.763H199.305V242.698H179.225V262.763ZM179.225 242.555H199.305V222.49H179.225V242.555ZM179.225 222.346H199.305V202.281H179.225V222.346ZM179.225 202.138H199.305V182.073H179.225V202.138ZM179.225 181.929H199.305V161.864H179.225V181.929ZM179.225 161.721H199.305V141.656H179.225V161.721ZM179.225 141.512H199.305L199.305 121.447H179.225L179.225 141.512ZM179.225 121.304H199.305V101.239H179.225V121.304ZM179.225 101.095H199.305V81.0303H179.225V101.095ZM179.225 80.8868H199.305V60.8218H179.225V80.8868ZM179.225 60.6783H199.305V40.6133H179.225V60.6783ZM179.225 40.4697H199.305V20.4045H179.225V40.4697ZM179.225 20.261H199.305V0.196273H179.225V20.261ZM-103.909 20.261V0.196273H-83.829V20.261H-103.909ZM-103.909 40.4697V20.4045H-83.829V40.4697H-103.909ZM-103.909 60.6783L-103.909 40.6133H-83.829V60.6783H-103.909ZM-103.909 80.8868V60.8218H-83.829V80.8868H-103.909ZM-103.909 101.095V81.0303H-83.829V101.095H-103.909ZM-103.909 121.304V101.239H-83.829V121.304H-103.909ZM-103.909 141.512L-103.909 121.447H-83.829L-83.829 141.512H-103.909ZM-103.909 161.721V141.656H-83.829V161.721H-103.909ZM-103.909 181.929V161.864H-83.829V181.929H-103.909ZM-103.909 202.138V182.073H-83.829V202.138H-103.909ZM-103.909 222.346L-103.909 202.281H-83.829V222.346H-103.909ZM-103.909 242.555V222.49H-83.829V242.555H-103.909ZM-103.909 262.763V242.698H-83.829V262.763H-103.909ZM280.344 262.763H300.424V242.698H280.344V262.763ZM280.344 242.555H300.424V222.49H280.344V242.555ZM280.201 222.49V242.555H260.12V222.49H280.201ZM280.344 222.346H300.424V202.281H280.344V222.346ZM280.201 202.281V222.346H260.12V202.281H280.201ZM280.344 202.138H300.424V182.073H280.344V202.138ZM280.201 182.073V202.138H260.12V182.073H280.201ZM280.344 181.929H300.424V161.864H280.344V181.929ZM280.201 161.864V181.929H260.12V161.864H280.201ZM280.344 161.721H300.424V141.656H280.344V161.721ZM280.201 141.656V161.721H260.12V141.656H280.201ZM280.344 141.512H300.424V121.447H280.344L280.344 141.512ZM280.201 121.447L280.201 141.512H260.12L260.12 121.447H280.201ZM280.344 121.304H300.424V101.239H280.344V121.304ZM280.201 101.239V121.304H260.12V101.239H280.201ZM280.344 101.095H300.424V81.0303H280.344V101.095ZM280.201 81.0303V101.095H260.12V81.0303H280.201ZM280.344 80.8868H300.424V60.8218H280.344V80.8868ZM280.201 60.8218V80.8868H260.12V60.8218H280.201ZM280.344 60.6783H300.424V40.6133H280.344V60.6783ZM280.201 40.6133V60.6783H260.12V40.6133H280.201ZM280.344 40.4697H300.424V20.4045H280.344V40.4697ZM280.201 20.4045V40.4697H260.12V20.4045H280.201ZM280.344 20.261H300.424V0.196273H280.344V20.261ZM280.201 0.196273V20.261H260.12V0.196273H280.201ZM280.201 242.698V262.763H260.12V242.698H280.201ZM17.2905 262.763H-2.79002V242.698H17.2905V262.763ZM-2.93356 262.763V242.698H-23.0141V262.763H-2.93356ZM17.2905 242.555H-2.79002V222.49H17.2905V242.555ZM-2.93356 242.555V222.49H-23.0141V242.555H-2.93356ZM17.2905 222.346H-2.79002V202.281H17.2905V222.346ZM-2.93356 222.346V202.281H-23.0141V222.346H-2.93356ZM17.2905 202.138H-2.79002V182.073H17.2905V202.138ZM-2.93356 202.138V182.073H-23.0141V202.138H-2.93356ZM17.2905 181.929H-2.79002V161.864H17.2905V181.929ZM-2.93356 181.929V161.864H-23.0141V181.929H-2.93356ZM17.2905 161.721H-2.79002V141.656H17.2905V161.721ZM-2.93356 161.721V141.656H-23.0141V161.721H-2.93356ZM17.2905 141.512H-2.79002L-2.79004 121.447H17.2905L17.2905 141.512ZM-2.93356 141.512L-2.93358 121.447H-23.0141L-23.0141 141.512H-2.93356ZM17.2905 121.304H-2.79004V101.239H17.2905V121.304ZM-2.93358 121.304V101.239H-23.0141V121.304H-2.93358ZM17.2905 101.095H-2.79004V81.0303H17.2905V101.095ZM-2.93358 101.095V81.0303H-23.0141V101.095H-2.93358ZM17.2905 80.8868H-2.79004V60.8218H17.2905V80.8868ZM-2.93358 80.8868V60.8218H-23.0141V80.8868H-2.93358ZM17.2905 60.6783H-2.79004V40.6133H17.2905V60.6783ZM-2.93358 60.6783V40.6133H-23.0141V60.6783H-2.93358ZM17.2905 40.4697H-2.79004V20.4045H17.2905V40.4697ZM-2.93358 40.4697V20.4045H-23.0141V40.4697H-2.93358ZM17.2905 20.261H-2.79004V0.196273H17.2905V20.261ZM-2.93358 20.261V0.196273H-23.0141V20.261H-2.93358ZM199.448 262.763H219.529V242.698H199.448V262.763ZM199.448 242.555H219.529V222.49H199.448V242.555ZM199.448 222.346H219.529V202.281H199.448V222.346ZM199.448 202.138H219.529V182.073H199.448V202.138ZM199.448 181.929H219.529V161.864H199.448V181.929ZM199.448 161.721H219.529V141.656H199.448V161.721ZM199.448 141.512H219.529L219.529 121.447H199.448L199.448 141.512ZM199.448 121.304H219.529V101.239H199.448V121.304ZM199.448 101.095H219.529V81.0303H199.448V101.095ZM199.448 80.8868H219.529V60.8218H199.448V80.8868ZM199.448 60.6783H219.529V40.6133H199.448V60.6783ZM199.448 40.4697H219.529V20.4045H199.448V40.4697ZM199.448 20.261H219.529V0.196273H199.448V20.261ZM-83.6855 20.261V0.196273H-63.6053V20.261H-83.6855ZM-83.6855 40.4697V20.4045H-63.6053V40.4697H-83.6855ZM-83.6855 60.6783V40.6133H-63.6053V60.6783H-83.6855ZM-83.6855 80.8868V60.8218H-63.6053V80.8868H-83.6855ZM-83.6855 101.095V81.0303H-63.6053V101.095H-83.6855ZM-83.6855 121.304V101.239H-63.6053V121.304H-83.6855ZM-83.6855 141.512L-83.6855 121.447H-63.6053L-63.6052 141.512H-83.6855ZM-83.6855 161.721V141.656H-63.6052V161.721H-83.6855ZM-83.6855 181.929V161.864H-63.6052V181.929H-83.6855ZM-83.6855 202.138V182.073H-63.6052V202.138H-83.6855ZM-83.6855 222.346V202.281H-63.6052V222.346H-83.6855ZM-83.6855 242.555V222.49H-63.6052V242.555H-83.6855ZM-83.6855 262.763V242.698H-63.6052V262.763H-83.6855ZM300.568 262.763H320.648V242.698H300.568V262.763ZM300.568 242.555H320.648V222.49H300.568V242.555ZM300.568 222.346H320.648V202.281H300.568V222.346ZM300.568 202.138H320.648V182.073H300.568V202.138ZM300.568 181.929H320.648V161.864H300.568V181.929ZM300.568 161.721H320.648V141.656H300.568V161.721ZM300.568 141.512H320.648V121.447H300.568V141.512ZM300.568 121.304H320.648V101.239H300.568V121.304ZM300.568 101.095H320.648V81.0303H300.568V101.095ZM300.568 80.8868H320.648V60.8218H300.568V80.8868ZM300.568 60.6783H320.648V40.6133H300.568V60.6783ZM300.568 40.4697H320.648V20.4045H300.568V40.4697ZM300.568 20.261H320.648V0.196273H300.568V20.261ZM37.5143 262.763H17.4341V242.698H37.5143V262.763ZM37.5143 242.555H17.4341V222.49H37.5143V242.555ZM37.5143 222.346H17.4341V202.281H37.5143V222.346ZM37.5143 202.138H17.4341V182.073H37.5143V202.138ZM37.5143 181.929H17.4341V161.864H37.5143V181.929ZM37.5143 161.721H17.4341V141.656H37.5143V161.721ZM37.5143 141.512H17.4341L17.4341 121.447H37.5143L37.5143 141.512ZM37.5143 121.304H17.4341V101.239H37.5143V121.304ZM37.5143 101.095H17.4341V81.0303H37.5143V101.095ZM37.5143 80.8868H17.4341V60.8218H37.5143V80.8868ZM37.5143 60.6783H17.4341V40.6133H37.5143V60.6783ZM37.5143 40.4697H17.4341V20.4045H37.5143V40.4697ZM37.5143 20.261H17.4341V0.196273H37.5143V20.261ZM219.672 262.763H239.753V242.698H219.672V262.763ZM219.672 242.555H239.753V222.49H219.672V242.555ZM219.672 222.346H239.753V202.281H219.672V222.346ZM219.672 202.138H239.753V182.073H219.672V202.138ZM219.672 181.929H239.753V161.864H219.672V181.929ZM219.672 161.721H239.753V141.656H219.672V161.721ZM219.672 141.512H239.753L239.753 121.447H219.672L219.672 141.512ZM219.672 121.304H239.753V101.239H219.672V121.304ZM219.672 101.095H239.753V81.0303H219.672V101.095ZM219.672 80.8868H239.753V60.8218H219.672V80.8868ZM219.672 60.6783H239.753V40.6133H219.672V60.6783ZM219.672 40.4697H239.753V20.4045H219.672V40.4697ZM219.672 20.261H239.753V0.196273H219.672V20.261ZM-63.4617 20.261V0.196273H-43.3815V20.261H-63.4617ZM-63.4617 40.4697V20.4045H-43.3815V40.4697H-63.4617ZM-63.4617 60.6783V40.6133H-43.3815V60.6783H-63.4617ZM-63.4617 80.8868V60.8218H-43.3815V80.8868H-63.4617ZM-63.4617 101.095V81.0303H-43.3815V101.095H-63.4617ZM-63.4617 121.304V101.239H-43.3815V121.304H-63.4617ZM-63.4617 141.512L-63.4617 121.447H-43.3815L-43.3814 141.512H-63.4617ZM-63.4617 161.721V141.656H-43.3814V161.721H-63.4617ZM-63.4617 181.929V161.864H-43.3814V181.929H-63.4617ZM-63.4617 202.138V182.073H-43.3814V202.138H-63.4617ZM-63.4617 222.346V202.281H-43.3814V222.346H-63.4617ZM-63.4617 242.555V222.49H-43.3814V242.555H-63.4617ZM-63.4617 262.763V242.698H-43.3814V262.763H-63.4617ZM239.896 262.763H259.977V242.698H239.896V262.763ZM239.896 242.555H259.977V222.49H239.896V242.555ZM239.896 222.346H259.977V202.281H239.896V222.346ZM239.896 202.138H259.977V182.073H239.896V202.138ZM239.896 181.929H259.977V161.864H239.896V181.929ZM239.896 161.721H259.977V141.656H239.896V161.721ZM239.896 141.512H259.977L259.977 121.447H239.896L239.896 141.512ZM239.896 121.304H259.977V101.239H239.896V121.304ZM239.896 101.095H259.977V81.0303H239.896V101.095ZM239.896 80.8868H259.977V60.8218H239.896V80.8868ZM239.896 60.6783H259.977V40.6133H239.896V60.6783ZM239.896 40.4697H259.977V20.4045H239.896V40.4697ZM239.896 20.261H259.977V0.196273H239.896V20.261ZM-43.2379 20.261V0.196273H-23.1577V20.261H-43.2379ZM-43.2379 40.4697V20.4045H-23.1577V40.4697H-43.2379ZM-43.2379 60.6783V40.6133H-23.1577V60.6783H-43.2379ZM-43.2379 80.8868V60.8218H-23.1577V80.8868H-43.2379ZM-43.2379 101.095V81.0303H-23.1577V101.095H-43.2379ZM-43.2379 121.304V101.239H-23.1577V121.304H-43.2379ZM-43.2379 141.512L-43.2379 121.447H-23.1577L-23.1577 141.512H-43.2379ZM-43.2379 161.721V141.656H-23.1577V161.721H-43.2379ZM-43.2379 181.929V161.864H-23.1577V181.929H-43.2379ZM-43.2379 202.138V182.073H-23.1577V202.138H-43.2379ZM-43.2379 222.346V202.281H-23.1577V222.346H-43.2379ZM-43.2379 242.555V222.49H-23.1577V242.555H-43.2379ZM-43.2379 262.763V242.698H-23.1577V262.763H-43.2379Z" fill="url(#paint0_linear_419_10835)"/>
</mask>
<g mask="url(#mask0_419_10835)">
<circle cx="39.4052" cy="124.259" r="112.823" fill="url(#paint1_linear_419_10835)"/>
</g>
<g opacity="0.35">
<circle opacity="0.22" cx="48.6818" cy="266.682" r="69.6818" fill="url(#paint2_linear_419_10835)"/>
<mask id="mask1_419_10835" style="mask-type:alpha" maskUnits="userSpaceOnUse" x="18" y="236" width="63" height="63">
<rect x="18.3086" y="236.309" width="61.9394" height="61.9394" fill="#D9D9D9"/>
</mask>
<g mask="url(#mask1_419_10835)">
<path d="M46.958 285.346H51.4744V282.12C53.6251 281.733 55.4747 280.894 57.0232 279.604C58.5716 278.314 59.3459 276.4 59.3459 273.862C59.3459 272.055 58.8297 270.399 57.7974 268.894C56.7651 267.388 54.7004 266.076 51.6035 264.958C49.0227 264.098 47.2376 263.345 46.2483 262.7C45.259 262.055 44.7643 261.173 44.7643 260.054C44.7643 258.936 45.1622 258.054 45.9579 257.409C46.7537 256.764 47.9043 256.441 49.4098 256.441C50.7862 256.441 51.8615 256.775 52.6358 257.441C53.41 258.108 53.9692 258.936 54.3133 259.925L58.4426 258.248C57.9694 256.742 57.0984 255.431 55.8295 254.312C54.5606 253.194 53.1519 252.57 51.6035 252.441V249.215H47.087V252.441C44.9364 252.914 43.2588 253.861 42.0545 255.28C40.8501 256.699 40.2479 258.291 40.2479 260.054C40.2479 262.076 40.8393 263.711 42.0222 264.958C43.2051 266.205 45.0654 267.281 47.6032 268.184C50.3131 269.173 52.1949 270.055 53.2487 270.829C54.3026 271.604 54.8295 272.614 54.8295 273.862C54.8295 275.281 54.3241 276.324 53.3132 276.991C52.3024 277.658 51.0873 277.991 49.6679 277.991C48.2484 277.991 46.9903 277.55 45.8934 276.668C44.7966 275.787 43.9901 274.464 43.4739 272.7L39.2156 274.378C39.8178 276.443 40.7533 278.109 42.0222 279.378C43.2911 280.647 44.9364 281.518 46.958 281.991V285.346ZM49.2807 293.089C45.7106 293.089 42.3556 292.411 39.2156 291.056C36.0756 289.701 33.3442 287.863 31.0215 285.54C28.6988 283.217 26.86 280.486 25.505 277.346C24.1501 274.206 23.4727 270.851 23.4727 267.281C23.4727 263.711 24.1501 260.356 25.505 257.216C26.86 254.076 28.6988 251.344 31.0215 249.022C33.3442 246.699 36.0756 244.86 39.2156 243.505C42.3556 242.15 45.7106 241.473 49.2807 241.473C52.8508 241.473 56.2059 242.15 59.3459 243.505C62.4859 244.86 65.2172 246.699 67.5399 249.022C69.8627 251.344 71.7015 254.076 73.0564 257.216C74.4113 260.356 75.0888 263.711 75.0888 267.281C75.0888 270.851 74.4113 274.206 73.0564 277.346C71.7015 280.486 69.8627 283.217 67.5399 285.54C65.2172 287.863 62.4859 289.701 59.3459 291.056C56.2059 292.411 52.8508 293.089 49.2807 293.089Z" fill="url(#paint3_linear_419_10835)"/>
</g>
</g>
</g>
<defs>
<linearGradient id="paint0_linear_419_10835" x1="50.2874" y1="-73.0676" x2="47.7228" y2="352.953" gradientUnits="userSpaceOnUse">
<stop offset="0.348404" stop-color="#405BFF"/>
<stop offset="0.552409" stop-color="#405BFF" stop-opacity="0.4"/>
<stop offset="0.682976" stop-color="#405BFF" stop-opacity="0.2"/>
<stop offset="1" stop-color="#405BFF" stop-opacity="0"/>
</linearGradient>
<linearGradient id="paint1_linear_419_10835" x1="196.995" y1="-48.3607" x2="-44.447" y2="237.082" gradientUnits="userSpaceOnUse">
<stop offset="0.123144" stop-color="#3DD6F5"/>
<stop offset="1" stop-color="#A34FDE"/>
</linearGradient>
<linearGradient id="paint2_linear_419_10835" x1="146.012" y1="160.069" x2="-3.10694" y2="336.364" gradientUnits="userSpaceOnUse">
<stop offset="0.123144" stop-color="#3DD6F5"/>
<stop offset="1" stop-color="#A34FDE"/>
</linearGradient>
<linearGradient id="paint3_linear_419_10835" x1="85.329" y1="227.794" x2="30.0997" y2="293.089" gradientUnits="userSpaceOnUse">
<stop offset="0.123144" stop-color="#3DD6F5"/>
<stop offset="1" stop-color="#A34FDE"/>
</linearGradient>
<clipPath id="clip0_419_10835">
<rect width="321" height="336" fill="white"/>
</clipPath>
</defs>
</svg>
