<svg width="164" height="25" viewBox="0 0 164 25" fill="none" xmlns="http://www.w3.org/2000/svg">
<g clip-path="url(#clip0_2000_2587)">
<path d="M9.80348 19.3277V16.9767H2.70922V5.44019H0V19.3277H9.80348ZM16.6184 18.8903C17.205 18.4529 17.6519 17.8788 17.9591 17.168V19.3277H20.5566V12.63C20.5566 11.9192 20.389 11.2631 20.0259 10.7164C19.6628 10.1696 19.1321 9.7322 18.4618 9.43148C17.7915 9.13077 16.9815 8.96674 16.0598 8.96674C15.5571 8.96674 15.0543 9.02142 14.5795 9.10343C14.1047 9.18544 13.6578 9.32213 13.2389 9.48616C12.8199 9.65019 12.4289 9.84155 12.0938 10.0602L12.1775 12.4386C12.8199 12.0286 13.4344 11.7278 14.0489 11.5091C14.6633 11.2904 15.3336 11.1811 16.0878 11.1811C16.6743 11.1811 17.1491 11.3178 17.4843 11.5912C17.8194 11.8645 17.987 12.2199 17.987 12.6573V13.3408H15.6409C14.2444 13.3408 13.1551 13.6141 12.3451 14.1882C11.5351 14.7623 11.1441 15.5551 11.1441 16.5666C11.1441 17.1407 11.2838 17.6328 11.5351 18.0975C11.8145 18.5623 12.1775 18.9177 12.6803 19.1637C13.183 19.4371 13.7696 19.5464 14.412 19.5464C15.3057 19.5464 16.0319 19.3277 16.6184 18.8903ZM14.2723 17.168C13.993 16.9493 13.8254 16.6486 13.8254 16.2659C13.8254 15.8012 14.0209 15.4458 14.4399 15.1997C14.8309 14.9537 15.4454 14.817 16.2274 14.817H17.9032V15.1997C17.9032 15.5278 17.8194 15.8558 17.6239 16.2112C17.4284 16.5666 17.1491 16.8673 16.7581 17.1134C16.3671 17.3594 15.9202 17.4961 15.4174 17.4961C14.9426 17.4961 14.5516 17.3867 14.2723 17.168ZM28.8239 18.863C29.4384 18.3436 29.8853 17.6328 30.1646 16.758V19.3277H32.79V9.26746H30.1646V13.9695C30.1646 14.653 30.0528 15.2544 29.8294 15.7738C29.606 16.2932 29.2987 16.7306 28.8798 17.004C28.4608 17.3047 27.986 17.4414 27.4553 17.4414C26.8688 17.4414 26.4219 17.2774 26.0868 16.9493C25.7795 16.6213 25.6119 16.1292 25.6119 15.5004V9.26746H22.9865V15.5551C22.9865 16.8673 23.2937 17.8515 23.9361 18.5623C24.5785 19.273 25.4164 19.6284 26.5057 19.6284C27.4553 19.6284 28.2094 19.3824 28.8239 18.863ZM38.2922 19.3277V14.6256C38.2922 13.9422 38.4039 13.3408 38.6274 12.8214C38.8508 12.3019 39.1581 11.8645 39.5491 11.5912C39.9401 11.2904 40.4149 11.1538 40.9456 11.1538C41.5321 11.1538 41.979 11.3178 42.3142 11.6458C42.6214 11.9739 42.789 12.466 42.789 13.0947V19.3551H45.4423V13.0674C45.4423 11.7552 45.1351 10.771 44.4927 10.0602C43.8503 9.34947 43.0124 8.99408 41.9231 8.99408C41.0015 8.99408 40.2473 9.26746 39.6329 9.75954C39.0463 10.279 38.5995 10.9897 38.2922 11.8645V9.2948H35.6668V19.3551H38.2922V19.3277ZM54.3241 19.5464C54.6593 19.4917 54.9944 19.4097 55.2738 19.3277C55.581 19.2457 55.8324 19.1364 56.1117 19.0543L56.1396 16.6213C55.7206 16.84 55.2738 16.9767 54.7989 17.086C54.3241 17.1954 53.8493 17.2501 53.3745 17.2501C52.6763 17.2501 52.0618 17.1134 51.587 16.8673C51.1122 16.6213 50.7491 16.2659 50.5256 15.8012C50.3022 15.3638 50.1905 14.8443 50.1905 14.2976C50.1905 13.7508 50.3022 13.2588 50.5256 12.794C50.7491 12.3566 51.1122 12.0012 51.587 11.7278C52.0618 11.4545 52.6483 11.3451 53.3186 11.3451C53.8493 11.3451 54.3241 11.3998 54.7989 11.5091C55.2738 11.6185 55.6927 11.7825 56.1117 11.9739L56.0837 9.45882C55.7765 9.34947 55.4972 9.24012 55.2179 9.18544C54.9386 9.10343 54.6314 9.04876 54.2683 9.02142C53.9331 8.96674 53.57 8.93941 53.179 8.93941C52.0059 8.93941 51.0004 9.18544 50.1346 9.65018C49.2688 10.1149 48.5984 10.771 48.1236 11.5638C47.6488 12.384 47.4254 13.2861 47.4254 14.3249C47.4254 15.3364 47.6768 16.2659 48.1516 17.0587C48.6264 17.8515 49.2967 18.4802 50.1625 18.9177C51.0284 19.3551 52.0339 19.6011 53.179 19.6011C53.5979 19.6284 53.989 19.6011 54.3241 19.5464ZM61.1112 19.3277V14.6256C61.1112 13.9422 61.2229 13.3408 61.4463 12.8214C61.6698 12.3019 61.977 11.8645 62.3959 11.5912C62.8149 11.2904 63.2618 11.1538 63.7924 11.1538C64.4069 11.1538 64.8538 11.3178 65.161 11.6458C65.4683 11.9739 65.6358 12.466 65.6358 13.0947V19.3551H68.2613V13.0674C68.2613 11.7552 67.954 10.771 67.3116 10.0602C66.6693 9.34947 65.8314 8.99408 64.7421 8.99408C63.8204 8.99408 63.0383 9.26746 62.4518 9.75954C61.8373 10.279 61.3905 10.9897 61.1112 11.8645V5.44019H58.5136V19.3277H61.1112ZM76.752 19.3277C78.2603 19.3277 79.5451 19.0543 80.6064 18.4802C81.6677 17.9062 82.4777 17.1134 83.0363 16.0745C83.5949 15.0357 83.8742 13.8055 83.8742 12.4113C83.8742 11.0171 83.5949 9.78687 83.0363 8.74804C82.4777 7.70921 81.6677 6.88908 80.6064 6.31499C79.5451 5.7409 78.2603 5.46752 76.752 5.46752H71.3057V19.3551H76.752V19.3277ZM74.0149 16.9767V7.79122H76.7241C78.0927 7.79122 79.154 8.20129 79.9081 8.99408C80.6902 9.81421 81.0533 10.9351 81.0533 12.384C81.0533 13.8328 80.6623 14.981 79.9081 15.7738C79.1261 16.5666 78.0648 16.9767 76.7241 16.9767H74.0149ZM90.745 18.8903C91.3316 18.4529 91.7785 17.8788 92.0857 17.168V19.3277H94.6832V12.63C94.6832 11.9192 94.5156 11.2631 94.1525 10.7164C93.7894 10.1696 93.2588 9.7322 92.5884 9.43148C91.9181 9.13077 91.1081 8.96674 90.1864 8.96674C89.6837 8.96674 89.1809 9.02142 88.7061 9.10343C88.2313 9.18544 87.7844 9.32213 87.3655 9.48616C86.9465 9.65019 86.5555 9.84155 86.2204 10.0602L86.3041 12.4386C86.9465 12.0286 87.561 11.7278 88.1755 11.5091C88.7899 11.2904 89.4603 11.1811 90.2144 11.1811C90.8009 11.1811 91.2757 11.3178 91.6109 11.5912C91.946 11.8645 92.1136 12.2199 92.1136 12.6573V13.3408H89.8233C88.4268 13.3408 87.3376 13.6141 86.5276 14.1882C85.7176 14.7623 85.3266 15.5551 85.3266 16.5666C85.3266 17.1407 85.4662 17.6328 85.7176 18.0975C85.9969 18.5623 86.36 18.9177 86.8627 19.1637C87.3655 19.4371 87.952 19.5464 88.5944 19.5464C89.4603 19.5464 90.1585 19.3277 90.745 18.8903ZM88.3989 17.168C88.1196 16.9493 87.952 16.6486 87.952 16.2659C87.952 15.8012 88.1475 15.4458 88.5665 15.1997C88.9575 14.9537 89.572 14.817 90.354 14.817H92.0298V15.1997C92.0298 15.5278 91.946 15.8558 91.7505 16.2112C91.555 16.5666 91.2757 16.8673 90.8847 17.1134C90.4937 17.3594 90.0747 17.4688 89.572 17.4688C89.0972 17.4961 88.7061 17.3867 88.3989 17.168ZM99.9899 19.3277V15.0357C99.9899 13.9149 100.241 13.0674 100.716 12.4933C101.191 11.9192 101.861 11.6185 102.671 11.6185C103.062 11.6185 103.425 11.6732 103.76 11.7825V9.2948C103.593 9.24012 103.425 9.21278 103.258 9.18544C103.09 9.15811 102.895 9.15811 102.699 9.15811C102.057 9.15811 101.498 9.37681 101.051 9.81421C100.604 10.2516 100.241 10.8804 100.018 11.6458V9.24012H97.3924V19.3004H99.9899V19.3277ZM108.062 19.3277V16.0745L109.011 15.1997L112.084 19.3277H115.212L110.827 13.4501L115.128 9.26746H111.832L108.09 12.8214V5.44019H105.492V19.3277H108.062ZM119.429 19.3277V5.44019H116.804V19.3277H119.429ZM123.451 23.073C124.429 23.073 125.211 22.8816 125.825 22.4989C126.44 22.1162 126.943 21.4327 127.361 20.4759L132.082 9.26746H129.372L126.607 16.2932L123.758 9.26746H121.049L125.267 19.3004L125.043 19.8198C124.904 20.1478 124.736 20.4212 124.485 20.5579C124.261 20.7219 123.898 20.8039 123.423 20.8039H121.245V23.073H123.451Z" fill="white"/>
<path d="M9.80348 19.3277V16.9767H2.70922V5.44019H0V19.3277H9.80348ZM16.6184 18.8903C17.205 18.4529 17.6519 17.8788 17.9591 17.168V19.3277H20.5566V12.63C20.5566 11.9192 20.389 11.2631 20.0259 10.7164C19.6628 10.1696 19.1321 9.7322 18.4618 9.43148C17.7915 9.13077 16.9815 8.96674 16.0598 8.96674C15.5571 8.96674 15.0543 9.02142 14.5795 9.10343C14.1047 9.18544 13.6578 9.32213 13.2389 9.48616C12.8199 9.65019 12.4289 9.84155 12.0938 10.0602L12.1775 12.4386C12.8199 12.0286 13.4344 11.7278 14.0489 11.5091C14.6633 11.2904 15.3336 11.1811 16.0878 11.1811C16.6743 11.1811 17.1491 11.3178 17.4843 11.5912C17.8194 11.8645 17.987 12.2199 17.987 12.6573V13.3408H15.6409C14.2444 13.3408 13.1551 13.6141 12.3451 14.1882C11.5351 14.7623 11.1441 15.5551 11.1441 16.5666C11.1441 17.1407 11.2838 17.6328 11.5351 18.0975C11.8145 18.5623 12.1775 18.9177 12.6803 19.1637C13.183 19.4371 13.7696 19.5464 14.412 19.5464C15.3057 19.5464 16.0319 19.3277 16.6184 18.8903ZM14.2723 17.168C13.993 16.9493 13.8254 16.6486 13.8254 16.2659C13.8254 15.8012 14.0209 15.4458 14.4399 15.1997C14.8309 14.9537 15.4454 14.817 16.2274 14.817H17.9032V15.1997C17.9032 15.5278 17.8194 15.8558 17.6239 16.2112C17.4284 16.5666 17.1491 16.8673 16.7581 17.1134C16.3671 17.3594 15.9202 17.4961 15.4174 17.4961C14.9426 17.4961 14.5516 17.3867 14.2723 17.168ZM28.8239 18.863C29.4384 18.3436 29.8853 17.6328 30.1646 16.758V19.3277H32.79V9.26746H30.1646V13.9695C30.1646 14.653 30.0528 15.2544 29.8294 15.7738C29.606 16.2932 29.2987 16.7306 28.8798 17.004C28.4608 17.3047 27.986 17.4414 27.4553 17.4414C26.8688 17.4414 26.4219 17.2774 26.0868 16.9493C25.7795 16.6213 25.6119 16.1292 25.6119 15.5004V9.26746H22.9865V15.5551C22.9865 16.8673 23.2937 17.8515 23.9361 18.5623C24.5785 19.273 25.4164 19.6284 26.5057 19.6284C27.4553 19.6284 28.2094 19.3824 28.8239 18.863ZM38.2922 19.3277V14.6256C38.2922 13.9422 38.4039 13.3408 38.6274 12.8214C38.8508 12.3019 39.1581 11.8645 39.5491 11.5912C39.9401 11.2904 40.4149 11.1538 40.9456 11.1538C41.5321 11.1538 41.979 11.3178 42.3142 11.6458C42.6214 11.9739 42.789 12.466 42.789 13.0947V19.3551H45.4423V13.0674C45.4423 11.7552 45.1351 10.771 44.4927 10.0602C43.8503 9.34947 43.0124 8.99408 41.9231 8.99408C41.0015 8.99408 40.2473 9.26746 39.6329 9.75954C39.0463 10.279 38.5995 10.9897 38.2922 11.8645V9.2948H35.6668V19.3551H38.2922V19.3277ZM54.3241 19.5464C54.6593 19.4917 54.9944 19.4097 55.2738 19.3277C55.581 19.2457 55.8324 19.1364 56.1117 19.0543L56.1396 16.6213C55.7206 16.84 55.2738 16.9767 54.7989 17.086C54.3241 17.1954 53.8493 17.2501 53.3745 17.2501C52.6763 17.2501 52.0618 17.1134 51.587 16.8673C51.1122 16.6213 50.7491 16.2659 50.5256 15.8012C50.3022 15.3638 50.1905 14.8443 50.1905 14.2976C50.1905 13.7508 50.3022 13.2588 50.5256 12.794C50.7491 12.3566 51.1122 12.0012 51.587 11.7278C52.0618 11.4545 52.6483 11.3451 53.3186 11.3451C53.8493 11.3451 54.3241 11.3998 54.7989 11.5091C55.2738 11.6185 55.6927 11.7825 56.1117 11.9739L56.0837 9.45882C55.7765 9.34947 55.4972 9.24012 55.2179 9.18544C54.9386 9.10343 54.6314 9.04876 54.2683 9.02142C53.9331 8.96674 53.57 8.93941 53.179 8.93941C52.0059 8.93941 51.0004 9.18544 50.1346 9.65018C49.2688 10.1149 48.5984 10.771 48.1236 11.5638C47.6488 12.384 47.4254 13.2861 47.4254 14.3249C47.4254 15.3364 47.6768 16.2659 48.1516 17.0587C48.6264 17.8515 49.2967 18.4802 50.1625 18.9177C51.0284 19.3551 52.0339 19.6011 53.179 19.6011C53.5979 19.6284 53.989 19.6011 54.3241 19.5464ZM61.1112 19.3277V14.6256C61.1112 13.9422 61.2229 13.3408 61.4463 12.8214C61.6698 12.3019 61.977 11.8645 62.3959 11.5912C62.8149 11.2904 63.2618 11.1538 63.7924 11.1538C64.4069 11.1538 64.8538 11.3178 65.161 11.6458C65.4683 11.9739 65.6358 12.466 65.6358 13.0947V19.3551H68.2613V13.0674C68.2613 11.7552 67.954 10.771 67.3116 10.0602C66.6693 9.34947 65.8314 8.99408 64.7421 8.99408C63.8204 8.99408 63.0383 9.26746 62.4518 9.75954C61.8373 10.279 61.3905 10.9897 61.1112 11.8645V5.44019H58.5136V19.3277H61.1112ZM76.752 19.3277C78.2603 19.3277 79.5451 19.0543 80.6064 18.4802C81.6677 17.9062 82.4777 17.1134 83.0363 16.0745C83.5949 15.0357 83.8742 13.8055 83.8742 12.4113C83.8742 11.0171 83.5949 9.78687 83.0363 8.74804C82.4777 7.70921 81.6677 6.88908 80.6064 6.31499C79.5451 5.7409 78.2603 5.46752 76.752 5.46752H71.3057V19.3551H76.752V19.3277ZM74.0149 16.9767V7.79122H76.7241C78.0927 7.79122 79.154 8.20129 79.9081 8.99408C80.6902 9.81421 81.0533 10.9351 81.0533 12.384C81.0533 13.8328 80.6623 14.981 79.9081 15.7738C79.1261 16.5666 78.0648 16.9767 76.7241 16.9767H74.0149ZM90.745 18.8903C91.3316 18.4529 91.7785 17.8788 92.0857 17.168V19.3277H94.6832V12.63C94.6832 11.9192 94.5156 11.2631 94.1525 10.7164C93.7894 10.1696 93.2588 9.7322 92.5884 9.43148C91.9181 9.13077 91.1081 8.96674 90.1864 8.96674C89.6837 8.96674 89.1809 9.02142 88.7061 9.10343C88.2313 9.18544 87.7844 9.32213 87.3655 9.48616C86.9465 9.65019 86.5555 9.84155 86.2204 10.0602L86.3041 12.4386C86.9465 12.0286 87.561 11.7278 88.1755 11.5091C88.7899 11.2904 89.4603 11.1811 90.2144 11.1811C90.8009 11.1811 91.2757 11.3178 91.6109 11.5912C91.946 11.8645 92.1136 12.2199 92.1136 12.6573V13.3408H89.8233C88.4268 13.3408 87.3376 13.6141 86.5276 14.1882C85.7176 14.7623 85.3266 15.5551 85.3266 16.5666C85.3266 17.1407 85.4662 17.6328 85.7176 18.0975C85.9969 18.5623 86.36 18.9177 86.8627 19.1637C87.3655 19.4371 87.952 19.5464 88.5944 19.5464C89.4603 19.5464 90.1585 19.3277 90.745 18.8903ZM88.3989 17.168C88.1196 16.9493 87.952 16.6486 87.952 16.2659C87.952 15.8012 88.1475 15.4458 88.5665 15.1997C88.9575 14.9537 89.572 14.817 90.354 14.817H92.0298V15.1997C92.0298 15.5278 91.946 15.8558 91.7505 16.2112C91.555 16.5666 91.2757 16.8673 90.8847 17.1134C90.4937 17.3594 90.0747 17.4688 89.572 17.4688C89.0972 17.4961 88.7061 17.3867 88.3989 17.168ZM99.9899 19.3277V15.0357C99.9899 13.9149 100.241 13.0674 100.716 12.4933C101.191 11.9192 101.861 11.6185 102.671 11.6185C103.062 11.6185 103.425 11.6732 103.76 11.7825V9.2948C103.593 9.24012 103.425 9.21278 103.258 9.18544C103.09 9.15811 102.895 9.15811 102.699 9.15811C102.057 9.15811 101.498 9.37681 101.051 9.81421C100.604 10.2516 100.241 10.8804 100.018 11.6458V9.24012H97.3924V19.3004H99.9899V19.3277ZM108.062 19.3277V16.0745L109.011 15.1997L112.084 19.3277H115.212L110.827 13.4501L115.128 9.26746H111.832L108.09 12.8214V5.44019H105.492V19.3277H108.062ZM119.429 19.3277V5.44019H116.804V19.3277H119.429ZM123.451 23.073C124.429 23.073 125.211 22.8816 125.825 22.4989C126.44 22.1162 126.943 21.4327 127.361 20.4759L132.082 9.26746H129.372L126.607 16.2932L123.758 9.26746H121.049L125.267 19.3004L125.043 19.8198C124.904 20.1478 124.736 20.4212 124.485 20.5579C124.261 20.7219 123.898 20.8039 123.423 20.8039H121.245V23.073H123.451Z" fill="url(#paint0_linear_2000_2587)"/>
<path d="M151.409 24.7679C151.214 24.7679 151.018 24.6586 150.906 24.4672C150.823 24.2758 150.823 24.0845 150.962 23.9205L156.911 15.9105L146.493 20.0658C146.41 20.0932 146.354 20.1205 146.27 20.1205C146.019 20.1205 145.795 19.9565 145.739 19.7378C145.656 19.5191 145.767 19.2731 145.963 19.1364L155.124 13.8602L139.008 12.9581C138.673 12.9307 138.478 12.6847 138.478 12.4113C138.478 12.1653 138.645 11.8919 139.008 11.8646L155.124 10.9624L145.963 5.68624C145.767 5.54955 145.656 5.30351 145.739 5.08481C145.823 4.86611 146.019 4.70208 146.27 4.70208C146.354 4.70208 146.41 4.72942 146.493 4.75676L156.911 8.91208L150.962 0.874811C150.851 0.710785 150.823 0.492084 150.906 0.328058C150.99 0.136694 151.186 0.0273438 151.409 0.0273438C151.549 0.0273438 151.689 0.0820191 151.8 0.19137L163.643 11.7552C163.81 11.9192 163.894 12.1653 163.894 12.384C163.894 12.6027 163.81 12.8214 163.643 13.0127L151.8 24.6039C151.689 24.7132 151.549 24.7679 151.409 24.7679Z" fill="white"/>
<path d="M151.409 24.7679C151.214 24.7679 151.018 24.6586 150.906 24.4672C150.823 24.2758 150.823 24.0845 150.962 23.9205L156.911 15.9105L146.493 20.0658C146.41 20.0932 146.354 20.1205 146.27 20.1205C146.019 20.1205 145.795 19.9565 145.739 19.7378C145.656 19.5191 145.767 19.2731 145.963 19.1364L155.124 13.8602L139.008 12.9581C138.673 12.9307 138.478 12.6847 138.478 12.4113C138.478 12.1653 138.645 11.8919 139.008 11.8646L155.124 10.9624L145.963 5.68624C145.767 5.54955 145.656 5.30351 145.739 5.08481C145.823 4.86611 146.019 4.70208 146.27 4.70208C146.354 4.70208 146.41 4.72942 146.493 4.75676L156.911 8.91208L150.962 0.874811C150.851 0.710785 150.823 0.492084 150.906 0.328058C150.99 0.136694 151.186 0.0273438 151.409 0.0273438C151.549 0.0273438 151.689 0.0820191 151.8 0.19137L163.643 11.7552C163.81 11.9192 163.894 12.1653 163.894 12.384C163.894 12.6027 163.81 12.8214 163.643 13.0127L151.8 24.6039C151.689 24.7132 151.549 24.7679 151.409 24.7679Z" fill="url(#paint1_linear_2000_2587)"/>
</g>
<defs>
<linearGradient id="paint0_linear_2000_2587" x1="66.0408" y1="5.44019" x2="66.0408" y2="23.073" gradientUnits="userSpaceOnUse">
<stop stop-color="white"/>
<stop offset="1" stop-color="white" stop-opacity="0"/>
</linearGradient>
<linearGradient id="paint1_linear_2000_2587" x1="151.186" y1="0.0273437" x2="151.186" y2="24.7679" gradientUnits="userSpaceOnUse">
<stop stop-color="white"/>
<stop offset="1" stop-color="white" stop-opacity="0"/>
</linearGradient>
<clipPath id="clip0_2000_2587">
<rect width="163.922" height="24.7679" fill="white"/>
</clipPath>
</defs>
</svg>
