<svg width="188" height="29" viewBox="0 0 188 29" fill="none" xmlns="http://www.w3.org/2000/svg">
<g clip-path="url(#clip0_2092_4539)">
<path d="M11.2435 22.1667V19.4703H3.10717V6.23926H0V22.1667H11.2435ZM19.0595 21.665C19.7322 21.1634 20.2447 20.505 20.597 19.6898V22.1667H23.5761V14.4851C23.5761 13.67 23.3839 12.9175 22.9675 12.2904C22.551 11.6634 21.9424 11.1617 21.1736 10.8168C20.4048 10.4719 19.4759 10.2838 18.4188 10.2838C17.8422 10.2838 17.2656 10.3465 16.7211 10.4406C16.1765 10.5346 15.664 10.6914 15.1835 10.8795C14.703 11.0677 14.2546 11.2871 13.8702 11.5379L13.9663 14.2657C14.703 13.7954 15.4077 13.4505 16.1125 13.1997C16.8172 12.9488 17.586 12.8234 18.4508 12.8234C19.1235 12.8234 19.6681 12.9802 20.0525 13.2937C20.4369 13.6073 20.6291 14.0149 20.6291 14.5165V15.3003H17.9383C16.3367 15.3003 15.0874 15.6139 14.1585 16.2723C13.2295 16.9307 12.7811 17.8399 12.7811 19C12.7811 19.6584 12.9412 20.2228 13.2295 20.7558C13.5498 21.2888 13.9663 21.6964 14.5429 21.9786C15.1194 22.2921 15.7921 22.4175 16.5289 22.4175C17.5539 22.4175 18.3868 22.1667 19.0595 21.665ZM16.3687 19.6898C16.0484 19.439 15.8562 19.0941 15.8562 18.6551C15.8562 18.1221 16.0804 17.7145 16.5609 17.4323C17.0094 17.1502 17.7141 16.9934 18.611 16.9934H20.533V17.4323C20.533 17.8086 20.4369 18.1848 20.2126 18.5924C19.9884 19 19.6681 19.3449 19.2196 19.6271C18.7712 19.9093 18.2586 20.066 17.6821 20.066C17.1375 20.066 16.689 19.9406 16.3687 19.6898ZM33.0578 21.6337C33.7625 21.038 34.275 20.2228 34.5953 19.2195V22.1667H37.6064V10.6287H34.5953V16.0215C34.5953 16.8053 34.4672 17.4951 34.2109 18.0908C33.9547 18.6865 33.6023 19.1881 33.1218 19.5017C32.6413 19.8465 32.0968 20.0033 31.4882 20.0033C30.8155 20.0033 30.3029 19.8152 29.9186 19.439C29.5662 19.0627 29.374 18.4984 29.374 17.7772V10.6287H26.3629V17.8399C26.3629 19.3449 26.7153 20.4736 27.452 21.2888C28.1888 22.104 29.1498 22.5116 30.399 22.5116C31.4882 22.5116 32.353 22.2294 33.0578 21.6337ZM43.9169 22.1667V16.7739C43.9169 15.9901 44.045 15.3003 44.3012 14.7046C44.5575 14.1089 44.9099 13.6073 45.3583 13.2937C45.8068 12.9488 46.3513 12.7921 46.96 12.7921C47.6326 12.7921 48.1452 12.9802 48.5296 13.3564C48.8819 13.7327 49.0741 14.297 49.0741 15.0182V22.198H52.1172V14.9868C52.1172 13.4818 51.7649 12.3531 51.0281 11.5379C50.2914 10.7228 49.3304 10.3152 48.0811 10.3152C47.024 10.3152 46.1591 10.6287 45.4544 11.1931C44.7817 11.7888 44.2692 12.604 43.9169 13.6073V10.6601H40.9058V22.198H43.9169V22.1667ZM62.3036 22.4175C62.688 22.3548 63.0724 22.2607 63.3927 22.1667C63.7451 22.0726 64.0334 21.9472 64.3537 21.8531L64.3858 19.0627C63.9053 19.3135 63.3927 19.4703 62.8482 19.5957C62.3036 19.7211 61.7591 19.7838 61.2145 19.7838C60.4137 19.7838 59.709 19.6271 59.1644 19.3449C58.6199 19.0627 58.2034 18.6551 57.9472 18.1221C57.6909 17.6205 57.5628 17.0248 57.5628 16.3977C57.5628 15.7706 57.6909 15.2063 57.9472 14.6733C58.2034 14.1716 58.6199 13.764 59.1644 13.4505C59.709 13.137 60.3817 13.0115 61.1504 13.0115C61.7591 13.0115 62.3036 13.0743 62.8482 13.1997C63.3927 13.3251 63.8732 13.5132 64.3537 13.7327L64.3217 10.8482C63.9693 10.7228 63.649 10.5974 63.3287 10.5346C63.0083 10.4406 62.656 10.3779 62.2396 10.3465C61.8552 10.2838 61.4387 10.2525 60.9903 10.2525C59.6449 10.2525 58.4917 10.5346 57.4987 11.0677C56.5057 11.6007 55.7369 12.3531 55.1924 13.2624C54.6478 14.203 54.3915 15.2376 54.3915 16.429C54.3915 17.5891 54.6798 18.6551 55.2244 19.5644C55.769 20.4736 56.5377 21.1947 57.5308 21.6964C58.5238 22.198 59.6769 22.4802 60.9903 22.4802C61.4708 22.5116 61.9192 22.4802 62.3036 22.4175ZM70.0876 22.1667V16.7739C70.0876 15.9901 70.2157 15.3003 70.472 14.7046C70.7282 14.1089 71.0806 13.6073 71.5611 13.2937C72.0416 12.9488 72.5541 12.7921 73.1627 12.7921C73.8674 12.7921 74.38 12.9802 74.7323 13.3564C75.0847 13.7327 75.2769 14.297 75.2769 15.0182V22.198H78.2879V14.9868C78.2879 13.4818 77.9356 12.3531 77.1988 11.5379C76.4621 10.7228 75.5011 10.3152 74.2518 10.3152C73.1947 10.3152 72.2978 10.6287 71.6252 11.1931C70.9204 11.7888 70.4079 12.604 70.0876 13.6073V6.23926H67.1085V22.1667H70.0876ZM88.0259 22.1667C89.7557 22.1667 91.2292 21.8532 92.4464 21.1947C93.6637 20.5363 94.5926 19.6271 95.2333 18.4357C95.8739 17.2442 96.1942 15.8333 96.1942 14.2343C96.1942 12.6353 95.8739 11.2244 95.2333 10.033C94.5926 8.84157 93.6637 7.90098 92.4464 7.24256C91.2292 6.58414 89.7557 6.27061 88.0259 6.27061H81.7795V22.198H88.0259V22.1667ZM84.8867 19.4703V8.93563H87.9939C89.5635 8.93563 90.7807 9.40593 91.6456 10.3152C92.5425 11.2558 92.9589 12.5413 92.9589 14.203C92.9589 15.8647 92.5105 17.1815 91.6456 18.0908C90.7487 19 89.5314 19.4703 87.9939 19.4703H84.8867ZM104.074 21.665C104.747 21.1634 105.259 20.505 105.612 19.6898V22.1667H108.591V14.4851C108.591 13.67 108.399 12.9175 107.982 12.2904C107.566 11.6634 106.957 11.1617 106.188 10.8168C105.42 10.4719 104.491 10.2838 103.434 10.2838C102.857 10.2838 102.28 10.3465 101.736 10.4406C101.191 10.5346 100.679 10.6914 100.198 10.8795C99.7178 11.0677 99.2694 11.2871 98.885 11.5379L98.9811 14.2657C99.7178 13.7954 100.423 13.4505 101.127 13.1997C101.832 12.9488 102.601 12.8234 103.466 12.8234C104.138 12.8234 104.683 12.9802 105.067 13.2937C105.452 13.6073 105.644 14.0149 105.644 14.5165V15.3003H103.017C101.416 15.3003 100.166 15.6139 99.2373 16.2723C98.3084 16.9307 97.8599 17.8399 97.8599 19C97.8599 19.6584 98.0201 20.2228 98.3084 20.7558C98.6287 21.2888 99.0452 21.6964 99.6217 21.9786C100.198 22.2921 100.871 22.4175 101.608 22.4175C102.601 22.4175 103.402 22.1667 104.074 21.665ZM101.384 19.6898C101.063 19.439 100.871 19.0941 100.871 18.6551C100.871 18.1221 101.095 17.7145 101.576 17.4323C102.024 17.1502 102.729 16.9934 103.626 16.9934H105.548V17.4323C105.548 17.8086 105.452 18.1848 105.227 18.5924C105.003 19 104.683 19.3449 104.234 19.6271C103.786 19.9093 103.306 20.0347 102.729 20.0347C102.184 20.066 101.736 19.9406 101.384 19.6898ZM114.677 22.1667V17.2442C114.677 15.9587 114.965 14.9868 115.51 14.3284C116.055 13.67 116.823 13.3251 117.752 13.3251C118.201 13.3251 118.617 13.3878 119.002 13.5132V10.6601C118.809 10.5974 118.617 10.566 118.425 10.5346C118.233 10.5033 118.009 10.5033 117.784 10.5033C117.048 10.5033 116.407 10.7541 115.894 11.2558C115.382 11.7574 114.965 12.4785 114.709 13.3564V10.5974H111.698V22.1353H114.677V22.1667ZM123.935 22.1667V18.4357L125.024 17.4323L128.547 22.1667H132.135L127.106 15.4257L132.039 10.6287H128.259L123.967 14.7046V6.23926H120.988V22.1667H123.935ZM136.972 22.1667V6.23926H133.961V22.1667H136.972ZM141.585 26.4621C142.706 26.4621 143.603 26.2426 144.307 25.8037C145.012 25.3647 145.589 24.5809 146.069 23.4835L151.483 10.6287H148.376L145.204 18.6865L141.937 10.6287H138.83L143.667 22.1353L143.41 22.731C143.25 23.1073 143.058 23.4208 142.77 23.5776C142.514 23.7657 142.097 23.8598 141.553 23.8598H139.054V26.4621H141.585Z" fill="#191919"/>
<path d="M173.649 28.406C173.425 28.406 173.201 28.2806 173.073 28.0611C172.977 27.8417 172.977 27.6222 173.137 27.4341L179.96 18.2476L168.012 23.0133C167.915 23.0446 167.851 23.076 167.755 23.076C167.467 23.076 167.211 22.8879 167.147 22.637C167.051 22.3862 167.179 22.104 167.403 21.9473L177.91 15.8961L159.427 14.8614C159.042 14.8301 158.818 14.5479 158.818 14.2344C158.818 13.9522 159.01 13.6387 159.427 13.6073L177.91 12.5727L167.403 6.52148C167.179 6.36472 167.051 6.08254 167.147 5.83171C167.243 5.58089 167.467 5.39277 167.755 5.39277C167.851 5.39277 167.915 5.42412 168.012 5.45548L179.96 10.2212L173.137 1.00332C173.009 0.815202 172.977 0.564376 173.073 0.376257C173.169 0.156785 173.393 0.0313721 173.649 0.0313721C173.809 0.0313721 173.97 0.0940785 174.098 0.219491L187.68 13.4819C187.872 13.67 187.968 13.9522 187.968 14.203C187.968 14.4538 187.872 14.7047 187.68 14.9241L174.098 28.2179C173.97 28.3433 173.809 28.406 173.649 28.406Z" fill="#191919"/>
</g>
<defs>
<clipPath id="clip0_2092_4539">
<rect width="188" height="28.406" fill="white"/>
</clipPath>
</defs>
</svg>
