<svg width="285" height="41" viewBox="0 0 285 41" fill="none" xmlns="http://www.w3.org/2000/svg">
<path d="M55.0979 28.9088V14.4216H60.4449C63.5118 14.4216 65.1461 15.7734 65.1461 18.1947C65.1461 20.051 64.0162 20.9792 62.9065 21.3625C64.5408 21.8064 65.6304 23.0776 65.6304 24.9137C65.6304 27.4358 63.7943 28.9088 60.8686 28.9088H55.0979ZM56.9744 20.6361H60.2834C62.2204 20.6361 63.2898 19.8896 63.2898 18.3561C63.2898 16.8025 62.2204 16.0559 60.2834 16.0559H56.9744V20.6361ZM56.9744 22.2907V27.2744H60.7879C62.7249 27.2744 63.7741 26.2656 63.7741 24.7725C63.7741 23.2995 62.7249 22.2907 60.7879 22.2907H56.9744ZM76.2773 18.3561V28.9088H74.4614V27.456C73.856 28.3438 72.827 29.1307 71.3339 29.1307C69.0741 29.1307 67.8029 27.5771 67.8029 25.3374V18.3561H69.6188V24.9541C69.6188 26.4472 70.2645 27.456 71.8182 27.456C73.1297 27.456 74.4614 26.4673 74.4614 24.7119V18.3561H76.2773ZM84.7609 18.3158V20.1519C84.4582 20.0914 84.2161 20.0712 83.8731 20.0712C82.3396 20.0712 81.1088 21.2818 81.1088 23.1381V28.9088H79.2928V18.3561H81.1088V20.1519C81.5729 19.0825 82.6019 18.2754 84.0345 18.2754C84.317 18.2754 84.5793 18.2956 84.7609 18.3158ZM90.5443 29.1307C87.6186 29.1307 85.6009 26.8911 85.6009 23.6425C85.6009 20.4949 87.5984 18.1544 90.4636 18.1544C93.4095 18.1544 94.9631 20.394 94.9631 23.3197V23.925H87.3361C87.437 26.1445 88.7082 27.5569 90.5443 27.5569C91.9567 27.5569 92.9656 26.7902 93.2884 25.5392L94.8824 26.1042C94.2367 27.9806 92.6427 29.1307 90.5443 29.1307ZM90.4434 19.708C88.9099 19.708 87.7598 20.737 87.437 22.5328H93.127C93.0866 21.0397 92.2795 19.708 90.4434 19.708ZM99.9852 29.0904C98.0683 29.0904 96.5147 27.9605 96.5147 26.0638C96.5147 23.9654 98.149 23.0978 100.51 22.6135L103.072 22.0889V21.645C103.072 20.4344 102.406 19.7483 100.994 19.7483C99.6623 19.7483 98.8754 20.3738 98.5526 21.5441L96.8375 21.1002C97.342 19.3852 98.8956 18.1544 101.055 18.1544C103.415 18.1544 104.868 19.3045 104.868 21.5643V26.7095C104.868 27.3955 105.292 27.6174 105.998 27.456V28.9088C104.384 29.1106 103.456 28.7272 103.234 27.7183C102.588 28.5456 101.418 29.0904 99.9852 29.0904ZM103.072 25.3172V23.5013L101.014 23.9452C99.4 24.268 98.3105 24.7119 98.3105 25.9831C98.3105 27.0121 99.057 27.6174 100.207 27.6174C101.761 27.6174 103.072 26.6691 103.072 25.3172ZM116.336 18.3561V28.9088H114.52V27.456C113.915 28.3438 112.886 29.1307 111.393 29.1307C109.133 29.1307 107.862 27.5771 107.862 25.3374V18.3561H109.678V24.9541C109.678 26.4472 110.323 27.456 111.877 27.456C113.188 27.456 114.52 26.4673 114.52 24.7119V18.3561H116.336ZM132.687 23.6425C132.687 26.9112 130.67 29.1307 127.784 29.1307C124.899 29.1307 122.881 26.9112 122.881 23.6425C122.881 20.3738 124.899 18.1544 127.784 18.1544C130.67 18.1544 132.687 20.3738 132.687 23.6425ZM124.717 23.6425C124.717 26.0436 125.928 27.5771 127.784 27.5771C129.641 27.5771 130.851 26.0436 130.851 23.6425C130.851 21.2213 129.641 19.6878 127.784 19.6878C125.928 19.6878 124.717 21.2213 124.717 23.6425ZM139.597 14.24V15.8542C139.295 15.8138 139.113 15.8138 138.81 15.8138C137.741 15.8138 137.156 16.2779 137.156 17.6297V18.3561H139.496V19.9098H137.156V28.9088H135.34V19.9098H133.746V18.3561H135.34V17.5087C135.34 15.4506 136.47 14.1996 138.629 14.1996C138.992 14.1996 139.194 14.2198 139.597 14.24ZM148.446 23.7636V28.9088H145.077V14.4216H151.191C154.6 14.4216 156.719 16.0559 156.719 19.0825C156.719 21.2415 155.589 22.7346 153.652 23.4004L157.143 28.9088H153.289L150.141 23.7636H148.446ZM148.446 21.0195H151.009C152.603 21.0195 153.41 20.3133 153.41 19.143C153.41 17.9526 152.603 17.2666 151.009 17.2666H148.446V21.0195ZM158.296 17.1858V14.4216H161.584V17.1858H158.296ZM161.544 18.2754V28.9088H158.316V18.2754H161.544ZM162.687 27.3551L164.362 25.176C165.229 26.1243 166.601 26.6893 167.752 26.6893C168.599 26.6893 169.305 26.4068 169.305 25.8419C169.305 25.1357 168.599 25.0549 166.904 24.7523C165.149 24.4093 163.272 23.9452 163.272 21.645C163.272 19.486 165.189 18.0535 167.812 18.0535C169.729 18.0535 171.424 18.7798 172.312 19.7483L170.697 21.8266C169.89 20.9792 168.841 20.5151 167.792 20.5151C167.005 20.5151 166.501 20.8177 166.501 21.302C166.501 21.8871 167.126 21.9678 168.417 22.21C170.334 22.5933 172.473 23.0574 172.473 25.4585C172.473 27.7789 170.334 29.1307 167.631 29.1307C165.774 29.1307 163.676 28.5052 162.687 27.3551ZM177.15 14.4216V22.0889L180.54 18.2754H184.333L180.519 22.2705L184.636 28.9088H180.943L178.28 24.6312L177.15 25.8217V28.9088H173.922V14.4216H177.15ZM193.057 23.7636V28.9088H189.687V14.4216H195.801C199.211 14.4216 201.33 16.0559 201.33 19.0825C201.33 21.2415 200.2 22.7346 198.263 23.4004L201.753 28.9088H197.899L194.752 23.7636H193.057ZM193.057 21.0195H195.619C197.213 21.0195 198.021 20.3133 198.021 19.143C198.021 17.9526 197.213 17.2666 195.619 17.2666H193.057V21.0195ZM207.551 29.1307C204.343 29.1307 202.164 26.8911 202.164 23.582C202.164 20.4344 204.424 18.0535 207.491 18.0535C210.719 18.0535 212.474 20.4344 212.474 23.4408V24.2882H205.271C205.493 25.741 206.361 26.5682 207.591 26.5682C208.6 26.5682 209.387 26.084 209.69 25.1558L212.394 26.0234C211.607 28.0613 209.67 29.1307 207.551 29.1307ZM207.45 20.5554C206.461 20.5554 205.695 21.1406 205.372 22.3108H209.286C209.266 21.3625 208.641 20.5554 207.45 20.5554ZM217.996 29.1307C215.07 29.1307 213.415 26.6288 213.415 23.6022C213.415 20.5554 215.07 18.0535 217.996 18.0535C219.267 18.0535 220.276 18.5781 220.881 19.3448V14.4216H224.109V28.9088H220.881V27.8596C220.276 28.6061 219.267 29.1307 217.996 29.1307ZM220.901 23.3197C220.901 21.7055 220.033 20.8177 218.823 20.8177C217.41 20.8177 216.664 21.9678 216.664 23.6022C216.664 25.2365 217.41 26.3866 218.823 26.3866C220.033 26.3866 220.901 25.4787 220.901 23.8847V23.3197ZM235.882 18.2754V28.9088H232.653V27.8596C232.068 28.5254 231.12 29.1307 229.788 29.1307C227.609 29.1307 226.176 27.6376 226.176 25.3172V18.2754H229.405V24.5505C229.405 25.6199 229.869 26.3059 230.918 26.3059C231.806 26.3059 232.653 25.6804 232.653 24.4295V18.2754H235.882ZM240.583 23.6022C240.583 25.398 241.43 26.4673 242.782 26.4673C243.831 26.4673 244.457 25.7208 244.679 24.7119L247.484 25.8015C247.04 27.5771 245.365 29.1307 242.762 29.1307C239.614 29.1307 237.395 26.8709 237.395 23.6022C237.395 20.3133 239.614 18.0535 242.762 18.0535C245.345 18.0535 246.999 19.5869 247.463 21.3423L244.679 22.4723C244.457 21.4836 243.831 20.7169 242.782 20.7169C241.43 20.7169 240.583 21.7862 240.583 23.6022ZM249.141 26.0638V20.9388H247.789V18.2754H249.141V15.3295H252.329V18.2754H254.407V20.9388H252.329V25.2365C252.329 26.1243 252.793 26.2858 253.6 26.2858C253.984 26.2858 254.165 26.2656 254.529 26.2252V28.8684C253.964 28.9491 253.358 29.0097 252.592 29.0097C250.291 29.0097 249.141 28.2429 249.141 26.0638ZM256.048 17.1858V14.4216H259.337V17.1858H256.048ZM259.297 18.2754V28.9088H256.069V18.2754H259.297ZM271.477 23.6022C271.477 26.9112 269.278 29.1307 266.15 29.1307C263.002 29.1307 260.823 26.9112 260.823 23.6022C260.823 20.2931 263.002 18.0535 266.15 18.0535C269.278 18.0535 271.477 20.2931 271.477 23.6022ZM264.032 23.6022C264.032 25.4585 264.859 26.5077 266.15 26.5077C267.441 26.5077 268.269 25.4585 268.269 23.6022C268.269 21.7459 267.441 20.6967 266.15 20.6967C264.859 20.6967 264.032 21.7459 264.032 23.6022ZM272.995 28.9088V18.2754H276.223V19.3448C276.808 18.6588 277.797 18.0535 279.149 18.0535C281.328 18.0535 282.7 19.5668 282.7 21.8871V28.9088H279.471V22.8153C279.471 21.7459 279.028 20.959 277.978 20.959C277.091 20.959 276.223 21.5845 276.223 22.8355V28.9088H272.995Z" fill="white"/>
<path d="M23.7992 31.8869L29.167 20.6937L15.2259 25.9519L0.000213623 14.5693H16.7347L22.52 0.542969L27.1983 14.5693H44.2988L29.167 20.6937L35.8616 40.9088L23.7992 31.8869Z" fill="url(#paint0_linear_579_519)"/>
<defs>
<linearGradient id="paint0_linear_579_519" x1="53.4912" y1="-3.86697" x2="-11.2127" y2="40.1097" gradientUnits="userSpaceOnUse">
<stop offset="0.123144" stop-color="#405BFF"/>
<stop offset="1" stop-color="#3DD6F5"/>
</linearGradient>
</defs>
</svg>
