<svg width="754" height="73" viewBox="0 0 754 73" fill="none" xmlns="http://www.w3.org/2000/svg">
<path d="M82.9966 0H78.0034C78.0015 0 78 0.00135984 78 0.00303729V69.997C78 69.9986 78.0015 70 78.0034 70H82.9966C82.9985 70 83 69.9986 83 69.997V0.00303729C83 0.00135984 82.9985 0 82.9966 0Z" fill="black"/>
<g clip-path="url(#clip0_1611_352)">
<path d="M63 67.5H0V70.5H63V67.5Z" fill="#405BFF"/>
<path d="M62.25 39H52.806C51.9075 28.5 43.4295 20.0925 32.9355 19.3598C33.024 19.1588 33 18.774 33 18.5408V13.833C37.5 12.3 41.25 17.736 45 14.565C45 11.4908 45 8.41725 45 5.343C41.25 8.51475 37.05 3.07575 33.0038 4.61175C32.991 3.72 32.3978 3 31.503 3C30.6008 3 30 3.732 30 4.63425V18.5408C30 18.7733 29.9903 19.1573 30.078 19.3575C19.5713 20.0768 11.0933 28.5 10.194 39H0.75V65.25H62.25V39ZM14.25 59.0633C14.25 60.4478 13.0088 61.5698 11.625 61.5698C10.2405 61.5698 9 60.447 9 59.0633V46.8945C9 45.51 10.2413 44.388 11.625 44.388C13.0088 44.388 14.25 45.5108 14.25 46.8945V59.0633ZM27.75 59.0633C27.75 60.4478 26.5088 61.5698 25.125 61.5698C23.7405 61.5698 22.5 60.447 22.5 59.0633V46.8945C22.5 45.51 23.7413 44.388 25.125 44.388C26.5088 44.388 27.75 45.5108 27.75 46.8945V59.0633ZM40.5 59.0633C40.5 60.4478 39.2588 61.5698 37.875 61.5698C36.4913 61.5698 35.25 60.447 35.25 59.0633V46.8945C35.25 45.51 36.4913 44.388 37.875 44.388C39.2595 44.388 40.5 45.5108 40.5 46.8945V59.0633ZM54 59.0633C54 60.4478 52.7588 61.5698 51.375 61.5698C49.9913 61.5698 48.75 60.447 48.75 59.0633V46.8945C48.75 45.51 49.9913 44.388 51.375 44.388C52.7595 44.388 54 45.5108 54 46.8945V59.0633Z" fill="#405BFF"/>
</g>
<path d="M96.794 58V14.3636H112.774C115.871 14.3636 118.435 14.875 120.466 15.8977C122.497 16.9062 124.017 18.277 125.026 20.0099C126.034 21.7287 126.538 23.6676 126.538 25.8267C126.538 27.6449 126.205 29.179 125.537 30.429C124.869 31.6648 123.974 32.6591 122.852 33.4119C121.744 34.1506 120.523 34.6903 119.188 35.0312V35.4574C120.636 35.5284 122.05 35.9972 123.428 36.8636C124.82 37.7159 125.97 38.9304 126.879 40.5071C127.788 42.0838 128.243 44.0014 128.243 46.2599C128.243 48.4901 127.717 50.4929 126.666 52.2685C125.629 54.0298 124.024 55.429 121.851 56.4659C119.678 57.4886 116.901 58 113.52 58H96.794ZM103.378 52.3537H112.881C116.034 52.3537 118.293 51.7429 119.656 50.5213C121.02 49.2997 121.702 47.7727 121.702 45.9403C121.702 44.5625 121.354 43.2983 120.658 42.1477C119.962 40.9972 118.967 40.081 117.675 39.3991C116.396 38.7173 114.876 38.3764 113.115 38.3764H103.378V52.3537ZM103.378 33.2415H112.199C113.676 33.2415 115.004 32.9574 116.183 32.3892C117.376 31.821 118.321 31.0256 119.017 30.0028C119.727 28.9659 120.082 27.7443 120.082 26.3381C120.082 24.5341 119.45 23.0213 118.186 21.7997C116.922 20.5781 114.983 19.9673 112.369 19.9673H103.378V33.2415ZM153.272 44.4276V25.2727H159.664V58H153.4V52.3324H153.059C152.306 54.0795 151.099 55.5355 149.437 56.7003C147.789 57.8509 145.737 58.4261 143.279 58.4261C141.177 58.4261 139.316 57.9645 137.697 57.0412C136.092 56.1037 134.827 54.7188 133.904 52.8864C132.995 51.054 132.54 48.7884 132.54 46.0895V25.2727H138.911V45.3224C138.911 47.5526 139.529 49.3281 140.765 50.6491C142.001 51.9702 143.606 52.6307 145.58 52.6307C146.773 52.6307 147.96 52.3324 149.138 51.7358C150.332 51.1392 151.319 50.2372 152.1 49.0298C152.896 47.8224 153.286 46.2884 153.272 44.4276ZM165.224 58V25.2727H171.382V30.4716H171.723C172.319 28.7102 173.37 27.3253 174.876 26.3168C176.396 25.294 178.115 24.7827 180.032 24.7827C180.43 24.7827 180.899 24.7969 181.439 24.8253C181.993 24.8537 182.426 24.8892 182.738 24.9318V31.0256C182.483 30.9545 182.028 30.8764 181.375 30.7912C180.721 30.6918 180.068 30.642 179.414 30.642C177.909 30.642 176.566 30.9616 175.387 31.6009C174.223 32.2259 173.299 33.0994 172.618 34.2216C171.936 35.3295 171.595 36.5937 171.595 38.0142V58H165.224ZM198.185 58.6605C194.96 58.6605 192.183 57.9716 189.854 56.5938C187.538 55.2017 185.749 53.2486 184.484 50.7344C183.234 48.206 182.609 45.2443 182.609 41.8494C182.609 38.4972 183.234 35.5426 184.484 32.9858C185.749 30.429 187.51 28.4332 189.768 26.9986C192.041 25.5639 194.697 24.8466 197.737 24.8466C199.584 24.8466 201.374 25.152 203.107 25.7628C204.839 26.3736 206.395 27.3324 207.773 28.6392C209.151 29.946 210.237 31.6435 211.033 33.7315C211.828 35.8054 212.226 38.3267 212.226 41.2955V43.554H186.21V38.7812H205.983C205.983 37.1051 205.642 35.6207 204.96 34.3281C204.278 33.0213 203.32 31.9915 202.084 31.2386C200.862 30.4858 199.428 30.1094 197.78 30.1094C195.99 30.1094 194.428 30.5497 193.092 31.4304C191.771 32.2969 190.749 33.4332 190.024 34.8395C189.314 36.2315 188.959 37.7443 188.959 39.3778V43.1065C188.959 45.294 189.342 47.1548 190.109 48.6889C190.891 50.223 191.977 51.3949 193.369 52.2045C194.761 53 196.388 53.3977 198.249 53.3977C199.456 53.3977 200.557 53.2273 201.551 52.8864C202.545 52.5312 203.405 52.0057 204.129 51.3097C204.854 50.6136 205.408 49.7543 205.791 48.7315L211.821 49.8182C211.338 51.5937 210.472 53.1491 209.222 54.4844C207.986 55.8054 206.43 56.8352 204.555 57.5739C202.695 58.2983 200.571 58.6605 198.185 58.6605ZM225.819 58.7244C223.745 58.7244 221.87 58.3409 220.194 57.5739C218.517 56.7926 217.189 55.6634 216.209 54.1861C215.243 52.7088 214.76 50.8977 214.76 48.7528C214.76 46.9062 215.115 45.3864 215.826 44.1932C216.536 43 217.495 42.0554 218.702 41.3594C219.909 40.6634 221.259 40.1378 222.75 39.7827C224.242 39.4276 225.762 39.1577 227.31 38.973C229.27 38.7457 230.861 38.5611 232.083 38.419C233.304 38.2628 234.192 38.0142 234.746 37.6733C235.3 37.3324 235.577 36.7784 235.577 36.0114V35.8622C235.577 34.0014 235.051 32.5597 234 31.5369C232.963 30.5142 231.415 30.0028 229.355 30.0028C227.211 30.0028 225.52 30.4787 224.284 31.4304C223.063 32.3679 222.218 33.4119 221.749 34.5625L215.762 33.1989C216.472 31.2102 217.509 29.6051 218.873 28.3835C220.25 27.1477 221.834 26.2528 223.624 25.6989C225.414 25.1307 227.296 24.8466 229.27 24.8466C230.577 24.8466 231.962 25.0028 233.425 25.3153C234.902 25.6136 236.28 26.1676 237.559 26.9773C238.851 27.7869 239.909 28.9446 240.733 30.4503C241.557 31.9418 241.969 33.8807 241.969 36.267V58H235.748V53.5256H235.492C235.08 54.3494 234.462 55.1591 233.638 55.9545C232.814 56.75 231.756 57.4105 230.463 57.9361C229.171 58.4616 227.623 58.7244 225.819 58.7244ZM227.203 53.6108C228.965 53.6108 230.471 53.2628 231.721 52.5668C232.985 51.8707 233.944 50.9616 234.597 49.8395C235.265 48.7031 235.598 47.4886 235.598 46.196V41.9773C235.371 42.2045 234.931 42.4176 234.277 42.6165C233.638 42.8011 232.907 42.9645 232.083 43.1065C231.259 43.2344 230.456 43.3551 229.675 43.4688C228.894 43.5682 228.24 43.6534 227.715 43.7244C226.479 43.8807 225.35 44.1435 224.327 44.5128C223.319 44.8821 222.509 45.4148 221.898 46.1108C221.301 46.7926 221.003 47.7017 221.003 48.8381C221.003 50.4148 221.586 51.608 222.75 52.4176C223.915 53.2131 225.4 53.6108 227.203 53.6108ZM268.186 44.4276V25.2727H274.578V58H268.314V52.3324H267.973C267.22 54.0795 266.013 55.5355 264.351 56.7003C262.703 57.8509 260.651 58.4261 258.193 58.4261C256.091 58.4261 254.23 57.9645 252.611 57.0412C251.006 56.1037 249.741 54.7188 248.818 52.8864C247.909 51.054 247.455 48.7884 247.455 46.0895V25.2727H253.825V45.3224C253.825 47.5526 254.443 49.3281 255.679 50.6491C256.915 51.9702 258.52 52.6307 260.494 52.6307C261.688 52.6307 262.874 52.3324 264.053 51.7358C265.246 51.1392 266.233 50.2372 267.014 49.0298C267.81 47.8224 268.2 46.2884 268.186 44.4276ZM306.803 58.6605C303.734 58.6605 301.057 57.9574 298.77 56.5511C296.483 55.1449 294.707 53.1776 293.443 50.6491C292.179 48.1207 291.547 45.1662 291.547 41.7855C291.547 38.3906 292.179 35.4219 293.443 32.8793C294.707 30.3366 296.483 28.3622 298.77 26.956C301.057 25.5497 303.734 24.8466 306.803 24.8466C309.871 24.8466 312.548 25.5497 314.835 26.956C317.122 28.3622 318.898 30.3366 320.162 32.8793C321.426 35.4219 322.058 38.3906 322.058 41.7855C322.058 45.1662 321.426 48.1207 320.162 50.6491C318.898 53.1776 317.122 55.1449 314.835 56.5511C312.548 57.9574 309.871 58.6605 306.803 58.6605ZM306.824 53.3125C308.813 53.3125 310.46 52.7869 311.767 51.7358C313.074 50.6847 314.04 49.2855 314.665 47.5384C315.304 45.7912 315.624 43.8665 315.624 41.7642C315.624 39.6761 315.304 37.7585 314.665 36.0114C314.04 34.25 313.074 32.8366 311.767 31.7713C310.46 30.706 308.813 30.1733 306.824 30.1733C304.821 30.1733 303.159 30.706 301.838 31.7713C300.531 32.8366 299.558 34.25 298.919 36.0114C298.294 37.7585 297.982 39.6761 297.982 41.7642C297.982 43.8665 298.294 45.7912 298.919 47.5384C299.558 49.2855 300.531 50.6847 301.838 51.7358C303.159 52.7869 304.821 53.3125 306.824 53.3125ZM341.745 25.2727V30.3864H323.25V25.2727H341.745ZM328.321 58V21.4801C328.321 19.4347 328.769 17.7372 329.664 16.3878C330.559 15.0241 331.745 14.0085 333.222 13.3409C334.699 12.6591 336.304 12.3182 338.037 12.3182C339.316 12.3182 340.409 12.4247 341.319 12.6378C342.228 12.8366 342.902 13.0213 343.343 13.1918L341.851 18.348C341.553 18.2628 341.169 18.1634 340.701 18.0497C340.232 17.9219 339.664 17.858 338.996 17.858C337.448 17.858 336.34 18.2415 335.672 19.0085C335.019 19.7756 334.692 20.8835 334.692 22.3324V58H328.321Z" fill="black"/>
<path d="M358.703 58V14.3636H375.919C379.214 14.3636 382.027 14.9531 384.356 16.1321C386.7 17.2969 388.483 18.9517 389.704 21.0966C390.94 23.2273 391.558 25.7344 391.558 28.6179C391.558 31.5156 390.933 34.0085 389.683 36.0966C388.433 38.1705 386.622 39.7614 384.25 40.8693C381.892 41.9773 379.037 42.5312 375.684 42.5312H364.157V35.1165H374.193C375.954 35.1165 377.417 34.875 378.582 34.392C379.747 33.9091 380.613 33.1847 381.181 32.2188C381.764 31.2528 382.055 30.0526 382.055 28.6179C382.055 27.169 381.764 25.9474 381.181 24.9531C380.613 23.9588 379.74 23.206 378.561 22.6946C377.396 22.169 375.926 21.9062 374.15 21.9062H367.929V58H358.703ZM382.268 38.142L393.113 58H382.929L372.318 38.142H382.268ZM394.907 58V25.2727H403.984V58H394.907ZM399.467 21.054C398.118 21.054 396.96 20.6065 395.994 19.7116C395.042 18.8026 394.566 17.7159 394.566 16.4517C394.566 15.2017 395.042 14.1293 395.994 13.2344C396.96 12.3253 398.118 11.8707 399.467 11.8707C400.816 11.8707 401.967 12.3253 402.919 13.2344C403.885 14.1293 404.368 15.2017 404.368 16.4517C404.368 17.7159 403.885 18.8026 402.919 19.7116C401.967 20.6065 400.816 21.054 399.467 21.054ZM435.485 34.6051L427.175 35.1165C427.033 34.4062 426.728 33.767 426.259 33.1989C425.79 32.6165 425.173 32.1548 424.406 31.8139C423.653 31.4588 422.751 31.2812 421.7 31.2812C420.293 31.2812 419.107 31.5795 418.141 32.1761C417.175 32.7585 416.692 33.5398 416.692 34.5199C416.692 35.3011 417.005 35.9616 417.63 36.5014C418.255 37.0412 419.327 37.4744 420.847 37.8011L426.771 38.9943C429.952 39.6477 432.325 40.6989 433.887 42.1477C435.45 43.5966 436.231 45.5 436.231 47.858C436.231 50.0028 435.599 51.8849 434.335 53.5043C433.085 55.1236 431.366 56.3878 429.178 57.2969C427.005 58.1918 424.498 58.6392 421.657 58.6392C417.325 58.6392 413.873 57.7372 411.302 55.9332C408.745 54.1151 407.246 51.6435 406.806 48.5185L415.734 48.0497C416.004 49.3707 416.657 50.3793 417.694 51.0753C418.731 51.7571 420.059 52.098 421.678 52.098C423.269 52.098 424.548 51.7926 425.513 51.1818C426.494 50.5568 426.991 49.7543 427.005 48.7741C426.991 47.9503 426.643 47.2756 425.961 46.75C425.279 46.2102 424.228 45.7983 422.808 45.5142L417.14 44.3849C413.944 43.7457 411.565 42.6378 410.002 41.0611C408.454 39.4844 407.68 37.4744 407.68 35.0312C407.68 32.929 408.248 31.1179 409.384 29.598C410.535 28.0781 412.147 26.9063 414.221 26.0824C416.309 25.2585 418.752 24.8466 421.55 24.8466C425.684 24.8466 428.937 25.7202 431.309 27.4673C433.695 29.2145 435.087 31.5937 435.485 34.6051ZM447.171 48.5824L447.192 37.6946H448.513L458.996 25.2727H469.415L455.331 41.7216H453.179L447.171 48.5824ZM438.946 58V14.3636H448.023V58H438.946ZM459.401 58L449.77 43.7457L455.821 37.3324L470.033 58H459.401ZM481.925 58V14.3636H499.141C502.437 14.3636 505.249 14.9531 507.579 16.1321C509.923 17.2969 511.705 18.9517 512.927 21.0966C514.163 23.2273 514.781 25.7344 514.781 28.6179C514.781 31.5156 514.156 34.0085 512.906 36.0966C511.656 38.1705 509.844 39.7614 507.472 40.8693C505.114 41.9773 502.259 42.5312 498.907 42.5312H487.38V35.1165H497.415C499.177 35.1165 500.64 34.875 501.805 34.392C502.969 33.9091 503.836 33.1847 504.404 32.2188C504.987 31.2528 505.278 30.0526 505.278 28.6179C505.278 27.169 504.987 25.9474 504.404 24.9531C503.836 23.9588 502.962 23.206 501.783 22.6946C500.619 22.169 499.148 21.9062 497.373 21.9062H491.151V58H481.925ZM505.491 38.142L516.336 58H506.151L495.54 38.142H505.491ZM532.517 58.6392C529.151 58.6392 526.253 57.9574 523.824 56.5938C521.409 55.2159 519.549 53.2699 518.242 50.7557C516.935 48.2273 516.282 45.2372 516.282 41.7855C516.282 38.419 516.935 35.4645 518.242 32.9219C519.549 30.3793 521.388 28.3977 523.76 26.9773C526.147 25.5568 528.945 24.8466 532.155 24.8466C534.314 24.8466 536.324 25.1946 538.185 25.8906C540.06 26.5724 541.694 27.6023 543.086 28.9801C544.492 30.358 545.586 32.0909 546.367 34.179C547.148 36.2528 547.539 38.6818 547.539 41.4659V43.9588H519.904V38.3338H538.995C538.995 37.027 538.711 35.8693 538.142 34.8608C537.574 33.8523 536.786 33.0639 535.777 32.4957C534.783 31.9134 533.625 31.6222 532.304 31.6222C530.926 31.6222 529.705 31.9418 528.64 32.581C527.588 33.206 526.765 34.0511 526.168 35.1165C525.571 36.1676 525.266 37.3395 525.252 38.6321V43.9801C525.252 45.5994 525.55 46.9986 526.147 48.1776C526.757 49.3565 527.617 50.2656 528.725 50.9048C529.833 51.544 531.147 51.8636 532.667 51.8636C533.675 51.8636 534.598 51.7216 535.436 51.4375C536.275 51.1534 536.992 50.7273 537.588 50.1591C538.185 49.5909 538.64 48.8949 538.952 48.071L547.347 48.625C546.921 50.642 546.047 52.4034 544.726 53.9091C543.419 55.4006 541.729 56.5653 539.655 57.4034C537.596 58.2273 535.216 58.6392 532.517 58.6392ZM562.522 58.5327C560.036 58.5327 557.784 57.8935 555.767 56.6151C553.765 55.3224 552.174 53.4261 550.995 50.9261C549.83 48.4119 549.248 45.3295 549.248 41.679C549.248 37.929 549.851 34.8111 551.059 32.3253C552.266 29.8253 553.871 27.9574 555.874 26.7216C557.891 25.4716 560.1 24.8466 562.5 24.8466C564.333 24.8466 565.86 25.1591 567.081 25.7841C568.317 26.3949 569.311 27.1619 570.064 28.0852C570.831 28.9943 571.414 29.8892 571.811 30.7699H572.088V14.3636H581.144V58H572.195V52.7585H571.811C571.385 53.6676 570.782 54.5696 570 55.4645C569.233 56.3452 568.232 57.0767 566.996 57.6591C565.775 58.2415 564.283 58.5327 562.522 58.5327ZM565.398 51.3097C566.861 51.3097 568.097 50.9119 569.105 50.1165C570.128 49.3068 570.909 48.1776 571.449 46.7287C572.003 45.2798 572.28 43.5824 572.28 41.6364C572.28 39.6903 572.01 38 571.471 36.5653C570.931 35.1307 570.15 34.0227 569.127 33.2415C568.104 32.4602 566.861 32.0696 565.398 32.0696C563.907 32.0696 562.65 32.4744 561.627 33.2841C560.604 34.0937 559.83 35.2159 559.304 36.6506C558.779 38.0852 558.516 39.7472 558.516 41.6364C558.516 43.5398 558.779 45.223 559.304 46.6861C559.844 48.1349 560.618 49.2713 561.627 50.0952C562.65 50.9048 563.907 51.3097 565.398 51.3097ZM606.594 44.0653V25.2727H615.67V58H606.956V52.0554H606.615C605.876 53.973 604.648 55.5142 602.929 56.679C601.224 57.8437 599.143 58.4261 596.686 58.4261C594.499 58.4261 592.574 57.929 590.912 56.9347C589.25 55.9403 587.95 54.527 587.013 52.6946C586.089 50.8622 585.621 48.6676 585.607 46.1108V25.2727H594.683V44.4915C594.697 46.4233 595.216 47.9503 596.239 49.0724C597.261 50.1946 598.632 50.7557 600.351 50.7557C601.445 50.7557 602.467 50.5071 603.419 50.0099C604.371 49.4986 605.138 48.7457 605.72 47.7514C606.317 46.7571 606.608 45.5284 606.594 44.0653ZM634.718 58.6392C631.365 58.6392 628.482 57.929 626.067 56.5085C623.667 55.0739 621.82 53.0852 620.527 50.5426C619.249 48 618.61 45.0739 618.61 41.7642C618.61 38.4119 619.256 35.4716 620.549 32.9432C621.855 30.4006 623.709 28.419 626.11 26.9986C628.51 25.5639 631.365 24.8466 634.675 24.8466C637.53 24.8466 640.03 25.3651 642.175 26.402C644.32 27.4389 646.017 28.8949 647.267 30.7699C648.517 32.6449 649.206 34.8466 649.334 37.375H640.769C640.527 35.7415 639.888 34.4276 638.851 33.4332C637.828 32.4247 636.486 31.9205 634.824 31.9205C633.418 31.9205 632.189 32.304 631.138 33.071C630.101 33.8239 629.292 34.9247 628.709 36.3736C628.127 37.8224 627.836 39.5767 627.836 41.6364C627.836 43.7244 628.12 45.5 628.688 46.9631C629.27 48.4261 630.087 49.5412 631.138 50.3082C632.189 51.0753 633.418 51.4588 634.824 51.4588C635.861 51.4588 636.792 51.2457 637.615 50.8196C638.453 50.3935 639.142 49.7756 639.682 48.9659C640.236 48.142 640.598 47.1548 640.769 46.0043H649.334C649.192 48.5043 648.51 50.706 647.289 52.6094C646.081 54.4986 644.412 55.9759 642.282 57.0412C640.151 58.1065 637.63 58.6392 634.718 58.6392ZM669.553 25.2727V32.0909H649.844V25.2727H669.553ZM654.319 17.4318H663.396V47.9432C663.396 48.7812 663.523 49.4347 663.779 49.9034C664.035 50.358 664.39 50.6776 664.844 50.8622C665.313 51.0469 665.853 51.1392 666.464 51.1392C666.89 51.1392 667.316 51.1037 667.742 51.0327C668.168 50.9474 668.495 50.8835 668.722 50.8409L670.15 57.5952C669.695 57.7372 669.056 57.9006 668.232 58.0852C667.408 58.2841 666.407 58.4048 665.228 58.4474C663.04 58.5327 661.123 58.2415 659.475 57.5739C657.842 56.9062 656.57 55.8693 655.661 54.4631C654.752 53.0568 654.305 51.2812 654.319 49.1364V17.4318ZM672.466 58V25.2727H681.543V58H672.466ZM677.026 21.054C675.676 21.054 674.518 20.6065 673.553 19.7116C672.601 18.8026 672.125 17.7159 672.125 16.4517C672.125 15.2017 672.601 14.1293 673.553 13.2344C674.518 12.3253 675.676 11.8707 677.026 11.8707C678.375 11.8707 679.526 12.3253 680.477 13.2344C681.443 14.1293 681.926 15.2017 681.926 16.4517C681.926 17.7159 681.443 18.8026 680.477 19.7116C679.526 20.6065 678.375 21.054 677.026 21.054ZM700.6 58.6392C697.291 58.6392 694.429 57.9361 692.014 56.5298C689.613 55.1094 687.76 53.1349 686.453 50.6065C685.146 48.0639 684.493 45.1165 684.493 41.7642C684.493 38.3835 685.146 35.429 686.453 32.9006C687.76 30.358 689.613 28.3835 692.014 26.9773C694.429 25.5568 697.291 24.8466 700.6 24.8466C703.91 24.8466 706.765 25.5568 709.166 26.9773C711.581 28.3835 713.441 30.358 714.748 32.9006C716.055 35.429 716.708 38.3835 716.708 41.7642C716.708 45.1165 716.055 48.0639 714.748 50.6065C713.441 53.1349 711.581 55.1094 709.166 56.5298C706.765 57.9361 703.91 58.6392 700.6 58.6392ZM700.643 51.608C702.149 51.608 703.406 51.1818 704.414 50.3295C705.423 49.4631 706.183 48.2841 706.694 46.7926C707.22 45.3011 707.483 43.6037 707.483 41.7003C707.483 39.7969 707.22 38.0994 706.694 36.608C706.183 35.1165 705.423 33.9375 704.414 33.071C703.406 32.2045 702.149 31.7713 700.643 31.7713C699.123 31.7713 697.845 32.2045 696.808 33.071C695.785 33.9375 695.011 35.1165 694.485 36.608C693.974 38.0994 693.718 39.7969 693.718 41.7003C693.718 43.6037 693.974 45.3011 694.485 46.7926C695.011 48.2841 695.785 49.4631 696.808 50.3295C697.845 51.1818 699.123 51.608 700.643 51.608ZM728.687 39.0795V58H719.61V25.2727H728.261V31.0469H728.645C729.369 29.1435 730.583 27.6378 732.288 26.5298C733.993 25.4077 736.059 24.8466 738.488 24.8466C740.761 24.8466 742.743 25.3437 744.433 26.3381C746.123 27.3324 747.437 28.7528 748.375 30.5994C749.312 32.4318 749.781 34.6193 749.781 37.1619V58H740.704V38.7812C740.718 36.7784 740.207 35.2159 739.17 34.0938C738.133 32.9574 736.706 32.3892 734.887 32.3892C733.666 32.3892 732.586 32.652 731.649 33.1776C730.725 33.7031 730.001 34.4702 729.475 35.4787C728.964 36.473 728.701 37.6733 728.687 39.0795Z" fill="#405BFF"/>
<defs>
<clipPath id="clip0_1611_352">
<rect width="63" height="67.5" fill="black" transform="translate(0 3)"/>
</clipPath>
</defs>
</svg>
