<svg width="314" height="140" viewBox="0 0 314 140" fill="none" xmlns="http://www.w3.org/2000/svg">
<path d="M2.17144 130.382V110.646H9.45539C13.6334 110.646 15.8598 112.488 15.8598 115.786C15.8598 118.315 14.3205 119.58 12.8088 120.102C15.0352 120.707 16.5194 122.438 16.5194 124.939C16.5194 128.375 14.0182 130.382 10.0326 130.382H2.17144ZM4.72769 119.112H9.2355C11.8742 119.112 13.331 118.095 13.331 116.006C13.331 113.89 11.8742 112.873 9.2355 112.873H4.72769V119.112ZM4.72769 121.366V128.155H9.92266C12.5614 128.155 13.9907 126.781 13.9907 124.747C13.9907 122.741 12.5614 121.366 9.92266 121.366H4.72769ZM31.0233 116.006V130.382H28.5496V128.403C27.725 129.612 26.3231 130.684 24.2891 130.684C21.2106 130.684 19.479 128.568 19.479 125.517V116.006H21.9528V124.994C21.9528 127.028 22.8323 128.403 24.9488 128.403C26.7354 128.403 28.5496 127.056 28.5496 124.665V116.006H31.0233ZM42.5802 115.951V118.453C42.1679 118.37 41.838 118.343 41.3708 118.343C39.2818 118.343 37.6051 119.992 37.6051 122.521V130.382H35.1313V116.006H37.6051V118.453C38.2373 116.996 39.6391 115.896 41.5907 115.896C41.9755 115.896 42.3328 115.924 42.5802 115.951ZM50.4587 130.684C46.4732 130.684 43.7245 127.633 43.7245 123.208C43.7245 118.92 46.4457 115.731 50.3488 115.731C54.3618 115.731 56.4783 118.782 56.4783 122.768V123.593H46.0884C46.2258 126.616 47.9575 128.54 50.4587 128.54C52.3828 128.54 53.7571 127.496 54.1969 125.792L56.3683 126.561C55.4888 129.117 53.3173 130.684 50.4587 130.684ZM50.3213 117.848C48.2323 117.848 46.6656 119.25 46.2258 121.696H53.977C53.922 119.662 52.8226 117.848 50.3213 117.848ZM63.3197 130.629C60.7084 130.629 58.592 129.09 58.592 126.506C58.592 123.648 60.8184 122.466 64.0343 121.806L67.5251 121.091V120.487C67.5251 118.837 66.6181 117.903 64.694 117.903C62.8799 117.903 61.8079 118.755 61.3681 120.349L59.0318 119.745C59.7189 117.408 61.8354 115.731 64.7765 115.731C67.9924 115.731 69.9714 117.298 69.9714 120.377V127.386C69.9714 128.32 70.5486 128.623 71.5107 128.403V130.382C69.3117 130.657 68.0474 130.134 67.745 128.76C66.8654 129.887 65.2712 130.629 63.3197 130.629ZM67.5251 125.489V123.015L64.7215 123.62C62.5226 124.06 61.0383 124.665 61.0383 126.396C61.0383 127.798 62.0553 128.623 63.622 128.623C65.7385 128.623 67.5251 127.331 67.5251 125.489ZM85.5939 116.006V130.382H83.1201V128.403C82.2955 129.612 80.8937 130.684 78.8597 130.684C75.7812 130.684 74.0495 128.568 74.0495 125.517V116.006H76.5233V124.994C76.5233 127.028 77.4029 128.403 79.5194 128.403C81.306 128.403 83.1201 127.056 83.1201 124.665V116.006H85.5939ZM107.869 123.208C107.869 127.661 105.12 130.684 101.19 130.684C97.259 130.684 94.5103 127.661 94.5103 123.208C94.5103 118.755 97.259 115.731 101.19 115.731C105.12 115.731 107.869 118.755 107.869 123.208ZM97.0116 123.208C97.0116 126.479 98.6608 128.568 101.19 128.568C103.718 128.568 105.367 126.479 105.367 123.208C105.367 119.909 103.718 117.82 101.19 117.82C98.6608 117.82 97.0116 119.909 97.0116 123.208ZM117.282 110.399V112.598C116.869 112.543 116.622 112.543 116.21 112.543C114.753 112.543 113.956 113.175 113.956 115.017V116.006H117.144V118.123H113.956V130.382H111.482V118.123H109.311V116.006H111.482V114.852C111.482 112.048 113.021 110.344 115.962 110.344C116.457 110.344 116.732 110.372 117.282 110.399ZM129.337 123.373V130.382H124.746V110.646H133.075C137.72 110.646 140.606 112.873 140.606 116.996C140.606 119.937 139.067 121.971 136.428 122.878L141.183 130.382H135.933L131.646 123.373H129.337ZM129.337 119.635H132.827C134.999 119.635 136.098 118.673 136.098 117.078C136.098 115.457 134.999 114.522 132.827 114.522H129.337V119.635ZM142.754 114.412V110.646H147.234V114.412H142.754ZM147.179 115.896V130.382H142.781V115.896H147.179ZM148.736 128.265L151.018 125.297C152.2 126.589 154.069 127.358 155.635 127.358C156.79 127.358 157.752 126.973 157.752 126.204C157.752 125.242 156.79 125.132 154.481 124.72C152.09 124.252 149.533 123.62 149.533 120.487C149.533 117.546 152.145 115.594 155.718 115.594C158.329 115.594 160.638 116.584 161.847 117.903L159.648 120.734C158.549 119.58 157.12 118.947 155.69 118.947C154.618 118.947 153.931 119.36 153.931 120.019C153.931 120.817 154.783 120.926 156.542 121.256C159.154 121.779 162.067 122.411 162.067 125.682C162.067 128.843 159.154 130.684 155.47 130.684C152.942 130.684 150.083 129.832 148.736 128.265ZM168.438 110.646V121.091L173.056 115.896H178.224L173.029 121.339L178.636 130.382H173.606L169.978 124.555L168.438 126.176V130.382H164.04V110.646H168.438ZM190.108 123.373V130.382H185.518V110.646H193.846C198.491 110.646 201.377 112.873 201.377 116.996C201.377 119.937 199.838 121.971 197.199 122.878L201.955 130.382H196.705L192.417 123.373H190.108ZM190.108 119.635H193.599C195.77 119.635 196.87 118.673 196.87 117.078C196.87 115.457 195.77 114.522 193.599 114.522H190.108V119.635ZM209.853 130.684C205.482 130.684 202.514 127.633 202.514 123.125C202.514 118.837 205.592 115.594 209.77 115.594C214.168 115.594 216.559 118.837 216.559 122.933V124.087H206.747C207.049 126.066 208.231 127.193 209.908 127.193C211.282 127.193 212.354 126.534 212.766 125.269L216.449 126.451C215.377 129.227 212.739 130.684 209.853 130.684ZM209.715 119.002C208.368 119.002 207.324 119.799 206.884 121.394H212.216C212.189 120.102 211.337 119.002 209.715 119.002ZM224.081 130.684C220.095 130.684 217.841 127.276 217.841 123.153C217.841 119.002 220.095 115.594 224.081 115.594C225.812 115.594 227.187 116.309 228.011 117.353V110.646H232.409V130.382H228.011V128.953C227.187 129.97 225.812 130.684 224.081 130.684ZM228.039 122.768C228.039 120.569 226.857 119.36 225.208 119.36C223.284 119.36 222.267 120.926 222.267 123.153C222.267 125.379 223.284 126.946 225.208 126.946C226.857 126.946 228.039 125.709 228.039 123.538V122.768ZM248.446 115.896V130.382H244.048V128.953C243.251 129.86 241.959 130.684 240.145 130.684C237.177 130.684 235.225 128.65 235.225 125.489V115.896H239.623V124.445C239.623 125.902 240.255 126.836 241.684 126.836C242.894 126.836 244.048 125.984 244.048 124.28V115.896H248.446ZM254.851 123.153C254.851 125.599 256.005 127.056 257.847 127.056C259.276 127.056 260.128 126.039 260.431 124.665L264.251 126.149C263.646 128.568 261.365 130.684 257.819 130.684C253.531 130.684 250.508 127.606 250.508 123.153C250.508 118.673 253.531 115.594 257.819 115.594C261.338 115.594 263.592 117.683 264.224 120.074L260.431 121.614C260.128 120.267 259.276 119.222 257.847 119.222C256.005 119.222 254.851 120.679 254.851 123.153ZM266.509 126.506V119.525H264.668V115.896H266.509V111.883H270.852V115.896H273.683V119.525H270.852V125.379C270.852 126.589 271.484 126.809 272.584 126.809C273.106 126.809 273.354 126.781 273.848 126.726V130.327C273.079 130.437 272.254 130.519 271.21 130.519C268.076 130.519 266.509 129.475 266.509 126.506ZM275.919 114.412V110.646H280.399V114.412H275.919ZM280.344 115.896V130.382H275.946V115.896H280.344ZM296.936 123.153C296.936 127.661 293.94 130.684 289.68 130.684C285.392 130.684 282.423 127.661 282.423 123.153C282.423 118.645 285.392 115.594 289.68 115.594C293.94 115.594 296.936 118.645 296.936 123.153ZM286.794 123.153C286.794 125.682 287.921 127.111 289.68 127.111C291.439 127.111 292.566 125.682 292.566 123.153C292.566 120.624 291.439 119.195 289.68 119.195C287.921 119.195 286.794 120.624 286.794 123.153ZM299.004 130.382V115.896H303.402V117.353C304.199 116.419 305.546 115.594 307.387 115.594C310.356 115.594 312.225 117.656 312.225 120.817V130.382H307.827V122.081C307.827 120.624 307.222 119.552 305.793 119.552C304.584 119.552 303.402 120.404 303.402 122.108V130.382H299.004Z" fill="#191919"/>
<path d="M164.613 63.0104L175.345 40.6396L147.472 51.1486L117.03 28.3994H150.489L162.056 0.366211L171.409 28.3994H205.6L175.345 40.6396L188.73 81.0415L164.613 63.0104Z" fill="url(#paint0_linear_653_1255)"/>
<defs>
<linearGradient id="paint0_linear_653_1255" x1="223.979" y1="-8.44752" x2="94.6426" y2="79.4909" gradientUnits="userSpaceOnUse">
<stop offset="0.123144" stop-color="#405BFF"/>
<stop offset="1" stop-color="#3DD6F5"/>
</linearGradient>
</defs>
</svg>
