<svg width="39" height="36" viewBox="0 0 39 36" fill="none" xmlns="http://www.w3.org/2000/svg">
<path d="M15.5491 26.2264V24.2828H1.96307L1.94363 32.0574C1.94363 34.2148 3.67347 35.9447 5.8309 35.9447H33.0418C35.1992 35.9447 36.9291 34.2148 36.9291 32.0574V24.2828H23.3236V26.2264H15.5491ZM34.9854 8.73358H27.1914V4.84628L23.3042 0.958984H15.5296L11.6424 4.84628V8.73358H3.88727C1.74927 8.73358 0 10.4829 0 12.6209V18.4518C0 20.6093 1.72983 22.3391 3.88727 22.3391H15.5491V18.4518H23.3236V22.3391H34.9854C37.1234 22.3391 38.8727 20.5898 38.8727 18.4518V12.6209C38.8727 10.4829 37.1234 8.73358 34.9854 8.73358ZM23.3236 8.73358H15.5491V4.84628H23.3236V8.73358Z" fill="url(#paint0_linear_424_7196)"/>
<defs>
<linearGradient id="paint0_linear_424_7196" x1="46.5847" y1="-8.31222" x2="9.99385" y2="39.7533" gradientUnits="userSpaceOnUse">
<stop offset="0.123144" stop-color="#3DD6F5"/>
<stop offset="1" stop-color="#A34FDE"/>
</linearGradient>
</defs>
</svg>
