<svg width="51" height="45" viewBox="0 0 51 45" fill="none" xmlns="http://www.w3.org/2000/svg">
<path d="M20.498 32.5V30H3.02305L2.99805 40C2.99805 42.775 5.22305 45 7.99805 45H42.998C45.773 45 47.998 42.775 47.998 40V30H30.498V32.5H20.498ZM45.498 10H35.473V5L30.473 0H20.473L15.473 5V10H5.49805C2.74805 10 0.498047 12.25 0.498047 15V22.5C0.498047 25.275 2.72305 27.5 5.49805 27.5H20.498V22.5H30.498V27.5H45.498C48.248 27.5 50.498 25.25 50.498 22.5V15C50.498 12.25 48.248 10 45.498 10ZM30.498 10H20.498V5H30.498V10Z" fill="white"/>
<path d="M20.498 32.5V30H3.02305L2.99805 40C2.99805 42.775 5.22305 45 7.99805 45H42.998C45.773 45 47.998 42.775 47.998 40V30H30.498V32.5H20.498ZM45.498 10H35.473V5L30.473 0H20.473L15.473 5V10H5.49805C2.74805 10 0.498047 12.25 0.498047 15V22.5C0.498047 25.275 2.72305 27.5 5.49805 27.5H20.498V22.5H30.498V27.5H45.498C48.248 27.5 50.498 25.25 50.498 22.5V15C50.498 12.25 48.248 10 45.498 10ZM30.498 10H20.498V5H30.498V10Z" fill="url(#paint0_linear_424_7181)"/>
<defs>
<linearGradient id="paint0_linear_424_7181" x1="25.498" y1="0" x2="25.498" y2="45" gradientUnits="userSpaceOnUse">
<stop stop-color="white"/>
<stop offset="1" stop-color="white" stop-opacity="0"/>
</linearGradient>
</defs>
</svg>
