<svg width="51" height="41" viewBox="0 0 51 41" fill="none" xmlns="http://www.w3.org/2000/svg">
<path d="M45.498 0.500977H5.49805C2.72305 0.500977 0.523047 2.72598 0.523047 5.50098L0.498047 35.501C0.498047 38.276 2.72305 40.501 5.49805 40.501H45.498C48.273 40.501 50.498 38.276 50.498 35.501V5.50098C50.498 2.72598 48.273 0.500977 45.498 0.500977ZM45.498 35.501H5.49805V20.501H45.498V35.501ZM45.498 10.501H5.49805V5.50098H45.498V10.501Z" fill="white"/>
<path d="M45.498 0.500977H5.49805C2.72305 0.500977 0.523047 2.72598 0.523047 5.50098L0.498047 35.501C0.498047 38.276 2.72305 40.501 5.49805 40.501H45.498C48.273 40.501 50.498 38.276 50.498 35.501V5.50098C50.498 2.72598 48.273 0.500977 45.498 0.500977ZM45.498 35.501H5.49805V20.501H45.498V35.501ZM45.498 10.501H5.49805V5.50098H45.498V10.501Z" fill="url(#paint0_linear_424_7184)"/>
<defs>
<linearGradient id="paint0_linear_424_7184" x1="25.498" y1="0.500977" x2="25.498" y2="40.501" gradientUnits="userSpaceOnUse">
<stop stop-color="white"/>
<stop offset="1" stop-color="white" stop-opacity="0"/>
</linearGradient>
</defs>
</svg>
