<svg width="51" height="49" viewBox="0 0 51 49" fill="none" xmlns="http://www.w3.org/2000/svg">
<path d="M45.073 14.4609L39.398 8.78594C39.573 7.73594 39.848 6.76094 40.198 5.91094C40.398 5.46094 40.498 4.98594 40.498 4.46094C40.498 2.38594 38.823 0.710938 36.748 0.710938C32.648 0.710938 29.023 2.68594 26.748 5.71094H14.248C6.64805 5.71094 0.498047 11.8609 0.498047 19.4609C0.498047 27.0609 6.74805 48.2109 6.74805 48.2109H20.498V43.2109H25.498V48.2109H39.248L43.448 34.2359L50.498 31.8859V14.4609H45.073ZM27.998 18.2109H15.498V13.2109H27.998V18.2109ZM35.498 23.2109C34.123 23.2109 32.998 22.0859 32.998 20.7109C32.998 19.3359 34.123 18.2109 35.498 18.2109C36.873 18.2109 37.998 19.3359 37.998 20.7109C37.998 22.0859 36.873 23.2109 35.498 23.2109Z" fill="white"/>
<path d="M45.073 14.4609L39.398 8.78594C39.573 7.73594 39.848 6.76094 40.198 5.91094C40.398 5.46094 40.498 4.98594 40.498 4.46094C40.498 2.38594 38.823 0.710938 36.748 0.710938C32.648 0.710938 29.023 2.68594 26.748 5.71094H14.248C6.64805 5.71094 0.498047 11.8609 0.498047 19.4609C0.498047 27.0609 6.74805 48.2109 6.74805 48.2109H20.498V43.2109H25.498V48.2109H39.248L43.448 34.2359L50.498 31.8859V14.4609H45.073ZM27.998 18.2109H15.498V13.2109H27.998V18.2109ZM35.498 23.2109C34.123 23.2109 32.998 22.0859 32.998 20.7109C32.998 19.3359 34.123 18.2109 35.498 18.2109C36.873 18.2109 37.998 19.3359 37.998 20.7109C37.998 22.0859 36.873 23.2109 35.498 23.2109Z" fill="url(#paint0_linear_424_7171)"/>
<defs>
<linearGradient id="paint0_linear_424_7171" x1="25.498" y1="0.710937" x2="25.498" y2="48.2109" gradientUnits="userSpaceOnUse">
<stop stop-color="white"/>
<stop offset="1" stop-color="white" stop-opacity="0"/>
</linearGradient>
</defs>
</svg>
