<svg width="39" height="38" viewBox="0 0 39 38" fill="none" xmlns="http://www.w3.org/2000/svg">
<path d="M34.655 10.8698L30.243 6.45768C30.379 5.64134 30.5928 4.88332 30.8649 4.22248C31.0204 3.87262 31.0982 3.50333 31.0982 3.09516C31.0982 1.48193 29.7959 0.179688 28.1827 0.179688C24.9951 0.179688 22.1769 1.71517 20.4082 4.06699H10.69C4.78134 4.06699 0 8.84836 0 14.7571C0 20.6658 4.85909 37.109 4.85909 37.109H15.5491V33.2217H19.4363V37.109H30.1263L33.3916 26.244L38.8727 24.417V10.8698H34.655ZM21.38 13.7852H11.6618V9.89793H21.38V13.7852ZM27.2109 17.6725C26.1419 17.6725 25.2673 16.7979 25.2673 15.7289C25.2673 14.6599 26.1419 13.7852 27.2109 13.7852C28.2799 13.7852 29.1545 14.6599 29.1545 15.7289C29.1545 16.7979 28.2799 17.6725 27.2109 17.6725Z" fill="url(#paint0_linear_424_7198)"/>
<defs>
<linearGradient id="paint0_linear_424_7198" x1="46.5847" y1="-9.60659" x2="7.45478" y2="39.0889" gradientUnits="userSpaceOnUse">
<stop offset="0.123144" stop-color="#3DD6F5"/>
<stop offset="1" stop-color="#A34FDE"/>
</linearGradient>
</defs>
</svg>
