<svg width="1440" height="963" viewBox="0 0 1440 963" fill="none" xmlns="http://www.w3.org/2000/svg">
<g clip-path="url(#clip0_440_6421)">
<rect width="1440" height="963" fill="white"/>
<rect width="1440" height="963" fill="url(#paint0_linear_440_6421)"/>
<g opacity="0.55" filter="url(#filter0_f_440_6421)">
<path d="M1199.93 1107.9C1015.5 1001.42 937.25 791.698 1025.14 639.465C1487.14 -160.746 1333.79 450.14 1518.21 556.616C1702.63 663.093 2067.11 433.146 1693 1025.05C1605.1 1177.28 1384.35 1214.38 1199.93 1107.9Z" fill="url(#paint1_linear_440_6421)"/>
</g>
<g opacity="0.25" filter="url(#filter1_f_440_6421)">
<path d="M-3.34757 1121.8C47.2706 977.763 184.763 894.899 303.75 936.715C929.206 1156.52 641.459 1227.56 590.841 1371.59C540.223 1515.62 428.135 1458.31 120.446 1458.31C1.45843 1416.49 -53.9657 1265.83 -3.34757 1121.8Z" fill="#A34FDE"/>
</g>
</g>
<defs>
<filter id="filter0_f_440_6421" x="289.072" y="-466.617" width="2266.32" height="2335.28" filterUnits="userSpaceOnUse" color-interpolation-filters="sRGB">
<feFlood flood-opacity="0" result="BackgroundImageFix"/>
<feBlend mode="normal" in="SourceGraphic" in2="BackgroundImageFix" result="shape"/>
<feGaussianBlur stdDeviation="350" result="effect1_foregroundBlur_440_6421"/>
</filter>
<filter id="filter1_f_440_6421" x="-472.092" y="475.876" width="1622.92" height="1443.69" filterUnits="userSpaceOnUse" color-interpolation-filters="sRGB">
<feFlood flood-opacity="0" result="BackgroundImageFix"/>
<feBlend mode="normal" in="SourceGraphic" in2="BackgroundImageFix" result="shape"/>
<feGaussianBlur stdDeviation="225" result="effect1_foregroundBlur_440_6421"/>
</filter>
<linearGradient id="paint0_linear_440_6421" x1="720" y1="0" x2="720" y2="963" gradientUnits="userSpaceOnUse">
<stop stop-color="white"/>
<stop offset="1" stop-color="white" stop-opacity="0"/>
</linearGradient>
<linearGradient id="paint1_linear_440_6421" x1="1631.24" y1="1547.4" x2="1141.4" y2="322.228" gradientUnits="userSpaceOnUse">
<stop offset="0.123144" stop-color="#3DD6F5"/>
<stop offset="1" stop-color="#A34FDE"/>
</linearGradient>
<clipPath id="clip0_440_6421">
<rect width="1440" height="963" fill="white"/>
</clipPath>
</defs>
</svg>
