<svg width="174" height="28" viewBox="0 0 174 28" fill="none" xmlns="http://www.w3.org/2000/svg">
<path fill-rule="evenodd" clip-rule="evenodd" d="M38.8372 0H14.2148C6.37626 0 0 6.27927 0 13.9986C0 21.7179 6.37626 27.9971 14.2148 27.9971H38.8372C46.6758 27.9971 53.052 21.7179 53.052 13.9986C53.0549 6.27927 46.6787 0 38.8372 0ZM14.2148 24.8446C8.14437 24.8446 3.20415 19.9795 3.20415 13.9986C3.20415 8.02049 8.14437 3.15541 14.2148 3.15541H30.5414C27.2586 5.66827 25.1468 9.58959 25.1468 13.9986C25.1468 18.4104 27.2615 22.3317 30.5414 24.8417H14.2148V24.8446ZM34.4912 17.4035L35.9331 15.998C36.5798 16.9446 37.375 17.4781 38.3974 17.6531V14.7272C36.7458 14.4174 35.033 13.9297 35.033 11.8271C35.033 10.0371 36.4895 8.86958 38.3974 8.63149V7.21156H39.915V8.63149C41.418 8.80934 42.6327 9.48919 43.2648 10.4358L41.8841 11.8558C41.4035 11.1157 40.7277 10.5993 39.9179 10.3928V13.1294C41.5695 13.4392 43.326 13.9269 43.326 16.1012C43.326 17.9486 41.855 19.1476 39.9179 19.4144V20.8774H38.4003V19.4431C36.7138 19.2824 35.2428 18.5424 34.4912 17.4035ZM38.3953 10.3496C37.5709 10.4988 37 10.9405 37 11.6663C37 12.3461 37.5855 12.6416 38.3953 12.8338V10.3496ZM39.9121 15.0226C40.7539 15.2292 41.354 15.539 41.354 16.2647C41.354 17.0937 40.7685 17.5068 39.9121 17.656V15.0226Z" fill="url(#paint0_linear_419_8396)"/>
<path d="M67.4159 7.43619V20.2234H66.0529V7.43619H61.0312V6.24902H72.4349V7.43619H67.4159Z" fill="#2C2C2C"/>
<path d="M76.291 20.4175C73.5229 20.4175 71.666 18.276 71.666 15.1438C71.666 12.0117 73.5229 9.87012 76.291 9.87012C79.0592 9.87012 80.9371 12.0117 80.9371 15.1438C80.9371 18.276 79.0566 20.4175 76.291 20.4175ZM76.291 19.3079C78.2871 19.3079 79.6108 17.6733 79.6108 15.1438C79.6108 12.6324 78.2871 10.9797 76.291 10.9797C74.295 10.9797 72.9713 12.635 72.9713 15.1438C72.9687 17.6733 74.295 19.3079 76.291 19.3079Z" fill="#2C2C2C"/>
<path d="M87.2796 23.9221C85.126 23.9221 83.4635 22.872 82.9514 21.1003L84.1963 20.6141C84.5534 22.034 85.7379 22.8332 87.2796 22.8332C89.2966 22.8332 90.5809 21.7831 90.5809 19.4657V17.9863C90.0268 19.1734 88.7819 20.0114 87.2612 20.0114C84.4142 20.0114 82.7754 17.6759 82.7754 14.9498C82.7754 12.185 84.4169 9.87012 87.2612 9.87012C88.7635 9.87012 90.0294 10.7081 90.5809 11.9134V10.0641H91.8862V19.3881C91.8836 22.3651 89.9874 23.9221 87.2796 23.9221ZM87.4372 11.0159C85.3624 11.0159 84.0965 12.6117 84.0965 14.9472C84.0965 17.2647 85.3624 18.8786 87.4372 18.8786C88.9185 18.8786 90.5993 17.769 90.5993 15.2188V14.7119C90.5993 12.1074 88.9211 11.0159 87.4372 11.0159Z" fill="#2C2C2C"/>
<path d="M98.9612 23.9221C96.8076 23.9221 95.1451 22.872 94.633 21.1003L95.8779 20.6141C96.2351 22.034 97.4196 22.8332 98.9612 22.8332C100.978 22.8332 102.263 21.7831 102.263 19.4657V17.9863C101.708 19.1734 100.464 20.0114 98.9429 20.0114C96.0959 20.0114 94.457 17.6759 94.457 14.9498C94.457 12.185 96.0985 9.87012 98.9429 9.87012C100.445 9.87012 101.711 10.7081 102.263 11.9134V10.0641H103.568V19.3881C103.565 22.3651 101.669 23.9221 98.9612 23.9221ZM99.1188 11.0159C97.044 11.0159 95.7781 12.6117 95.7781 14.9472C95.7781 17.2647 97.044 18.8786 99.1188 18.8786C100.6 18.8786 102.281 17.769 102.281 15.2188V14.7119C102.281 12.1074 100.6 11.0159 99.1188 11.0159Z" fill="#2C2C2C"/>
<path d="M108.21 20.2234H106.904V6.24902H108.21V20.2234Z" fill="#2C2C2C"/>
<path d="M110.797 15.1438C110.797 12.0686 112.654 9.87012 115.401 9.87012C118.187 9.87012 119.629 11.991 119.629 14.8153V15.2447H112.039C112.079 17.7173 113.463 19.2924 115.459 19.2924C117.021 19.2924 118.048 18.4363 118.363 17.094L119.551 17.4638C118.996 19.2924 117.515 20.4227 115.459 20.4227C112.656 20.4175 110.797 18.276 110.797 15.1438ZM112.102 14.2282H118.308C118.269 12.5548 117.418 10.9978 115.404 10.9978C113.683 10.9978 112.399 12.2238 112.102 14.2282Z" fill="#2C2C2C"/>
<path d="M121.787 6.24902H127.639C130.722 6.24902 132.363 7.57327 132.363 9.9657C132.363 11.6391 131.355 12.5547 130.386 12.9634C131.809 13.4315 132.797 14.6187 132.797 16.3102C132.797 18.7621 130.998 20.2234 127.993 20.2234H121.787V6.24902ZM127.363 11.9314C128.805 11.9314 129.616 11.3856 129.616 10.2761C129.616 9.18719 128.805 8.62076 127.363 8.62076H124.576V11.9288H127.363V11.9314ZM124.574 17.8284H127.796C129.22 17.8284 129.989 17.1094 129.989 16.0386C129.989 14.9885 129.217 14.2488 127.796 14.2488H124.574V17.8284Z" fill="#2C2C2C"/>
<path d="M133.705 17.3815C133.705 15.3382 135.365 14.4821 137.461 14.1123L140.05 13.626V13.4708C140.05 12.5941 139.596 12.0509 138.448 12.0509C137.421 12.0509 136.886 12.4984 136.649 13.4139L134.02 12.9277C134.496 11.1948 136.077 9.79297 138.545 9.79297C141.174 9.79297 142.756 10.9801 142.756 13.3545V17.5393C142.756 18.085 142.992 18.2583 143.606 18.1807V20.224C141.847 20.4774 140.78 20.1257 140.326 19.2696C139.654 19.9886 138.606 20.3973 137.243 20.3973C135.207 20.3998 133.705 19.192 133.705 17.3815ZM140.05 15.5322L138.015 15.9409C137.106 16.1167 136.434 16.409 136.434 17.2263C136.434 17.9272 136.967 18.3359 137.797 18.3359C138.963 18.3359 140.05 17.7333 140.05 16.5849V15.5322Z" fill="#2C2C2C"/>
<path d="M145.17 9.98661H147.938V11.0367C148.511 10.3746 149.461 9.79004 150.785 9.79004C152.96 9.79004 154.283 11.2488 154.283 13.4679V20.221H151.515V14.2464C151.515 13.0981 151.04 12.2808 149.855 12.2808C148.886 12.2808 147.938 12.961 147.938 14.3059V20.2236H145.17V9.98661Z" fill="#2C2C2C"/>
<path d="M159.262 13.9565L162.9 9.98639H166.22L162.406 13.8789L166.516 20.2234H163.354L160.489 15.8446L159.262 17.0913V20.226H156.494V6.24902H159.262V13.9565Z" fill="#2C2C2C"/>
<defs>
<linearGradient id="paint0_linear_419_8396" x1="6.02864" y1="-2.22704" x2="23.5559" y2="36.4855" gradientUnits="userSpaceOnUse">
<stop offset="0.123144" stop-color="#3DD6F5"/>
<stop offset="1" stop-color="#A34FDE"/>
</linearGradient>
</defs>
</svg>
