<svg width="161" height="97" viewBox="0 0 161 97" fill="none" xmlns="http://www.w3.org/2000/svg">
<path fill-rule="evenodd" clip-rule="evenodd" d="M98.6433 0H61.5859C49.7887 0 40.1923 9.45046 40.1923 21.0682C40.1923 32.6859 49.7887 42.1364 61.5859 42.1364H98.6433C110.44 42.1364 120.037 32.6859 120.037 21.0682C120.041 9.45046 110.445 0 98.6433 0ZM61.5859 37.3917C52.4497 37.3917 45.0146 30.0697 45.0146 21.0682C45.0146 12.071 52.4497 4.74898 61.5859 4.74898H86.1578C81.2171 8.53089 78.0388 14.4326 78.0388 21.0682C78.0388 27.7081 81.2215 33.6098 86.1578 37.3874H61.5859V37.3917ZM92.1024 26.1928L94.2725 24.0773C95.2457 25.502 96.4425 26.305 97.9813 26.5684V22.1648C95.4956 21.6985 92.9178 20.9646 92.9178 17.8C92.9178 15.1061 95.1098 13.3489 97.9813 12.9906V10.8536H100.265V12.9906C102.527 13.2583 104.356 14.2815 105.307 15.7062L103.229 17.8432C102.505 16.7294 101.488 15.9522 100.27 15.6414V19.7601C102.755 20.2263 105.399 20.9603 105.399 24.2327C105.399 27.013 103.185 28.8177 100.27 29.2192V31.421H97.9857V29.2623C95.4474 29.0206 93.2335 27.9067 92.1024 26.1928ZM97.977 15.5769C96.7364 15.8014 95.8771 16.4662 95.8771 17.5585C95.8771 18.5817 96.7583 19.0264 97.977 19.3156V15.5769ZM100.261 22.6096C101.528 22.9205 102.431 23.3867 102.431 24.479C102.431 25.7267 101.55 26.3484 100.261 26.5729V22.6096Z" fill="url(#paint0_linear_114_1385)"/>
<path d="M17.46 71.6564H10.17V90.6764H7.29V71.6564H0V69.1364H17.46V71.6564Z" fill="#191919"/>
<path d="M30.3865 82.8464C30.3865 87.7064 27.3865 91.0064 23.0965 91.0064C18.8065 91.0064 15.8065 87.7064 15.8065 82.8464C15.8065 77.9864 18.8065 74.6864 23.0965 74.6864C27.3865 74.6864 30.3865 77.9864 30.3865 82.8464ZM18.5365 82.8464C18.5365 86.4164 20.3365 88.6964 23.0965 88.6964C25.8565 88.6964 27.6565 86.4164 27.6565 82.8464C27.6565 79.2464 25.8565 76.9664 23.0965 76.9664C20.3365 76.9664 18.5365 79.2464 18.5365 82.8464Z" fill="#191919"/>
<path d="M47.1101 89.2664C47.1101 93.8564 44.0801 96.4064 39.8201 96.4064C36.3701 96.4064 33.8501 94.8164 32.9801 91.9364L35.5001 90.9764C36.0101 92.9864 37.6301 94.1564 39.8201 94.1564C42.5801 94.1564 44.4101 92.7464 44.4101 89.4764V87.7064C43.5701 89.2364 41.8001 90.3164 39.6101 90.3164C35.3201 90.3164 32.8001 86.7764 32.8001 82.4864C32.8001 78.2264 35.3201 74.6864 39.6101 74.6864C41.7701 74.6864 43.5701 75.7664 44.4101 77.2964V74.9864H47.1101V89.2664ZM44.4401 82.2464C44.4401 78.7364 42.3401 77.0564 40.0901 77.0564C37.2401 77.0564 35.5001 79.1864 35.5001 82.4864C35.5001 85.7864 37.2401 87.9464 40.0901 87.9464C42.3401 87.9464 44.4401 86.2664 44.4401 82.8164V82.2464Z" fill="#191919"/>
<path d="M64.8054 89.2664C64.8054 93.8564 61.7754 96.4064 57.5154 96.4064C54.0654 96.4064 51.5454 94.8164 50.6754 91.9364L53.1954 90.9764C53.7054 92.9864 55.3254 94.1564 57.5154 94.1564C60.2754 94.1564 62.1054 92.7464 62.1054 89.4764V87.7064C61.2654 89.2364 59.4954 90.3164 57.3054 90.3164C53.0154 90.3164 50.4954 86.7764 50.4954 82.4864C50.4954 78.2264 53.0154 74.6864 57.3054 74.6864C59.4654 74.6864 61.2654 75.7664 62.1054 77.2964V74.9864H64.8054V89.2664ZM62.1354 82.2464C62.1354 78.7364 60.0354 77.0564 57.7854 77.0564C54.9354 77.0564 53.1954 79.1864 53.1954 82.4864C53.1954 85.7864 54.9354 87.9464 57.7854 87.9464C60.0354 87.9464 62.1354 86.2664 62.1354 82.8164V82.2464Z" fill="#191919"/>
<path d="M71.9986 69.1364V90.6764H69.2986V69.1364H71.9986Z" fill="#191919"/>
<path d="M82.7756 91.0064C78.4256 91.0064 75.4256 87.6764 75.4256 82.8464C75.4256 78.1664 78.3956 74.6864 82.6556 74.6864C87.0356 74.6864 89.3456 78.0164 89.3456 82.3664V83.2664H78.0056C78.1556 86.5664 80.0456 88.6664 82.7756 88.6664C84.8756 88.6664 86.3756 87.5264 86.8556 85.6664L89.2256 86.5064C88.2656 89.2964 85.8956 91.0064 82.7756 91.0064ZM82.6256 76.9964C80.3456 76.9964 78.6356 78.5264 78.1556 81.1964H86.6156C86.5556 78.9764 85.3556 76.9964 82.6256 76.9964Z" fill="#191919"/>
<path d="M92.3468 90.6764V69.1364H101.227C105.907 69.1364 108.397 71.1764 108.397 74.8664C108.397 77.4464 106.867 78.8564 105.397 79.4864C107.557 80.2064 109.057 82.0364 109.057 84.6464C109.057 88.4264 106.327 90.6764 101.767 90.6764H92.3468ZM96.5768 77.8964H100.807C102.997 77.8964 104.227 77.0564 104.227 75.3464C104.227 73.6664 102.997 72.7964 100.807 72.7964H96.5768V77.8964ZM96.5768 81.4664V86.9864H101.467C103.627 86.9864 104.797 85.8764 104.797 84.2264C104.797 82.6064 103.627 81.4664 101.467 81.4664H96.5768Z" fill="#191919"/>
<path d="M115.793 90.9464C112.703 90.9464 110.423 89.0864 110.423 86.2964C110.423 83.1464 112.943 81.8264 116.123 81.2564L120.053 80.5064V80.2664C120.053 78.9164 119.363 78.0764 117.623 78.0764C116.063 78.0764 115.253 78.7664 114.893 80.1764L110.903 79.4264C111.623 76.7564 114.023 74.5964 117.773 74.5964C121.763 74.5964 124.163 76.4264 124.163 80.0864V86.5364C124.163 87.3764 124.523 87.6464 125.453 87.5264V90.6764C122.783 91.0664 121.163 90.5264 120.473 89.2064C119.453 90.3164 117.863 90.9464 115.793 90.9464ZM120.053 85.0664V83.4464L116.963 84.0764C115.583 84.3464 114.563 84.7964 114.563 86.0564C114.563 87.1364 115.373 87.7664 116.633 87.7664C118.403 87.7664 120.053 86.8364 120.053 85.0664Z" fill="#191919"/>
<path d="M127.822 90.6764V74.8964H132.022V76.5164C132.892 75.4964 134.332 74.5964 136.342 74.5964C139.642 74.5964 141.652 76.8464 141.652 80.2664V90.6764H137.452V81.4664C137.452 79.6964 136.732 78.4364 134.932 78.4364C133.462 78.4364 132.022 79.4864 132.022 81.5564V90.6764H127.822Z" fill="#191919"/>
<path d="M149.219 69.1364V81.0164L154.739 74.8964H159.779L153.989 80.8964L160.229 90.6764H155.429L151.079 83.9264L149.219 85.8464V90.6764H145.019V69.1364H149.219Z" fill="#191919"/>
<defs>
<linearGradient id="paint0_linear_114_1385" x1="135.877" y1="-11.1661" x2="101.843" y2="65.0799" gradientUnits="userSpaceOnUse">
<stop offset="0.123144" stop-color="#3DD6F5"/>
<stop offset="1" stop-color="#A34FDE"/>
</linearGradient>
</defs>
</svg>
