<svg width="432" height="70" viewBox="0 0 432 70" fill="none" xmlns="http://www.w3.org/2000/svg">
<path fill-rule="evenodd" clip-rule="evenodd" d="M73.938 7.89392H27.062C12.1391 7.89392 0 19.8484 0 34.5443C0 49.2402 12.1391 61.1946 27.062 61.1946H73.938C88.8609 61.1946 101 49.2402 101 34.5443C101.006 19.8484 88.8665 7.89392 73.938 7.89392ZM27.062 55.1928C15.5052 55.1928 6.10004 45.9308 6.10004 34.5443C6.10004 23.1633 15.5052 13.9012 27.062 13.9012H58.1445C51.8947 18.6851 47.8742 26.1505 47.8742 34.5443C47.8742 42.9435 51.9002 50.4089 58.1445 55.1874H27.062V55.1928ZM65.6641 41.0266L68.4092 38.3507C69.6403 40.1529 71.1542 41.1686 73.1006 41.5018V35.9314C69.9564 35.3416 66.6956 34.4132 66.6956 30.4102C66.6956 27.0024 69.4683 24.7798 73.1006 24.3265V21.6232H75.9898V24.3265C78.8513 24.6651 81.1638 25.9594 82.3671 27.7615L79.7386 30.4648C78.8236 29.0558 77.537 28.0728 75.9954 27.6796V32.8896C79.1397 33.4794 82.4836 34.4077 82.4836 38.5473C82.4836 42.0643 79.6831 44.347 75.9954 44.8549V47.6401H73.1062V44.9095C69.8953 44.6037 67.0949 43.1947 65.6641 41.0266ZM73.0953 27.5977C71.5259 27.8817 70.439 28.7227 70.439 30.1043C70.439 31.3986 71.5536 31.9611 73.0953 32.327V27.5977ZM75.9848 36.4941C77.5875 36.8873 78.7299 37.4771 78.7299 38.8588C78.7299 40.437 77.6152 41.2234 75.9848 41.5074V36.4941Z" fill="url(#paint0_linear_114_1381)"/>
<path d="M145.96 23.534H136.24V48.894H132.4V23.534H122.68V20.174H145.96V23.534Z" fill="white"/>
<path d="M163.195 38.454C163.195 44.934 159.195 49.334 153.475 49.334C147.755 49.334 143.755 44.934 143.755 38.454C143.755 31.974 147.755 27.574 153.475 27.574C159.195 27.574 163.195 31.974 163.195 38.454ZM147.395 38.454C147.395 43.214 149.795 46.254 153.475 46.254C157.155 46.254 159.555 43.214 159.555 38.454C159.555 33.654 157.155 30.614 153.475 30.614C149.795 30.614 147.395 33.654 147.395 38.454Z" fill="white"/>
<path d="M185.493 47.014C185.493 53.134 181.453 56.534 175.773 56.534C171.173 56.534 167.813 54.414 166.653 50.574L170.013 49.294C170.693 51.974 172.853 53.534 175.773 53.534C179.453 53.534 181.893 51.654 181.893 47.294V44.934C180.773 46.974 178.413 48.414 175.493 48.414C169.773 48.414 166.413 43.694 166.413 37.974C166.413 32.294 169.773 27.574 175.493 27.574C178.373 27.574 180.773 29.014 181.893 31.054V27.974H185.493V47.014ZM181.933 37.654C181.933 32.974 179.133 30.734 176.133 30.734C172.333 30.734 170.013 33.574 170.013 37.974C170.013 42.374 172.333 45.254 176.133 45.254C179.133 45.254 181.933 43.014 181.933 38.414V37.654Z" fill="white"/>
<path d="M209.087 47.014C209.087 53.134 205.047 56.534 199.367 56.534C194.767 56.534 191.407 54.414 190.247 50.574L193.607 49.294C194.287 51.974 196.447 53.534 199.367 53.534C203.047 53.534 205.487 51.654 205.487 47.294V44.934C204.367 46.974 202.007 48.414 199.087 48.414C193.367 48.414 190.007 43.694 190.007 37.974C190.007 32.294 193.367 27.574 199.087 27.574C201.967 27.574 204.367 29.014 205.487 31.054V27.974H209.087V47.014ZM205.527 37.654C205.527 32.974 202.727 30.734 199.727 30.734C195.927 30.734 193.607 33.574 193.607 37.974C193.607 42.374 195.927 45.254 199.727 45.254C202.727 45.254 205.527 43.014 205.527 38.414V37.654Z" fill="white"/>
<path d="M218.678 20.174V48.894H215.078V20.174H218.678Z" fill="white"/>
<path d="M233.047 49.334C227.247 49.334 223.247 44.894 223.247 38.454C223.247 32.214 227.207 27.574 232.887 27.574C238.727 27.574 241.807 32.014 241.807 37.814V39.014H226.687C226.887 43.414 229.407 46.214 233.047 46.214C235.847 46.214 237.847 44.694 238.487 42.214L241.647 43.334C240.367 47.054 237.207 49.334 233.047 49.334ZM232.847 30.654C229.807 30.654 227.527 32.694 226.887 36.254H238.167C238.087 33.294 236.487 30.654 232.847 30.654Z" fill="white"/>
<path d="M245.809 48.894V20.174H257.649C263.889 20.174 267.209 22.894 267.209 27.814C267.209 31.254 265.169 33.134 263.209 33.974C266.089 34.934 268.089 37.374 268.089 40.854C268.089 45.894 264.449 48.894 258.369 48.894H245.809ZM251.449 31.854H257.089C260.009 31.854 261.649 30.734 261.649 28.454C261.649 26.214 260.009 25.054 257.089 25.054H251.449V31.854ZM251.449 36.614V43.974H257.969C260.849 43.974 262.409 42.494 262.409 40.294C262.409 38.134 260.849 36.614 257.969 36.614H251.449Z" fill="white"/>
<path d="M277.071 49.254C272.951 49.254 269.911 46.774 269.911 43.054C269.911 38.854 273.271 37.094 277.511 36.334L282.751 35.334V35.014C282.751 33.214 281.831 32.094 279.511 32.094C277.431 32.094 276.351 33.014 275.871 34.894L270.551 33.894C271.511 30.334 274.711 27.454 279.711 27.454C285.031 27.454 288.231 29.894 288.231 34.774V43.374C288.231 44.494 288.711 44.854 289.951 44.694V48.894C286.391 49.414 284.231 48.694 283.311 46.934C281.951 48.414 279.831 49.254 277.071 49.254ZM282.751 41.414V39.254L278.631 40.094C276.791 40.454 275.431 41.054 275.431 42.734C275.431 44.174 276.511 45.014 278.191 45.014C280.551 45.014 282.751 43.774 282.751 41.414Z" fill="white"/>
<path d="M293.109 48.894V27.854H298.709V30.014C299.869 28.654 301.789 27.454 304.469 27.454C308.869 27.454 311.549 30.454 311.549 35.014V48.894H305.949V36.614C305.949 34.254 304.989 32.574 302.589 32.574C300.629 32.574 298.709 33.974 298.709 36.734V48.894H293.109Z" fill="white"/>
<path d="M321.639 20.174V36.014L328.999 27.854H335.719L327.999 35.854L336.319 48.894H329.919L324.119 39.894L321.639 42.454V48.894H316.039V20.174H321.639Z" fill="white"/>
<defs>
<linearGradient id="paint0_linear_114_1381" x1="121.038" y1="-6.23076" x2="77.9851" y2="90.2172" gradientUnits="userSpaceOnUse">
<stop offset="0.123144" stop-color="#3DD6F5"/>
<stop offset="1" stop-color="#A34FDE"/>
</linearGradient>
</defs>
</svg>
